<svg width="500" height="500" viewBox="0 0 500 500" fill="none" xmlns="http://www.w3.org/2000/svg">
<path d="M244.99 479.62C369.282 479.62 470.04 421.448 470.04 349.69C470.04 277.932 369.282 219.76 244.99 219.76C120.698 219.76 19.94 277.932 19.94 349.69C19.94 421.448 120.698 479.62 244.99 479.62Z" fill="#F5F5F5"/>
<path d="M283.51 421.13C306.364 421.13 324.89 410.434 324.89 397.24C324.89 384.046 306.364 373.35 283.51 373.35C260.656 373.35 242.13 384.046 242.13 397.24C242.13 410.434 260.656 421.13 283.51 421.13Z" fill="#E0E0E0"/>
<path d="M391.16 406.98C414.014 406.98 432.54 396.284 432.54 383.09C432.54 369.896 414.014 359.2 391.16 359.2C368.306 359.2 349.78 369.896 349.78 383.09C349.78 396.284 368.306 406.98 391.16 406.98Z" fill="#E0E0E0"/>
<path d="M164.82 456.95C187.674 456.95 206.2 446.254 206.2 433.06C206.2 419.866 187.674 409.17 164.82 409.17C141.966 409.17 123.44 419.866 123.44 433.06C123.44 446.254 141.966 456.95 164.82 456.95Z" fill="#E0E0E0"/>
<path d="M98 387.68C97.3711 387.252 96.8516 386.683 96.4833 386.018C96.115 385.352 95.9084 384.61 95.88 383.85V175.46C95.9235 174.677 96.1508 173.915 96.5434 173.235C96.936 172.556 97.483 171.979 98.14 171.55L343.3 30C343.951 29.59 344.703 29.3655 345.472 29.3508C346.242 29.3361 347.001 29.5317 347.668 29.9164C348.334 30.3012 348.883 30.8607 349.255 31.5344C349.628 32.2082 349.809 32.9708 349.78 33.74V242.14C349.736 242.923 349.509 243.685 349.117 244.365C348.724 245.044 348.177 245.621 347.52 246.05L102.36 387.6C101.69 387.953 100.947 388.144 100.19 388.158C99.4324 388.172 98.6825 388.008 98 387.68V387.68Z" fill="#4A6A7C"/>
<path d="M101.93 387.79H101.84C101.772 387.831 101.697 387.861 101.62 387.88H101.45C101.35 387.915 101.246 387.938 101.14 387.95C101.073 387.977 101.002 387.994 100.93 388L100.59 388.05C99.6977 388.171 98.7898 388.014 97.99 387.6C97.362 387.175 96.8436 386.607 96.4769 385.943C96.1102 385.279 95.9056 384.538 95.88 383.78V202.17L100.12 204.62V386.29C100.12 387.29 100.63 387.91 101.37 387.91C101.469 387.925 101.571 387.925 101.67 387.91C101.762 387.884 101.85 387.843 101.93 387.79V387.79Z" fill="#FF6442"/>
<path opacity="0.81" d="M101.93 387.79H101.84C101.772 387.831 101.697 387.861 101.62 387.88H101.45C101.35 387.915 101.246 387.938 101.14 387.95C101.073 387.977 101.002 387.994 100.93 388L100.59 388.05C99.6977 388.171 98.7898 388.014 97.99 387.6C97.362 387.175 96.8436 386.607 96.4769 385.943C96.1102 385.279 95.9056 384.538 95.88 383.78V202.17L100.12 204.62V386.29C100.12 387.29 100.63 387.91 101.37 387.91C101.469 387.925 101.571 387.925 101.67 387.91C101.762 387.884 101.85 387.843 101.93 387.79V387.79Z" fill="#E0E0E0"/>
<path d="M100.11 204.62L95.87 202.17V242.52L100.11 244.99V204.62Z" fill="#FF6442"/>
<path opacity="0.15" d="M100.11 204.62L95.87 202.17V242.52L100.11 244.99V204.62Z" fill="#7E5B41"/>
<path d="M100.76 175.68C100.36 176.353 100.136 177.117 100.11 177.9V204.62L95.87 202.17V175.46C95.865 175.37 95.865 175.28 95.87 175.19C95.8894 175.002 95.9194 174.815 95.96 174.63C96.0846 174.141 96.2729 173.67 96.52 173.23L100.76 175.68Z" fill="#263238"/>
<path d="M349.78 33.75V45.81L170.07 149.56C168.83 150.28 167.82 149.69 167.82 148.26V143.69C167.82 142.26 166.82 141.69 165.56 142.39L110.83 174C110.173 174.429 109.626 175.006 109.233 175.685C108.841 176.365 108.614 177.127 108.57 177.91V182.47C108.528 183.252 108.302 184.014 107.911 184.693C107.52 185.372 106.975 185.95 106.32 186.38L100.11 190V178C100.152 177.218 100.378 176.456 100.769 175.777C101.16 175.098 101.705 174.52 102.36 174.09L347.53 32.45C348.77 31.73 349.78 32.31 349.78 33.75Z" fill="#2C4C5B"/>
<path d="M349.79 242.15C349.745 242.932 349.517 243.692 349.124 244.369C348.732 245.047 348.186 245.622 347.53 246.05L102.36 387.6C101.12 388.31 100.11 387.73 100.11 386.29V190L106.32 186.42C107.56 185.7 109.58 174.76 110.83 174.04L164.64 142.97C165.89 142.25 168.83 150.33 170.07 149.61L349.78 45.81V242.15H349.79Z" fill="#FF6442"/>
<path opacity="0.9" d="M349.79 242.15C349.745 242.932 349.517 243.692 349.124 244.369C348.732 245.047 348.186 245.622 347.53 246.05L102.36 387.6C101.12 388.31 100.11 387.73 100.11 386.29V190L106.32 186.42C107.56 185.7 109.58 174.76 110.83 174.04L164.64 142.97C165.89 142.25 168.83 150.33 170.07 149.61L349.78 45.81V242.15H349.79Z" fill="white"/>
<g opacity="0.4">
<path d="M348.78 47.54V242.15C348.731 242.75 348.548 243.332 348.243 243.851C347.938 244.371 347.52 244.815 347.02 245.15L101.86 386.73C101.709 386.832 101.532 386.891 101.35 386.9C101.12 386.9 101.11 386.4 101.11 386.29V190.53L106.82 187.23C107.7 186.72 108.26 184.97 109.52 180.47C109.977 178.531 110.607 176.637 111.4 174.81L164.77 144C165.409 144.871 165.984 145.786 166.49 146.74C167.94 149.28 168.74 150.6 169.9 150.6C170.134 150.599 170.364 150.541 170.57 150.43L348.78 47.54ZM349.78 45.81L170.07 149.56C170.014 149.574 169.956 149.574 169.9 149.56C168.64 149.56 166.08 142.83 164.81 142.83C164.754 142.816 164.696 142.816 164.64 142.83L110.83 174C109.58 174.72 107.56 185.66 106.32 186.38L100.11 190V386.29C100.11 387.29 100.62 387.9 101.35 387.9C101.703 387.885 102.047 387.782 102.35 387.6L347.53 246.05C348.186 245.622 348.732 245.047 349.124 244.369C349.517 243.692 349.745 242.932 349.79 242.15V45.81H349.78Z" fill="#FF6442"/>
</g>
<path d="M100.11 204.62V244.99L349.78 100.86V60.48L100.11 204.62Z" fill="#FF6442"/>
<path d="M349.78 45.81V60.48L100.11 204.62V190L104.74 187.32C105.98 186.6 106.4 185.5 106.99 183.41L108.57 177.95C109.06 176.05 109.57 174.76 110.83 174.04L164.64 142.97C165.89 142.25 166.87 142.17 167.82 143.74L169.75 147.24C170.45 148.47 170.81 149.19 172.05 148.47L349.78 45.81Z" fill="#F0F0F0"/>
<path d="M339.2 41.31C340.77 40.41 342.04 41.14 342.04 42.95C341.987 43.9356 341.702 44.8946 341.208 45.7495C340.715 46.6043 340.027 47.3308 339.2 47.87C337.64 48.77 336.37 48.04 336.37 46.23C336.424 45.2457 336.708 44.2877 337.2 43.4332C337.691 42.5787 338.376 41.8515 339.2 41.31V41.31Z" fill="#FF6442"/>
<path d="M329 47.2C330.56 46.3 331.83 47.03 331.83 48.84C331.776 49.8243 331.492 50.7822 331 51.6367C330.509 52.4912 329.824 53.2185 329 53.76C327.43 54.66 326.16 53.93 326.16 52.12C326.213 51.1344 326.498 50.1753 326.992 49.3205C327.485 48.4657 328.173 47.7392 329 47.2V47.2Z" fill="#FF6442"/>
<path d="M318.77 53.09C320.33 52.19 321.61 52.92 321.61 54.73C321.554 55.715 321.268 56.6732 320.775 57.5277C320.282 58.3821 319.595 59.109 318.77 59.65C317.2 60.56 315.93 59.82 315.93 58.01C315.983 57.0244 316.268 56.0653 316.762 55.2105C317.255 54.3557 317.943 53.6292 318.77 53.09V53.09Z" fill="#FF6442"/>
<path opacity="0.5" d="M110.45 191L106.91 193L108.26 190.41C108.313 190.312 108.341 190.202 108.341 190.09C108.341 189.978 108.313 189.868 108.26 189.77C108.16 189.65 107.98 189.77 107.86 189.96L105.94 193.66C105.936 193.707 105.936 193.753 105.94 193.8V193.8C105.936 193.863 105.936 193.927 105.94 193.99C105.934 194.046 105.934 194.103 105.94 194.16V194.16C105.935 194.186 105.935 194.214 105.94 194.24V194.24L107.86 195.72C107.889 195.738 107.921 195.747 107.955 195.747C107.989 195.747 108.021 195.738 108.05 195.72C108.142 195.645 108.214 195.549 108.26 195.44C108.36 195.2 108.35 194.93 108.26 194.84L106.91 193.84L110.45 191.84C110.543 191.768 110.617 191.675 110.668 191.569C110.718 191.464 110.743 191.347 110.74 191.23C110.74 191 110.61 190.92 110.45 191Z" fill="#4A6A7C"/>
<path opacity="0.5" d="M113.41 189.3L116.95 187.3L115.6 186.3C115.48 186.21 115.47 185.94 115.6 185.7C115.73 185.46 115.88 185.33 116 185.42L117.92 186.9C117.945 186.918 117.966 186.942 117.98 186.97C117.98 186.97 117.98 186.97 117.98 186.97C117.991 187.023 117.991 187.077 117.98 187.13C117.99 187.193 117.99 187.257 117.98 187.32C117.98 187.32 117.98 187.32 117.98 187.37C117.964 187.418 117.944 187.465 117.92 187.51L116 191.17C115.958 191.26 115.893 191.336 115.81 191.39C115.782 191.417 115.744 191.433 115.705 191.433C115.666 191.433 115.628 191.417 115.6 191.39C115.544 191.293 115.514 191.182 115.514 191.07C115.514 190.958 115.544 190.847 115.6 190.75L116.95 188.15L113.41 190.2C113.25 190.29 113.13 190.2 113.13 189.92C113.124 189.802 113.146 189.684 113.195 189.576C113.243 189.468 113.317 189.373 113.41 189.3Z" fill="#4A6A7C"/>
<path opacity="0.5" d="M125 179.1C125 178.89 124.79 178.92 124.7 179.15L124.21 180.34C123.38 180.25 122.38 181.05 121.7 182.49C120.83 184.34 120.83 186.49 121.7 187.38C121.914 187.58 122.19 187.699 122.482 187.717C122.774 187.735 123.063 187.652 123.3 187.48C124.007 187.006 124.56 186.335 124.89 185.55C124.945 185.456 124.975 185.349 124.975 185.24C124.975 185.131 124.945 185.024 124.89 184.93C124.77 184.82 124.59 184.93 124.48 185.16C123.83 186.54 122.76 187.16 122.11 186.53C121.46 185.9 121.45 184.26 122.11 182.87C122.57 181.87 123.24 181.3 123.83 181.27L123.46 182.16C123.37 182.39 123.46 182.61 123.6 182.51L125.05 181.57C125.105 181.52 125.149 181.458 125.176 181.389C125.204 181.319 125.216 181.244 125.21 181.17L125 179.1Z" fill="#4A6A7C"/>
<path opacity="0.5" d="M163.09 149.62L164.38 146.88C164.456 146.751 164.495 146.604 164.495 146.455C164.495 146.306 164.456 146.159 164.38 146.03C164.23 145.89 163.98 146.03 163.83 146.35L162.54 149.08L161.24 147.84C161.09 147.69 160.84 147.84 160.69 148.16C160.614 148.289 160.575 148.436 160.575 148.585C160.575 148.734 160.614 148.881 160.69 149.01L161.98 150.25L160.69 153C160.614 153.129 160.575 153.276 160.575 153.425C160.575 153.574 160.614 153.721 160.69 153.85C160.729 153.883 160.779 153.9 160.83 153.9C160.881 153.9 160.931 153.883 160.97 153.85C161.094 153.773 161.189 153.657 161.24 153.52L162.54 150.78L163.83 152.03C163.868 152.062 163.916 152.079 163.965 152.079C164.014 152.079 164.062 152.062 164.1 152.03C164.225 151.951 164.322 151.836 164.38 151.7C164.456 151.571 164.495 151.424 164.495 151.275C164.495 151.126 164.456 150.979 164.38 150.85L163.09 149.62Z" fill="#4A6A7C"/>
<path d="M129.73 182.46V177.9C129.776 177.117 130.006 176.357 130.4 175.679C130.794 175.002 131.342 174.427 132 174L334.85 57C336.1 56.28 337.11 56.86 337.11 58.3V62.8C337.066 63.5833 336.839 64.3454 336.447 65.0247C336.054 65.7039 335.507 66.2813 334.85 66.71L132 183.77C130.74 184.49 129.73 183.9 129.73 182.46Z" fill="white"/>
<path d="M331.76 67C331.707 67.0105 331.653 67.0105 331.6 67C331.494 66.947 331.409 66.8602 331.358 66.7532C331.308 66.6463 331.294 66.5255 331.32 66.41L331.54 64.52L330.62 63.86C330.555 63.812 330.502 63.7485 330.467 63.6752C330.432 63.6019 330.416 63.5211 330.42 63.44C330.421 63.3024 330.451 63.1666 330.51 63.0422C330.569 62.9178 330.654 62.8078 330.76 62.72L332.08 61.72C332.124 61.68 332.156 61.6278 332.17 61.57L332.76 59.63C332.794 59.4885 332.867 59.3596 332.972 59.2585C333.076 59.1575 333.207 59.0886 333.35 59.06C333.439 59.057 333.527 59.0799 333.604 59.1261C333.68 59.1722 333.741 59.2396 333.78 59.32V59.32L334.31 60.46L335.51 60C335.594 59.9639 335.688 59.9551 335.778 59.9748C335.867 59.9945 335.949 60.0418 336.01 60.11C336.089 60.2304 336.131 60.3711 336.131 60.515C336.131 60.6588 336.089 60.7996 336.01 60.92L335.01 62.72C335 62.7728 335 62.8272 335.01 62.88L335.24 64.51C335.254 64.6434 335.238 64.7781 335.193 64.9044C335.148 65.0307 335.075 65.1454 334.98 65.24C334.927 65.3035 334.859 65.353 334.782 65.3844C334.706 65.4157 334.622 65.428 334.54 65.42L333.35 65.27L332.2 66.81C332.144 66.8712 332.076 66.9198 332.001 66.9526C331.925 66.9853 331.843 67.0015 331.76 67ZM331 63.33L331.92 63.99C331.997 64.0546 332.056 64.1388 332.089 64.2339C332.123 64.3289 332.13 64.4312 332.11 64.53L332 66.09L333 64.83C333.057 64.7488 333.134 64.6833 333.223 64.6396C333.312 64.5959 333.411 64.5754 333.51 64.58L334.7 64.73C334.7 64.73 334.75 64.57 334.7 64.49L334.47 62.86C334.454 62.6796 334.492 62.4985 334.58 62.34L335.58 60.54L334.48 60.96C334.428 60.9829 334.371 60.9952 334.314 60.996C334.257 60.9969 334.2 60.9863 334.147 60.9648C334.094 60.9434 334.045 60.9116 334.005 60.8713C333.964 60.831 333.932 60.7829 333.91 60.73L333.42 59.73L332.83 61.67C332.781 61.8483 332.676 62.0062 332.53 62.12L331.21 63.12C331.117 63.1621 331.042 63.2368 331 63.33V63.33Z" fill="#E0E0E0"/>
<g opacity="0.5">
<path d="M339.75 56.38C339.577 56.3818 339.408 56.3259 339.27 56.2211C339.132 56.1163 339.033 55.9686 338.988 55.8013C338.944 55.634 338.956 55.4566 339.023 55.297C339.091 55.1375 339.209 55.0048 339.36 54.92L345.7 51.26C345.789 51.2081 345.887 51.1742 345.988 51.1602C346.09 51.1462 346.194 51.1524 346.293 51.1784C346.392 51.2044 346.486 51.2497 346.567 51.3117C346.649 51.3738 346.718 51.4513 346.77 51.54C346.822 51.6286 346.856 51.7266 346.87 51.8284C346.884 51.9301 346.878 52.0336 346.852 52.133C346.826 52.2323 346.78 52.3256 346.718 52.4074C346.656 52.4893 346.579 52.5581 346.49 52.61L340.14 56.28C340.021 56.3469 339.887 56.3814 339.75 56.38V56.38Z" fill="#4A6A7C"/>
<path d="M339.75 60.05C339.612 60.0498 339.477 60.0137 339.358 59.9453C339.239 59.8769 339.14 59.7785 339.07 59.66C339.018 59.5708 338.985 59.4723 338.971 59.3701C338.958 59.2679 338.965 59.164 338.992 59.0645C339.019 58.965 339.065 58.8718 339.128 58.7904C339.192 58.7089 339.27 58.6408 339.36 58.59L345.7 54.92C345.878 54.8379 346.081 54.8254 346.268 54.8847C346.456 54.9441 346.614 55.0711 346.713 55.241C346.812 55.4109 346.843 55.6115 346.802 55.8036C346.761 55.9957 346.65 56.1655 346.49 56.28L340.14 59.94C340.022 60.0099 339.887 60.0478 339.75 60.05Z" fill="#4A6A7C"/>
<path d="M339.75 63.71C339.613 63.7098 339.478 63.6737 339.358 63.6053C339.239 63.5369 339.14 63.4385 339.07 63.32C339.019 63.2316 338.985 63.1338 338.972 63.0324C338.959 62.9309 338.966 62.8278 338.993 62.7291C339.02 62.6305 339.066 62.5381 339.129 62.4576C339.192 62.377 339.271 62.3099 339.36 62.26L345.7 58.59C345.789 58.5381 345.887 58.5042 345.988 58.4902C346.09 58.4762 346.194 58.4824 346.293 58.5084C346.392 58.5344 346.486 58.5797 346.567 58.6417C346.649 58.7038 346.718 58.7813 346.77 58.87C346.822 58.9586 346.856 59.0566 346.87 59.1584C346.884 59.2601 346.878 59.3636 346.852 59.463C346.826 59.5623 346.78 59.6556 346.718 59.7374C346.656 59.8193 346.579 59.8881 346.49 59.94L340.14 63.61C340.021 63.6769 339.887 63.7114 339.75 63.71V63.71Z" fill="#4A6A7C"/>
</g>
<path d="M100.11 189.95V204.62L95.87 202.17V187.51L100.11 189.95Z" fill="#E0E0E0"/>
<path d="M272.986 131.119L271.305 132.101L276.166 113.927L277.82 112.96L282.681 125.451L281 126.433L277.045 115.839L276.941 115.899L272.986 131.119ZM273.606 124.767L280.38 120.807V122.454L273.606 126.414V124.767ZM284.742 124.246V108.913L286.268 108.021V113.681L286.397 113.606C286.509 113.34 286.664 112.995 286.862 112.57C287.065 112.137 287.354 111.689 287.728 111.225C288.108 110.754 288.62 110.329 289.267 109.951C290.103 109.463 290.839 109.274 291.477 109.385C292.115 109.497 292.613 109.892 292.97 110.571C293.328 111.251 293.507 112.194 293.507 113.402C293.507 114.62 293.328 115.78 292.97 116.883C292.613 117.98 292.117 118.959 291.484 119.818C290.85 120.673 290.12 121.342 289.293 121.825C288.655 122.198 288.144 122.374 287.761 122.354C287.377 122.329 287.082 122.219 286.875 122.026C286.668 121.827 286.509 121.656 286.397 121.512L286.216 121.617V123.384L284.742 124.246ZM286.242 117.619C286.242 118.488 286.352 119.19 286.572 119.725C286.791 120.255 287.112 120.584 287.535 120.712C287.957 120.834 288.474 120.717 289.086 120.359C289.723 119.986 290.256 119.48 290.682 118.842C291.113 118.195 291.436 117.478 291.652 116.688C291.871 115.89 291.981 115.083 291.981 114.264C291.981 113.455 291.874 112.79 291.658 112.267C291.447 111.736 291.126 111.407 290.695 111.28C290.268 111.145 289.732 111.267 289.086 111.644C288.465 112.007 287.944 112.494 287.522 113.105C287.099 113.712 286.78 114.402 286.565 115.177C286.35 115.947 286.242 116.761 286.242 117.619ZM299.873 115.64C298.977 116.164 298.19 116.376 297.514 116.278C296.842 116.177 296.316 115.793 295.937 115.126C295.562 114.457 295.374 113.528 295.374 112.34C295.374 111.142 295.562 109.987 295.937 108.874C296.316 107.759 296.842 106.758 297.514 105.871C298.19 104.982 298.977 104.275 299.873 103.751C300.769 103.227 301.553 103.016 302.226 103.117C302.902 103.215 303.428 103.602 303.803 104.276C304.182 104.948 304.371 105.883 304.371 107.08C304.371 108.268 304.182 109.417 303.803 110.527C303.428 111.635 302.902 112.634 302.226 113.523C301.553 114.41 300.769 115.116 299.873 115.64ZM299.873 114.053C300.554 113.655 301.114 113.125 301.553 112.464C301.993 111.803 302.318 111.081 302.529 110.299C302.74 109.516 302.846 108.741 302.846 107.972C302.846 107.204 302.74 106.549 302.529 106.009C302.318 105.468 301.993 105.122 301.553 104.97C301.114 104.817 300.554 104.94 299.873 105.338C299.192 105.736 298.632 106.268 298.192 106.934C297.753 107.601 297.428 108.327 297.216 109.115C297.005 109.902 296.9 110.68 296.9 111.448C296.9 112.217 297.005 112.869 297.216 113.404C297.428 113.94 297.753 114.281 298.192 114.429C298.632 114.576 299.192 114.451 299.873 114.053ZM312.956 103.05V96.252L314.481 95.3602V106.86L312.956 107.752V105.805L312.853 105.865C312.62 106.585 312.258 107.294 311.767 107.99C311.276 108.682 310.655 109.246 309.905 109.685C309.285 110.047 308.733 110.213 308.251 110.18C307.768 110.143 307.389 109.886 307.113 109.408C306.838 108.925 306.7 108.195 306.7 107.217V99.9096L308.225 99.0178V106.205C308.225 107.044 308.428 107.594 308.833 107.856C309.242 108.116 309.763 108.061 310.397 107.691C310.776 107.469 311.161 107.131 311.554 106.677C311.95 106.221 312.282 105.683 312.549 105.062C312.82 104.439 312.956 103.769 312.956 103.05ZM321.593 91.2029V92.7003L316.448 95.708V94.2106L321.593 91.2029ZM317.947 90.5789L319.473 89.6872V100.648C319.473 101.147 319.535 101.485 319.66 101.661C319.789 101.83 319.953 101.899 320.151 101.868C320.354 101.83 320.567 101.745 320.791 101.614C320.959 101.516 321.097 101.425 321.205 101.342C321.313 101.254 321.399 101.184 321.463 101.131L321.774 102.537C321.67 102.642 321.526 102.772 321.341 102.925C321.155 103.083 320.92 103.245 320.636 103.411C320.205 103.663 319.783 103.803 319.369 103.83C318.96 103.855 318.62 103.727 318.348 103.446C318.081 103.163 317.947 102.687 317.947 102.019V90.5789ZM335.262 90.0093V83.2114L336.788 82.3196V93.8192L335.262 94.7109V92.7644L335.159 92.8249C334.926 93.5448 334.564 94.2531 334.073 94.9495C333.582 95.641 332.962 96.2058 332.212 96.6441C331.591 97.0069 331.04 97.1721 330.557 97.1398C330.075 97.1025 329.695 96.845 329.42 96.3673C329.144 95.8847 329.006 95.1543 329.006 94.176V86.869L330.531 85.9772V93.1645C330.531 94.003 330.734 94.5534 331.139 94.8157C331.548 95.0755 332.07 95.0203 332.703 94.65C333.082 94.4283 333.468 94.0906 333.86 93.6367C334.256 93.1804 334.588 92.642 334.855 92.0217C335.127 91.3988 335.262 90.728 335.262 90.0093ZM346.614 79.1508L345.243 80.401C345.157 80.1869 345.03 80.0041 344.862 79.8528C344.698 79.694 344.474 79.6154 344.19 79.6169C343.905 79.6185 343.541 79.749 343.097 80.0084C342.49 80.3636 341.984 80.8218 341.579 81.383C341.178 81.9367 340.978 82.4606 340.978 82.9547C340.978 83.394 341.115 83.6602 341.391 83.7536C341.667 83.8469 342.098 83.8071 342.684 83.6342L344.157 83.192C345.045 82.9226 345.706 82.9178 346.142 83.1774C346.577 83.4321 346.794 83.9612 346.794 84.7648C346.794 85.4237 346.631 86.1083 346.303 86.8189C345.98 87.5269 345.528 88.2006 344.946 88.8402C344.364 89.4797 343.688 90.0249 342.917 90.4758C341.904 91.0678 341.066 91.3032 340.402 91.182C339.739 91.0608 339.319 90.5628 339.142 89.6878L340.59 88.4221C340.728 88.9604 340.988 89.2722 341.372 89.3575C341.76 89.4402 342.266 89.299 342.891 88.9337C343.602 88.5181 344.166 88.0134 344.584 87.4197C345.006 86.8184 345.217 86.2707 345.217 85.7766C345.217 85.3773 345.097 85.1135 344.855 84.985C344.614 84.8515 344.244 84.8635 343.744 85.021L342.089 85.5391C341.18 85.821 340.512 85.8247 340.086 85.55C339.663 85.2678 339.452 84.7299 339.452 83.9363C339.452 83.2875 339.609 82.6215 339.924 81.9385C340.243 81.253 340.676 80.608 341.223 80.0036C341.775 79.3967 342.399 78.8892 343.097 78.4811C344.08 77.9068 344.851 77.7054 345.411 77.8771C345.976 78.0462 346.377 78.4708 346.614 79.1508Z" fill="#4A6A7C"/>
<path opacity="0.1" d="M110.94 254.51L179.99 214.64V327.21L110.74 366.97L110.94 254.51Z" fill="#FF6442"/>
<path opacity="0.15" d="M195.21 207.93L278.51 159.84C280.19 158.84 281.51 159.6 281.51 161.47C281.447 162.505 281.143 163.51 280.622 164.406C280.101 165.302 279.378 166.064 278.51 166.63L195.2 215.26C193.53 216.26 192.2 215.46 192.2 213.53V213.18C192.256 212.13 192.558 211.109 193.081 210.197C193.603 209.285 194.333 208.509 195.21 207.93V207.93Z" fill="#FF6442"/>
<path opacity="0.1" d="M194.34 222.5L332.18 142.92C333.38 142.23 334.35 142.72 334.35 144.01C334.297 144.738 334.073 145.444 333.696 146.07C333.319 146.695 332.8 147.223 332.18 147.61L194.34 227.19C193.15 227.88 192.18 227.39 192.18 226.1C192.233 225.373 192.455 224.668 192.831 224.042C193.206 223.417 193.723 222.889 194.34 222.5V222.5Z" fill="#FF6442"/>
<path opacity="0.1" d="M194.34 231.92L332.18 152.34C333.38 151.65 334.35 152.14 334.35 153.43C334.297 154.158 334.073 154.864 333.696 155.49C333.319 156.115 332.8 156.643 332.18 157.03L194.34 236.61C193.15 237.3 192.18 236.81 192.18 235.51C192.234 234.784 192.458 234.081 192.833 233.458C193.208 232.834 193.724 232.308 194.34 231.92Z" fill="#FF6442"/>
<path opacity="0.1" d="M194.34 241.33L332.18 161.75C333.38 161.06 334.35 161.55 334.35 162.85C334.296 163.577 334.071 164.281 333.694 164.904C333.317 165.528 332.798 166.054 332.18 166.44L194.34 246C193.15 246.69 192.18 246.2 192.18 244.9C192.239 244.178 192.464 243.48 192.839 242.86C193.214 242.241 193.728 241.717 194.34 241.33V241.33Z" fill="#FF6442"/>
<path opacity="0.1" d="M194.34 250.75L332.18 171.17C333.38 170.48 334.35 170.97 334.35 172.26C334.297 172.988 334.073 173.694 333.696 174.32C333.319 174.945 332.8 175.473 332.18 175.86L194.34 255.44C193.15 256.13 192.18 255.64 192.18 254.35C192.233 253.623 192.455 252.918 192.831 252.292C193.206 251.667 193.723 251.139 194.34 250.75V250.75Z" fill="#FF6442"/>
<path opacity="0.1" d="M194.34 260.17L290.52 204.17C291.71 203.48 292.68 203.97 292.68 205.27C292.626 205.996 292.402 206.699 292.027 207.322C291.652 207.946 291.136 208.472 290.52 208.86L194.34 264.86C193.15 265.55 192.18 265.06 192.18 263.76C192.234 263.034 192.458 262.331 192.833 261.708C193.208 261.084 193.724 260.558 194.34 260.17Z" fill="#FF6442"/>
<path opacity="0.1" d="M194.34 279L332.18 199.42C333.38 198.73 334.35 199.22 334.35 200.51C334.297 201.238 334.073 201.944 333.696 202.57C333.319 203.195 332.8 203.723 332.18 204.11L194.34 283.69C193.15 284.38 192.18 283.89 192.18 282.6C192.233 281.873 192.455 281.168 192.831 280.542C193.206 279.917 193.723 279.389 194.34 279V279Z" fill="#FF6442"/>
<path opacity="0.1" d="M194.34 288.42L332.18 208.84C333.38 208.15 334.35 208.64 334.35 209.93C334.297 210.658 334.073 211.364 333.696 211.99C333.319 212.615 332.8 213.143 332.18 213.53L194.34 293.11C193.15 293.8 192.18 293.31 192.18 292.01C192.234 291.284 192.458 290.581 192.833 289.958C193.208 289.334 193.724 288.808 194.34 288.42Z" fill="#FF6442"/>
<path opacity="0.1" d="M194.34 297.83L332.18 218.25C333.38 217.56 334.35 218.05 334.35 219.35C334.296 220.077 334.071 220.781 333.694 221.404C333.317 222.028 332.798 222.554 332.18 222.94L194.34 302.53C193.15 303.22 192.18 302.73 192.18 301.43C192.234 300.703 192.458 299.999 192.833 299.374C193.208 298.748 193.724 298.22 194.34 297.83V297.83Z" fill="#FF6442"/>
<path opacity="0.1" d="M194.34 307.25L245 277.69C246.19 277 247.16 277.49 247.16 278.79C247.106 279.516 246.882 280.218 246.507 280.842C246.132 281.466 245.616 281.992 245 282.38L194.35 311.94C193.16 312.63 192.19 312.14 192.19 310.85C192.241 310.123 192.463 309.419 192.836 308.794C193.21 308.169 193.725 307.64 194.34 307.25V307.25Z" fill="#FF6442"/>
<path d="M378.54 253.2C385.87 229.42 393 213.75 385.73 208.9C378.97 210.16 375.94 213.51 374.5 222.43C372.99 231.78 369.85 244.82 368.02 252.34C366.438 258.624 364.175 264.717 361.27 270.51C360.832 271.312 360.123 271.933 359.27 272.26C357.01 273.15 355.93 274.26 354.09 275.62C352.64 276.62 351.58 276.76 351.65 277.19C351.769 277.673 352.072 278.089 352.494 278.351C352.917 278.613 353.425 278.699 353.91 278.59C354.996 278.385 356.054 278.049 357.06 277.59C356.195 279.781 354.849 281.75 353.12 283.35C349.57 286.35 350.12 289.28 355.81 289.62C357.81 289.74 362.58 287.88 366.97 280.41C368.454 277.626 369.76 274.75 370.88 271.8C373.94 264.14 377.07 258 378.54 253.2Z" fill="#E69B83"/>
<path d="M387 208.62C387 208.62 381.36 208.33 377.94 212.1C374.52 215.87 370.54 238.39 370.54 238.39C370.54 238.39 374.28 243.53 384.14 241.39L387 208.62Z" fill="#FF6442"/>
<path opacity="0.3" d="M387 208.62C387 208.62 381.36 208.33 377.94 212.1C374.52 215.87 370.54 238.39 370.54 238.39C370.54 238.39 374.28 243.53 384.14 241.39L387 208.62Z" fill="#7E5B41"/>
<path d="M413.41 368.38H405.84V381.88H413.41V368.38Z" fill="#E69B83"/>
<path d="M387.16 367.66L379.59 367.94L379.21 353.65L387.16 353.38V367.66Z" fill="#E69B83"/>
<path d="M414.48 251.5C414.48 259.03 413.37 319.63 413.37 319.63C413.54 321.8 415.49 325.8 415.07 334.12C414.5 345.42 413.73 375.12 413.73 375.12C412.431 375.789 410.997 376.153 409.536 376.184C408.075 376.215 406.626 375.913 405.3 375.3C405.3 375.3 398.14 334.15 396.79 322.94C395.6 313.17 393.59 280.25 393.59 280.25L389.49 318.52C390.364 322.639 390.68 326.857 390.43 331.06C390.07 336.24 387.64 363.23 387.64 363.23C386.331 364.001 384.864 364.464 383.35 364.584C381.835 364.703 380.314 364.476 378.9 363.92C378.9 363.92 374.59 323.28 374.5 318.52C374.4 313.1 377.02 251.41 377.02 251.41L414.48 251.5Z" fill="#2C4C5B"/>
<path d="M405.84 378V376.87C405.11 377.2 403.43 383.87 400.43 386.75C398.04 389.01 394.78 391.63 393.95 394.16C393.12 396.69 398.49 398.25 400.72 397.84C403.31 397.36 407.81 395.46 408.93 393.69C410.05 391.92 410.59 389.33 411.51 388.04C412.43 386.75 414.51 385.31 415.03 383.81C415.31 382.99 415.03 381.19 414.6 379.67C414.17 378.15 413.87 376.74 413.41 376.87V377.73C412.349 378.61 411.009 379.085 409.63 379.07C408.52 379.1 405.83 378.87 405.84 378Z" fill="#263238"/>
<path d="M379.51 365.5C379.12 365.5 378.8 366.09 377.93 367.07C376.645 368.425 375.141 369.555 373.48 370.41C370.64 371.89 365.13 374.16 362.63 375.33C361.08 376.06 361.15 378.02 362.76 379.14C364.37 380.26 368.26 381.06 372.93 379.97C375.47 379.38 378.79 376.97 380.88 377.06C382.97 377.15 386.88 377.17 388.45 376.06C390.02 374.95 389.38 372.58 388.94 370.54C388.46 368.32 387.87 364.85 387.16 365V365.77C386.25 367.2 381.55 367.77 379.55 366.77L379.51 365.5Z" fill="#263238"/>
<path d="M393.59 280.26C389.65 278.973 386.049 276.821 383.05 273.96C383.05 273.96 385.05 277.96 391.13 281.62L389.84 315.8L393.59 280.26Z" fill="#263238"/>
<path d="M410.54 210.42C410.54 210.42 416.46 210.97 416.04 222.25L414.73 240.25V267.25C409.16 273.56 384.48 273.09 376.03 266.74C376.03 266.74 376.98 234.81 377.55 222.52C377.96 213.79 379.97 209.39 388.55 208.43L399.1 208.89L410.54 210.42Z" fill="#FF6442"/>
<path opacity="0.3" d="M393.71 216.34L392.35 225.82L389.19 225.76L392.76 226.33L393.71 216.34Z" fill="#7E5B41"/>
<path d="M401.61 185C401.672 188.052 400.519 191.004 398.406 193.207C396.293 195.41 393.392 196.684 390.34 196.75C384.11 196.75 379.34 191.48 379.06 185.01C378.57 173.54 384.11 173.26 390.34 173.26C393.39 173.326 396.29 174.599 398.403 176.8C400.516 179 401.669 181.95 401.61 185Z" fill="#263238"/>
<path d="M408 190.81C408 190.81 406.27 199.27 405.58 200.66C405.134 201.508 404.373 202.147 403.46 202.44L403.58 196.49L408 190.81Z" fill="#263238"/>
<path d="M405.86 178.69C405.86 178.69 407.1 178.38 408.42 180.44C409.55 182.2 409.81 186.16 408.03 190.81L404.78 191.2L405.86 178.69Z" fill="#263238"/>
<path d="M403.8 191.2C404.45 191.61 405.38 190.3 406.19 189.42C407 188.54 409.62 187.35 410.94 190.22C412.26 193.09 409.78 197.03 407.71 197.71C404.14 198.88 403.61 196.49 403.61 196.49L403.33 209.89C398.6 217.22 387.87 216.95 391.73 209.54V205.46C390.141 205.724 388.528 205.811 386.92 205.72C384.3 205.29 382.65 203.14 381.85 200.18C380.57 195.43 380.09 191.6 381.17 182.25C382.37 172 393.81 171.91 400 176C406.19 180.09 403.8 191.2 403.8 191.2Z" fill="#E69B83"/>
<path d="M403.39 206.89C402.29 209.142 400.709 211.125 398.76 212.7C397.104 213.924 395.181 214.739 393.15 215.08C394.826 216.216 396.199 217.743 397.15 219.53C398.34 222.13 406.67 214.96 406.59 209.87C406.59 209.87 405.29 204.76 403.49 204.44L403.39 206.89Z" fill="#263238"/>
<path d="M393.15 215.08C393.15 215.08 390.58 213.81 391.73 209.54V205.46L390.6 205.61C389.283 206.893 388.348 208.517 387.9 210.3C387.64 211.47 387 217.39 388.13 218.56C389.26 219.73 390.84 215.4 393.15 215.08Z" fill="#263238"/>
<path d="M399.42 180C399.713 179.936 400.017 179.953 400.3 180.05C401.3 180.49 401.48 183.51 401.65 184.38C402.22 187.31 402.7 192.28 403.8 192.3C404.13 192.3 405.38 190.15 406.19 189.38C407.32 188.31 405.86 178.65 405.86 178.65C406.158 177.816 406.215 176.915 406.024 176.05C405.833 175.185 405.402 174.391 404.78 173.76C402.78 171.44 399.56 170.92 396.65 170.76C393.22 170.57 389.74 170.83 386.36 170.08C385.298 169.785 384.22 169.555 383.13 169.39C383.084 169.37 383.035 169.36 382.985 169.36C382.935 169.36 382.886 169.37 382.84 169.39C382.73 169.48 382.75 169.65 382.78 169.79C382.992 170.803 383.349 171.779 383.84 172.69C381.828 172.531 379.841 172.138 377.92 171.52C377.809 171.485 377.691 171.485 377.58 171.52C377.35 171.59 377.31 171.89 377.33 172.13C377.46 174.55 378.61 178.21 380.58 179.63C382.326 180.773 384.354 181.413 386.44 181.48C391.74 181.68 395 180.56 399.42 180Z" fill="#263238"/>
<path d="M405.86 179.2L409.81 176.99C409.689 176.718 409.513 176.474 409.293 176.274C409.073 176.074 408.813 175.922 408.531 175.828C408.248 175.734 407.95 175.7 407.653 175.728C407.357 175.755 407.07 175.845 406.81 175.99C406.284 176.314 405.897 176.821 405.722 177.414C405.546 178.006 405.596 178.642 405.86 179.2Z" fill="#263238"/>
<path d="M391.74 205.46C391.74 205.46 397.59 204.23 399.64 203.1C400.854 202.432 401.84 201.415 402.47 200.18C402.165 201.421 401.618 202.59 400.86 203.62C399.37 205.62 391.74 207.08 391.74 207.08V205.46Z" fill="#5E3C3C"/>
<path d="M393.15 189.68C393.171 189.905 393.258 190.12 393.398 190.297C393.539 190.475 393.728 190.607 393.943 190.679C394.158 190.751 394.389 190.759 394.608 190.703C394.828 190.646 395.026 190.527 395.178 190.359C395.331 190.192 395.432 189.984 395.469 189.761C395.506 189.537 395.477 189.308 395.386 189.1C395.296 188.893 395.146 188.716 394.957 188.592C394.768 188.468 394.547 188.401 394.32 188.4C394.158 188.405 394 188.442 393.853 188.51C393.706 188.577 393.574 188.674 393.465 188.793C393.356 188.912 393.272 189.052 393.218 189.205C393.164 189.357 393.141 189.519 393.15 189.68V189.68Z" fill="#263238"/>
<path d="M395 184.62L397.51 186.06C397.691 185.714 397.74 185.313 397.646 184.933C397.552 184.554 397.322 184.222 397 184C396.832 183.893 396.643 183.823 396.445 183.796C396.247 183.77 396.046 183.786 395.856 183.845C395.666 183.904 395.49 184.004 395.342 184.138C395.195 184.272 395.078 184.436 395 184.62V184.62Z" fill="#263238"/>
<path d="M392.27 198.12L389.59 199.12C389.643 199.304 389.733 199.475 389.855 199.623C389.977 199.771 390.128 199.892 390.298 199.98C390.469 200.067 390.656 200.118 390.847 200.13C391.038 200.142 391.23 200.115 391.41 200.05C391.766 199.891 392.051 199.606 392.21 199.25C392.369 198.894 392.39 198.491 392.27 198.12V198.12Z" fill="#5E3C3C"/>
<path d="M382.38 185.69L384.67 183.85C384.567 183.689 384.43 183.551 384.27 183.447C384.11 183.342 383.929 183.273 383.74 183.244C383.551 183.215 383.358 183.226 383.173 183.277C382.989 183.328 382.817 183.418 382.67 183.54C382.364 183.799 382.166 184.162 382.112 184.559C382.058 184.956 382.154 185.359 382.38 185.69V185.69Z" fill="#263238"/>
<path d="M383.39 189.33C383.383 189.49 383.408 189.649 383.464 189.799C383.519 189.949 383.604 190.087 383.712 190.204C383.821 190.321 383.952 190.416 384.098 190.482C384.243 190.548 384.4 190.585 384.56 190.59C384.897 190.59 385.22 190.456 385.458 190.218C385.696 189.98 385.83 189.657 385.83 189.32C385.83 188.983 385.696 188.66 385.458 188.422C385.22 188.184 384.897 188.05 384.56 188.05C384.236 188.068 383.933 188.212 383.714 188.451C383.495 188.691 383.379 189.006 383.39 189.33V189.33Z" fill="#263238"/>
<path d="M389.67 188.35L389.53 195.76L385.32 194.79L389.67 188.35Z" fill="#5E3C3C"/>
<path d="M422.06 195.8C423.75 193.56 427.17 198.53 428.75 201.96C430.33 205.39 430.36 207.33 429.06 208.69C427.76 210.05 425.31 209.23 422.86 205.98C420.41 202.73 421.09 197.45 422.06 195.8Z" fill="#FF6442"/>
<path opacity="0.5" d="M422.06 195.8C423.75 193.56 427.17 198.53 428.75 201.96C430.33 205.39 430.36 207.33 429.06 208.69C427.76 210.05 425.31 209.23 422.86 205.98C420.41 202.73 421.09 197.45 422.06 195.8Z" fill="#7E5B41"/>
<path d="M434 196.46C428 210.46 419.65 218.35 415.9 227.36C410.99 227.03 407.16 215.16 410.82 210.09C410.82 210.09 425.2 194.52 426.5 188.4C427.66 182.97 429.21 174.01 429.08 169.4C429.029 168.649 428.713 167.941 428.19 167.4C426.68 165.77 426.68 164.47 425.71 162.68C424.96 161.28 424.13 160.76 424.37 160.44C424.681 160.107 425.106 159.904 425.56 159.871C426.014 159.837 426.464 159.976 426.82 160.26C427.514 160.767 428.136 161.366 428.67 162.04C428.855 160.242 428.562 158.428 427.82 156.78C426.15 153 426.56 151.08 431.65 152.42C434.85 153.27 436.85 155.93 437.33 163.6C437.552 166.792 437.572 169.995 437.39 173.19C436.83 179.1 436.48 185.26 435.75 190.19C435.435 192.346 434.847 194.453 434 196.46V196.46Z" fill="#E69B83"/>
<path d="M409.32 210.26L422 195.76C422 195.76 420.49 199.29 423.79 204.44C427.09 209.59 429.05 208.69 429.05 208.69C429.05 208.69 421.56 219.62 419.56 223.28C417.56 226.94 415.47 230.03 415.47 230.03C415.249 230.457 414.905 230.808 414.482 231.038C414.06 231.268 413.579 231.366 413.1 231.32C411.24 231.32 406.31 223.06 409.32 210.26Z" fill="#FF6442"/>
<path opacity="0.3" d="M409.32 210.26L422 195.76C422 195.76 420.49 199.29 423.79 204.44C427.09 209.59 429.05 208.69 429.05 208.69C429.05 208.69 421.56 219.62 419.56 223.28C417.56 226.94 415.47 230.03 415.47 230.03C415.249 230.457 414.905 230.808 414.482 231.038C414.06 231.268 413.579 231.366 413.1 231.32C411.24 231.32 406.31 223.06 409.32 210.26Z" fill="#7E5B41"/>
<path d="M307.428 235.88L313.398 243.83L306.978 251.18L298.708 241.51L307.428 235.88Z" fill="black"/>
<path d="M287.878 217.8C293.088 218.04 295.568 218.8 298.298 222.06C301.028 225.32 314.668 245.03 314.668 245.03C314.668 245.03 312.258 251.79 306.978 251.21L297.388 241.32L287.878 217.8Z" fill="#D86142"/>
<path d="M262.318 382.92C261.948 384.994 261.747 387.094 261.718 389.2C261.648 393 260.948 394.36 260.858 397.48C260.748 401.05 261.368 402.39 262.858 404.39C264.348 406.39 268.108 408.22 269.718 404.83C271.328 401.44 271.118 399.22 270.598 395.71C270.078 392.2 269.998 390.09 269.698 387.33C269.418 384.89 269.098 383.04 269.098 383.04L262.318 382.92Z" fill="#11191E"/>
<path d="M273.128 353.03L260.578 352.8C260.768 361.18 262.098 375.12 262.318 382.97C262.318 384.45 262.318 394.46 262.838 397.51C263.678 402.08 269.098 401.46 269.388 398.73C269.678 396 269.038 384.3 269.058 383.09C269.008 378.09 271.368 364.91 272.608 355.86C272.668 355.37 273.068 353.41 273.128 353.03Z" fill="#FFBAA3"/>
<path d="M291.558 376.41C291.558 376.41 290.918 376.41 290.808 376.97C290.698 377.53 290.658 378.59 290.398 379.63C289.972 381.26 289.823 382.951 289.958 384.63C290.168 385.8 292.838 387.54 294.668 387.85C296.498 388.16 299.068 389.96 300.498 391.31C302.795 393.206 305.636 394.32 308.608 394.49C311.608 394.49 313.778 393.49 314.778 391.85C315.778 390.21 313.868 390.02 310.388 387.76L307.678 386C302.168 382.4 300.148 380.47 298.588 376.87L291.558 376.41Z" fill="#11191E"/>
<path d="M298.628 374.45C298.538 371.85 299.858 352.75 299.858 352.75L289.068 353.97C291.628 369.19 291.828 374.38 291.538 376.6C291.484 376.806 291.46 377.018 291.468 377.23C291.468 380.23 294.818 381.79 297.468 383.76C298.468 384.54 301.138 386.94 304.238 387.99C306.238 388.68 309.948 388.99 310.418 387.72C307.258 385.3 302.938 382.14 300.418 379.37C299.178 378.03 298.718 377.03 298.628 374.45Z" fill="#FFBAA3"/>
<path d="M263.488 266.39C257.608 279.25 263.708 324.53 263.708 324.53C263.528 326.62 261.138 330.72 260.258 339.91C259.208 350.75 262.188 379.8 262.188 379.8C263.239 380.438 264.439 380.787 265.668 380.813C266.897 380.84 268.111 380.542 269.188 379.95C269.188 379.95 276.778 337.27 278.188 326.49C279.378 317.07 281.658 296.37 281.658 296.37L288.138 326.43C287.188 329.466 286.499 332.577 286.078 335.73C285.468 342.07 291.648 373.92 291.648 373.92C292.762 374.38 293.958 374.605 295.163 374.581C296.367 374.557 297.554 374.284 298.648 373.78C298.648 373.78 301.378 332.64 301.958 325C302.958 312.16 299.508 272.11 297.158 264.51L263.488 266.39Z" fill="#9CA2AB"/>
<g opacity="0.5">
<path d="M263.462 265.91C257.582 278.77 263.682 324.05 263.682 324.05C263.502 326.14 261.112 330.24 260.232 339.43C259.182 350.27 262.162 379.32 262.162 379.32C263.213 379.958 264.414 380.307 265.642 380.333C266.871 380.36 268.085 380.062 269.162 379.47C269.162 379.47 276.752 336.79 278.162 326.01C279.352 316.59 281.632 295.89 281.632 295.89L288.112 325.95C287.162 328.986 286.473 332.097 286.052 335.25C285.442 341.59 291.622 373.44 291.622 373.44C292.736 373.9 293.933 374.125 295.137 374.101C296.342 374.077 297.528 373.804 298.622 373.3C298.622 373.3 301.352 332.16 301.932 324.52C302.932 311.68 299.482 271.63 297.132 264.03L263.462 265.91Z" fill="black"/>
<path d="M263.462 265.91C257.582 278.77 263.682 324.05 263.682 324.05C263.502 326.14 261.112 330.24 260.232 339.43C259.182 350.27 262.162 379.32 262.162 379.32C263.213 379.958 264.414 380.307 265.642 380.333C266.871 380.36 268.085 380.062 269.162 379.47C269.162 379.47 276.752 336.79 278.162 326.01C279.352 316.59 281.632 295.89 281.632 295.89L288.112 325.95C287.162 328.986 286.473 332.097 286.052 335.25C285.442 341.59 291.622 373.44 291.622 373.44C292.736 373.9 293.933 374.125 295.137 374.101C296.342 374.077 297.528 373.804 298.622 373.3C298.622 373.3 301.352 332.16 301.932 324.52C302.932 311.68 299.482 271.63 297.132 264.03L263.462 265.91Z" fill="black" fill-opacity="0.2"/>
</g>
<path opacity="0.2" d="M281.638 296.37L283.548 284.43C283.548 284.43 291.628 282.76 295.298 279.31C292.767 282.278 289.455 284.478 285.738 285.66L283.588 294.86L287.348 322.69L281.638 296.37Z" fill="black"/>
<path d="M266.508 226.46L274.508 228.54V211.61C270.088 210.46 266.508 213.01 266.508 217.31V226.46Z" fill="#A06732"/>
<path opacity="0.6" d="M266.508 226.46L274.508 228.54V211.61C270.088 210.46 266.508 213.01 266.508 217.31V226.46Z" fill="#785638" fill-opacity="0.6"/>
<path d="M282.348 214.03L279.478 213.97C270.718 213.76 263.778 206.21 263.968 197.09C263.968 187.15 271.668 179.09 281.208 179C290.748 178.95 298.528 187 298.578 196.9V197.9C298.338 207.03 291.088 214.22 282.348 214.03Z" fill="#FF6442"/>
<path opacity="0.6" d="M282.348 214.03L279.478 213.97C270.718 213.76 263.778 206.21 263.968 197.09C263.968 187.15 271.668 179.09 281.208 179C290.748 178.95 298.528 187 298.578 196.9V197.9C298.338 207.03 291.088 214.22 282.348 214.03Z" fill="#606927"/>
<path d="M268.938 183.15C268.869 182.86 268.74 182.588 268.56 182.35C268.38 182.111 268.153 181.913 267.893 181.767C267.633 181.62 267.346 181.529 267.049 181.499C266.752 181.468 266.452 181.499 266.168 181.59L266.938 184.59C266.779 184.388 266.582 184.218 266.358 184.09C266.099 183.943 265.811 183.853 265.515 183.824C265.218 183.795 264.919 183.829 264.636 183.923C264.353 184.018 264.093 184.17 263.873 184.371C263.653 184.572 263.478 184.817 263.358 185.09L267.258 187.38C267.461 186.989 267.551 186.549 267.518 186.11C268.076 185.876 268.529 185.446 268.791 184.9C269.053 184.355 269.105 183.732 268.938 183.15V183.15Z" fill="#A06732"/>
<path opacity="0.6" d="M268.938 183.15C268.869 182.86 268.74 182.588 268.56 182.35C268.38 182.111 268.153 181.913 267.893 181.767C267.633 181.62 267.346 181.529 267.049 181.499C266.752 181.468 266.452 181.499 266.168 181.59L266.938 184.59C266.779 184.388 266.582 184.218 266.358 184.09C266.099 183.943 265.811 183.853 265.515 183.824C265.218 183.795 264.919 183.829 264.636 183.923C264.353 184.018 264.093 184.17 263.873 184.371C263.653 184.572 263.478 184.817 263.358 185.09L267.258 187.38C267.461 186.989 267.551 186.549 267.518 186.11C268.076 185.876 268.529 185.446 268.791 184.9C269.053 184.355 269.105 183.732 268.938 183.15V183.15Z" fill="#785738"/>
<path d="M273.668 218.49C270.975 218.855 268.304 219.37 265.668 220.03C268.768 227.63 263.908 239.37 263.908 239.37L268.498 253.5C265.328 259.99 262.718 263.21 261.638 268.5C264.558 274.2 285.168 279.64 298.588 269.25C298.588 269.25 298.158 254.82 296.448 246.41C300.838 237.84 300.128 235.32 299.228 232.33C297.138 225.38 292.918 222.71 287.888 217.81L284.888 217.49L273.668 218.49Z" fill="#FF7A5C"/>
<path d="M269.008 259.16C271.498 256.61 276.778 255.88 276.778 255.88L271.928 253.12L266.508 240.03C268.783 235.575 269.907 230.621 269.778 225.62L266.658 224.87C267.038 231.8 263.898 239.38 263.898 239.38L268.488 253.51C265.318 260 262.708 263.22 261.628 268.51C263.628 272.41 273.918 276.19 284.518 274.85C270.318 273.89 266.618 261.63 269.008 259.16Z" fill="#FD5733"/>
<path d="M283.358 274.96L283.938 274.9C283.744 274.904 283.55 274.924 283.358 274.96V274.96Z" fill="#E6E6E6"/>
<path d="M292.138 187.86C293.858 189.44 296.008 192.86 295.838 202.86C295.688 211.36 293.058 213.47 291.728 214.08C290.398 214.69 287.848 214.34 285.358 213.92V217.44C285.358 217.44 288.638 221.08 288.438 223.44C288.238 225.8 283.758 226.75 280.528 224.44C278.253 222.717 276.233 220.68 274.528 218.39V207.7C274.528 207.7 273.068 209.19 270.528 206.95C268.528 205.09 267.768 201.95 269.358 200.25C269.766 199.848 270.267 199.552 270.817 199.388C271.366 199.224 271.947 199.198 272.509 199.312C273.071 199.425 273.596 199.675 274.039 200.039C274.482 200.403 274.828 200.871 275.048 201.4C278.859 201.002 282.57 199.932 286.008 198.24C287.942 197.31 289.556 195.828 290.647 193.98C291.739 192.132 292.257 190.003 292.138 187.86Z" fill="#FFBAA3"/>
<path d="M285.348 200.95C285.348 201.144 285.29 201.334 285.184 201.497C285.077 201.659 284.925 201.787 284.747 201.864C284.569 201.941 284.372 201.965 284.181 201.933C283.989 201.9 283.811 201.813 283.669 201.681C283.526 201.549 283.425 201.378 283.378 201.19C283.331 201.001 283.34 200.803 283.403 200.62C283.467 200.436 283.583 200.275 283.736 200.156C283.89 200.037 284.075 199.966 284.268 199.95C284.543 199.945 284.809 200.046 285.01 200.232C285.212 200.419 285.333 200.676 285.348 200.95V200.95Z" fill="#11191E"/>
<path d="M285.738 208.03L288.408 208.9C288.366 209.083 288.286 209.254 288.175 209.405C288.063 209.555 287.922 209.681 287.76 209.775C287.598 209.868 287.418 209.928 287.232 209.95C287.046 209.971 286.858 209.954 286.678 209.9C286.315 209.764 286.016 209.496 285.842 209.149C285.667 208.803 285.631 208.403 285.738 208.03V208.03Z" fill="#BF7055"/>
<path d="M295.008 197.12L292.578 196.29C292.617 196.128 292.689 195.976 292.789 195.843C292.89 195.71 293.018 195.601 293.164 195.52C293.31 195.44 293.472 195.392 293.638 195.378C293.804 195.364 293.971 195.385 294.128 195.44C294.456 195.563 294.727 195.802 294.89 196.112C295.052 196.422 295.094 196.781 295.008 197.12V197.12Z" fill="#11191E"/>
<path d="M275.058 200.45V204.04C275.289 204.05 275.518 204.012 275.734 203.93C275.949 203.847 276.145 203.721 276.31 203.56C276.475 203.399 276.605 203.206 276.692 202.993C276.78 202.78 276.823 202.551 276.818 202.32C276.821 201.842 276.64 201.381 276.313 201.033C275.985 200.685 275.536 200.476 275.058 200.45V200.45Z" fill="#A06732"/>
<path opacity="0.6" d="M275.058 200.45V204.04C275.289 204.05 275.518 204.012 275.734 203.93C275.949 203.847 276.145 203.721 276.31 203.56C276.475 203.399 276.605 203.206 276.692 202.993C276.78 202.78 276.823 202.551 276.818 202.32C276.821 201.842 276.64 201.381 276.313 201.033C275.985 200.685 275.536 200.476 275.058 200.45Z" fill="#885D36"/>
<path d="M294.128 200.6C294.15 200.888 294.057 201.173 293.87 201.392C293.683 201.611 293.416 201.747 293.128 201.77C292.908 201.792 292.686 201.747 292.492 201.642C292.297 201.536 292.138 201.375 292.036 201.179C291.934 200.982 291.892 200.76 291.917 200.54C291.942 200.32 292.033 200.113 292.176 199.944C292.32 199.776 292.511 199.655 292.724 199.596C292.938 199.537 293.164 199.543 293.374 199.613C293.584 199.684 293.768 199.815 293.902 199.991C294.036 200.167 294.115 200.379 294.128 200.6V200.6Z" fill="#11191E"/>
<path d="M288.428 199.15L288.408 206.11L291.648 205.04L288.428 199.15Z" fill="#CB856D"/>
<path d="M285.358 213.96C282.728 213.62 277.358 212.03 276.468 209.81C276.807 210.924 277.472 211.91 278.378 212.64C279.998 214.07 285.378 215.64 285.378 215.64L285.358 213.96Z" fill="#BF7055"/>
<path d="M253.358 254.03C253.358 254.03 259.778 263.15 260.878 264.34C261.978 265.53 262.738 265.13 263.928 264.6C265.379 264.014 266.87 263.53 268.388 263.15C270.388 262.66 270.768 264.47 268.828 265.76C267.428 266.7 265.828 267.1 266.488 267.87C267.857 269.109 269.444 270.082 271.168 270.74C275.908 272.61 275.538 273.55 274.668 275.08C273.908 276.42 271.668 279.3 263.228 275.9C259.728 274.49 254.808 270.5 252.488 267.9C249.138 264.19 243.908 257.54 243.908 257.54L253.358 254.03Z" fill="#FFBAA3"/>
<path d="M266.898 219.7C264.578 219.85 260.208 220.41 254.728 229.51C249.918 237.51 242.468 248.32 241.088 252.19C240.528 253.76 242.708 257.01 245.518 260.34C249.348 260.17 252.838 257.52 254.648 255.4C254.173 254.273 253.584 253.197 252.888 252.19L264.128 239.37C264.128 239.37 268.398 235.46 269.288 230.37C270.248 224.85 269.948 220.51 266.898 219.7Z" fill="#D86142"/>
<path d="M329.828 236.96L302.118 244.26L294.488 275.61L320.838 267.96L329.828 236.96Z" fill="#FF6442"/>
<path opacity="0.25" d="M329.828 236.96L302.118 244.26L294.488 275.61L320.838 267.96L329.828 236.96Z" fill="#7C563A"/>
<g opacity="0.1">
<path d="M317.308 259.16C317.772 260.128 318.511 260.938 319.432 261.49C320.353 262.041 321.416 262.309 322.488 262.26L322.688 261.57L317.308 259.16Z" fill="#7C563A"/>
</g>
<g opacity="0.1">
<path d="M321.478 241.94L321.708 240.88C321.838 240.3 320.208 240.27 318.078 240.88L313.988 241.88C311.858 242.44 309.988 243.36 309.898 243.94L309.678 245L321.478 241.94Z" fill="#7C563A"/>
</g>
<path d="M323.608 237.97C323.688 237.6 323.028 237.5 322.138 237.75L320.518 238.2C320.518 238.2 320.998 235.91 317.418 236.71C316.457 236.852 315.549 237.239 314.782 237.835C314.014 238.43 313.414 239.214 313.038 240.11L311.318 240.6C310.318 240.87 309.498 241.38 309.388 241.74L309.178 242.4L323.458 238.64L323.608 237.97Z" fill="#233F4D"/>
<path d="M321.638 239.09C320.338 239.41 319.788 239.58 319.638 240.48C319.488 241.38 319.318 242.26 319.318 242.26L313.008 243.93C313.008 243.93 313.318 242.63 313.418 242.13C313.518 241.63 313.298 241.31 312.288 241.58L312.208 241.18L322.108 238.65L321.638 239.09Z" fill="#233F4D"/>
<path d="M321.858 242.03L322.088 240.97C322.218 240.39 320.588 240.36 318.458 240.97L314.368 241.97C312.238 242.53 310.368 243.45 310.278 244.03L310.058 245.09L321.858 242.03Z" fill="#233F4D"/>
<path d="M326.908 247.03C326.908 247.03 325.908 250.58 325.638 251.42C325.368 252.26 322.288 253.79 320.258 254.35C318.228 254.91 315.988 255.57 316.958 258.42C317.838 261.05 321.198 261.65 322.898 261.57C324.598 261.49 326.948 259.87 327.898 257.24C329.068 253.88 328.438 250.3 328.898 248.34C329.358 246.38 327.928 245.86 326.908 247.03Z" fill="#FFBAA3"/>
<path d="M220.93 254.83C217.13 251 215.77 252.49 215.29 256.69C215.112 258.452 214.685 260.179 214.02 261.82C213.902 260.948 213.663 260.096 213.31 259.29C213.143 258.854 212.817 258.497 212.398 258.291C211.979 258.085 211.497 258.046 211.05 258.18C210.68 258.33 211.14 259.18 211.05 260.85C210.98 262.93 210.3 264.08 210.79 266.29C210.961 267.121 210.829 267.987 210.42 268.73C208.42 272.53 201.83 279.55 197.21 284.61L179.66 268.76C173.66 263.36 171.72 260.93 165.93 261.32C167.741 262.007 169.41 263.024 170.85 264.32C173.54 266.59 172.9 279.58 172.9 279.58C172.9 279.58 192.82 293.86 194.9 295.22C195.2 295.42 195.51 295.6 195.81 295.77C196.793 296.283 197.921 296.448 199.01 296.239C200.099 296.03 201.086 295.46 201.81 294.62C206.06 289.76 212.26 280.19 215.81 275.22C217.433 272.814 218.88 270.294 220.14 267.68C223.7 260.61 223.31 257.23 220.93 254.83Z" fill="#A26259"/>
<path d="M166.55 261C167.949 260.745 169.386 260.792 170.766 261.137C172.145 261.482 173.435 262.117 174.55 263C177.97 265.6 192.55 279 192.55 279C192.55 279 192.95 286.09 185.55 290.31L167.68 277.71L166.55 261Z" fill="#FF6442"/>
<path opacity="0.3" d="M166.55 261C167.949 260.745 169.386 260.792 170.766 261.137C172.145 261.482 173.435 262.117 174.55 263C177.97 265.6 192.55 279 192.55 279C192.55 279 192.95 286.09 185.55 290.31L167.68 277.71L166.55 261Z" fill="#7E5B41"/>
<path d="M149.3 420.96H141.73V434.46H149.3V420.96Z" fill="#A26259"/>
<path d="M167.98 420.24L175.55 420.51L175.93 406.22L167.98 405.95V420.24Z" fill="#A26259"/>
<path d="M140.66 304.07C140.66 311.6 141.77 372.21 141.77 372.21C141.6 374.37 139.65 378.37 140.07 386.69C140.64 398 141.41 427.69 141.41 427.69C142.71 428.356 144.145 428.717 145.605 428.747C147.066 428.776 148.514 428.473 149.84 427.86C149.84 427.86 157 386.71 158.36 375.51C159.54 365.73 161.55 332.81 161.55 332.81L165.65 371.09C164.776 375.206 164.46 379.42 164.71 383.62C165.07 388.8 167.5 415.79 167.5 415.79C168.809 416.564 170.278 417.03 171.794 417.151C173.31 417.273 174.834 417.046 176.25 416.49C176.25 416.49 180.55 375.84 180.64 371.09C180.74 365.67 178.12 303.97 178.12 303.97L140.66 304.07Z" fill="#2C4C5B"/>
<path d="M149.3 430.56V429.44C150.03 429.77 151.71 436.44 154.71 439.31C157.1 441.58 160.36 444.2 161.19 446.73C162.02 449.26 156.65 450.81 154.42 450.4C151.83 449.92 147.33 448.02 146.21 446.26C145.09 444.5 144.55 441.89 143.63 440.6C142.71 439.31 140.63 437.87 140.11 436.37C139.961 434.975 140.108 433.565 140.54 432.23C140.89 430.84 141.27 429.31 141.73 429.44V430.3C142.798 431.174 144.14 431.645 145.52 431.63C146.62 431.67 149.31 431.44 149.3 430.56Z" fill="#263238"/>
<path d="M175.63 418.08C176.02 418.08 176.34 418.67 177.21 419.65C178.496 421.002 180 422.128 181.66 422.98C184.5 424.46 190.01 426.74 192.51 427.91C194.07 428.64 193.99 430.6 192.38 431.71C190.77 432.82 186.88 433.63 182.21 432.55C179.67 431.95 176.35 429.55 174.21 429.64C172.07 429.73 168.21 429.74 166.64 428.64C165.07 427.54 165.71 425.15 166.15 423.12C166.63 420.89 167.23 417.42 167.93 417.57V418.34C168.84 419.78 173.54 420.34 175.54 419.34L175.63 418.08Z" fill="#263238"/>
<path d="M161.55 332.83C165.49 331.543 169.091 329.391 172.09 326.53C172.09 326.53 170.09 330.53 164.01 334.19L165.3 368.38L161.55 332.83Z" fill="#263238"/>
<path d="M144.6 263C144.6 263 138.68 263.54 139.1 274.83L140.41 292.83L140.29 319.83C145.85 326.14 170.54 325.68 178.99 319.32C178.99 319.32 178.12 287.39 177.55 275.1C177.14 266.37 175.13 261.97 166.55 261.01L155.99 261.47L144.6 263Z" fill="#FF6442"/>
<path opacity="0.3" d="M161.43 268.92L162.79 278.4L165.96 278.34L162.38 278.9L161.43 268.92Z" fill="#7E5B41"/>
<path d="M125.81 301.76C128.88 277.06 135.95 264.76 144.56 263.34L143.95 279.14C140.365 287.566 137.618 296.325 135.75 305.29C134.62 311.37 133.31 321.94 133.65 327.13C133.718 328.045 134.108 328.905 134.75 329.56C136.45 331.29 136.96 332.79 138.1 334.74C139 336.27 139.92 336.81 139.68 337.18C139.371 337.569 138.922 337.822 138.429 337.886C137.936 337.949 137.438 337.818 137.04 337.52C136.138 336.881 135.312 336.139 134.58 335.31C134.47 337.664 134.894 340.013 135.82 342.18C137.82 346.34 137.5 348.53 131.92 347.3C128.42 346.54 125.92 342.85 124.92 334.24C124.657 331.027 124.6 327.8 124.75 324.58C125.13 316.35 125.2 306.7 125.81 301.76Z" fill="#A26259"/>
<path d="M145.05 262.93C140.58 262.93 136.5 263.7 133.25 269.93C130.14 275.93 127.75 288.62 126.54 292.77C126.54 292.77 133.07 296.63 139.08 296.53L143.31 281.85C143.31 281.85 146.17 275 145.05 262.93Z" fill="#FF6442"/>
<path opacity="0.3" d="M145.05 262.93C140.58 262.93 136.5 263.7 133.25 269.93C130.14 275.93 127.75 288.62 126.54 292.77C126.54 292.77 133.07 296.63 139.08 296.53L143.31 281.85C143.31 281.85 146.17 275 145.05 262.93Z" fill="#7E5B41"/>
<path d="M154.28 237.51C154.37 239.72 155.108 241.854 156.401 243.648C157.695 245.441 159.487 246.815 161.555 247.599C163.623 248.382 165.876 248.54 168.033 248.054C170.19 247.567 172.157 246.457 173.688 244.862C175.219 243.266 176.248 241.256 176.646 239.081C177.044 236.905 176.794 234.661 175.927 232.627C175.06 230.593 173.614 228.858 171.769 227.639C169.924 226.42 167.761 225.77 165.55 225.77C162.5 225.836 159.6 227.109 157.487 229.31C155.374 231.51 154.221 234.46 154.28 237.51V237.51Z" fill="#263238"/>
<path d="M147.11 243.38C147.11 243.38 148.84 251.84 149.53 253.23C149.98 254.081 150.744 254.723 151.66 255.02L151.53 249.02L147.11 243.38Z" fill="#263238"/>
<path d="M149.28 231.26C149.28 231.26 148 231 146.72 233C145.59 234.76 145.34 238.72 147.11 243.37L150.36 243.76L149.28 231.26Z" fill="#263238"/>
<path d="M151.34 243.77C150.69 244.18 149.76 242.87 148.95 242C148.14 241.13 145.52 239.92 144.21 242.8C142.9 245.68 145.36 249.61 147.43 250.28C151 251.45 151.53 249.06 151.53 249.06L151.81 262.47C156.54 269.79 167.27 269.53 163.41 262.11V258C164.999 258.264 166.612 258.351 168.22 258.26C170.84 257.84 172.49 255.68 173.29 252.72C174.57 247.97 175.05 244.14 173.97 234.8C172.78 224.56 161.35 224.45 155.17 228.5C148.99 232.55 151.34 243.77 151.34 243.77Z" fill="#A26259"/>
<path d="M151.75 259.46C152.85 261.712 154.431 263.695 156.38 265.27C158.038 266.493 159.959 267.311 161.99 267.66C160.316 268.794 158.943 270.317 157.99 272.1C156.81 274.71 148.47 267.54 148.55 262.45C148.55 262.45 149.86 257.34 151.65 257.01L151.75 259.46Z" fill="#263238"/>
<path d="M162 267.66C162 267.66 164.57 266.38 163.42 262.11V258L164.55 258.15C165.867 259.433 166.802 261.057 167.25 262.84C167.51 264.01 168.15 269.93 167.02 271.1C165.89 272.27 164.3 268 162 267.66Z" fill="#263238"/>
<path d="M151.34 244.92C151.01 244.92 149.76 242.77 148.95 242C147.82 240.93 149.28 231.26 149.28 231.26C148.985 230.425 148.931 229.525 149.121 228.661C149.312 227.797 149.741 227.003 150.36 226.37C151.91 224.6 154.49 224.37 158.89 223.69C160.647 223.474 162.39 223.157 164.11 222.74C165.926 222.06 167.674 221.21 169.33 220.2C169.851 219.862 170.474 219.721 171.09 219.8C171.374 219.896 171.628 220.064 171.826 220.289C172.024 220.514 172.16 220.786 172.22 221.08C172.32 221.666 172.32 222.264 172.22 222.85C172.776 222.333 173.515 222.057 174.274 222.083C175.033 222.109 175.751 222.435 176.27 222.99C176.761 223.575 177.081 224.284 177.194 225.04C177.307 225.795 177.208 226.567 176.91 227.27C176.271 228.669 175.226 229.843 173.91 230.64C168.38 234.38 161.85 233.34 155.65 232.64C155.357 232.574 155.051 232.595 154.77 232.7C153.77 233.14 153.59 236.15 153.42 237.02C152.92 239.92 152.44 244.9 151.34 244.92Z" fill="#263238"/>
<path d="M149.28 231.77L145.34 229.56C145.459 229.287 145.635 229.042 145.855 228.841C146.075 228.64 146.335 228.488 146.618 228.393C146.9 228.299 147.2 228.265 147.497 228.294C147.793 228.323 148.081 228.413 148.34 228.56C148.864 228.886 149.249 229.393 149.423 229.986C149.596 230.578 149.545 231.213 149.28 231.77V231.77Z" fill="#263238"/>
<path d="M163.4 258C163.4 258 157.55 256.77 155.5 255.64C154.283 254.975 153.297 253.957 152.67 252.72C152.975 253.961 153.522 255.131 154.28 256.16C155.77 258.16 163.4 259.63 163.4 259.63V258Z" fill="#783736"/>
<path d="M161.28 241.9C161.287 242.06 161.262 242.22 161.207 242.371C161.151 242.521 161.067 242.66 160.958 242.778C160.85 242.896 160.719 242.991 160.573 243.058C160.428 243.126 160.27 243.164 160.11 243.17C159.786 243.152 159.483 243.008 159.264 242.769C159.045 242.529 158.929 242.214 158.94 241.89C158.94 241.58 159.063 241.282 159.283 241.063C159.502 240.843 159.8 240.72 160.11 240.72C160.42 240.72 160.718 240.843 160.937 241.063C161.157 241.282 161.28 241.58 161.28 241.89V241.9Z" fill="#263238"/>
<path d="M159.27 236.82L156.76 238.26C156.579 237.903 156.539 237.492 156.646 237.107C156.754 236.722 157.001 236.392 157.34 236.18C157.507 236.087 157.692 236.03 157.882 236.012C158.072 235.994 158.264 236.016 158.446 236.076C158.627 236.136 158.794 236.233 158.936 236.361C159.078 236.489 159.192 236.646 159.27 236.82V236.82Z" fill="#263238"/>
<path d="M162.87 250.69L165.55 251.74C165.497 251.924 165.407 252.095 165.285 252.243C165.163 252.39 165.012 252.511 164.841 252.597C164.67 252.684 164.483 252.734 164.292 252.745C164.101 252.755 163.909 252.727 163.73 252.66C163.365 252.501 163.073 252.209 162.913 251.844C162.754 251.478 162.738 251.066 162.87 250.69Z" fill="#783736"/>
<path d="M173 238.22L170.36 236.94C170.425 236.761 170.526 236.598 170.659 236.461C170.791 236.324 170.95 236.217 171.127 236.146C171.304 236.075 171.493 236.043 171.683 236.05C171.873 236.058 172.06 236.105 172.23 236.19C172.587 236.373 172.863 236.682 173.005 237.057C173.148 237.432 173.146 237.846 173 238.22Z" fill="#263238"/>
<path d="M171.27 241.9C171.285 242.063 171.266 242.228 171.214 242.384C171.162 242.539 171.078 242.682 170.967 242.804C170.856 242.925 170.722 243.022 170.572 243.088C170.421 243.154 170.259 243.189 170.095 243.189C169.931 243.189 169.769 243.154 169.618 243.088C169.468 243.022 169.334 242.925 169.223 242.804C169.113 242.682 169.028 242.539 168.976 242.384C168.924 242.228 168.905 242.063 168.92 241.9C168.913 241.74 168.938 241.581 168.994 241.431C169.049 241.281 169.134 241.143 169.242 241.026C169.351 240.909 169.482 240.814 169.628 240.748C169.773 240.682 169.93 240.645 170.09 240.64C170.413 240.653 170.717 240.792 170.938 241.028C171.159 241.264 171.278 241.577 171.27 241.9V241.9Z" fill="#263238"/>
<path d="M164.62 240.99L164.75 248.4L168.96 247.44L164.62 240.99Z" fill="#783736"/>
<path d="M159.47 238.84C158.693 238.84 157.948 239.149 157.398 239.698C156.849 240.248 156.54 240.993 156.54 241.77C156.54 242.547 156.849 243.292 157.398 243.842C157.948 244.391 158.693 244.7 159.47 244.7H160C160.777 244.7 161.522 244.391 162.072 243.842C162.621 243.292 162.93 242.547 162.93 241.77C162.93 240.993 162.621 240.248 162.072 239.698C161.522 239.149 160.777 238.84 160 238.84H159.47ZM156 241.77C155.992 240.843 156.352 239.952 157 239.29C157.649 238.628 158.533 238.251 159.46 238.24H160C160.849 238.351 161.629 238.768 162.194 239.412C162.759 240.056 163.071 240.883 163.071 241.74C163.071 242.597 162.759 243.424 162.194 244.068C161.629 244.712 160.849 245.129 160 245.24H159.47C158.551 245.235 157.672 244.867 157.022 244.218C156.373 243.568 156.005 242.689 156 241.77V241.77Z" fill="#263238"/>
<path d="M170 238.84C169.223 238.84 168.478 239.149 167.928 239.698C167.379 240.248 167.07 240.993 167.07 241.77C167.07 242.547 167.379 243.292 167.928 243.842C168.478 244.391 169.223 244.7 170 244.7H170.53C171.307 244.7 172.052 244.391 172.602 243.842C173.151 243.292 173.46 242.547 173.46 241.77C173.46 240.993 173.151 240.248 172.602 239.698C172.052 239.149 171.307 238.84 170.53 238.84H170ZM166.54 241.77C166.532 240.843 166.892 239.952 167.54 239.29C168.189 238.628 169.073 238.251 170 238.24H170.53C171.379 238.351 172.159 238.768 172.724 239.412C173.289 240.056 173.601 240.883 173.601 241.74C173.601 242.597 173.289 243.424 172.724 244.068C172.159 244.712 171.379 245.129 170.53 245.24H170C169.086 245.227 168.215 244.856 167.571 244.207C166.928 243.559 166.565 242.684 166.56 241.77H166.54Z" fill="#263238"/>
<path d="M163.42 241.07C163.63 240.78 163.904 240.542 164.222 240.377C164.54 240.212 164.892 240.124 165.25 240.12C165.545 240.088 165.844 240.128 166.121 240.236C166.398 240.344 166.644 240.517 166.84 240.74L167.31 240.38C167.06 240.075 166.738 239.838 166.373 239.689C166.008 239.541 165.612 239.486 165.22 239.53C164.766 239.535 164.32 239.649 163.919 239.863C163.519 240.077 163.176 240.385 162.92 240.76L163.42 241.07Z" fill="#263238"/>
<path d="M156.32 241.04H150.36V241.63H156.32V241.04Z" fill="#263238"/>
</svg>
