<svg width="114" height="90" viewBox="0 0 114 90" fill="none" xmlns="http://www.w3.org/2000/svg">
<g filter="url(#filter0_di_101_4)">
<path d="M32.3918 63.78L4.3118 51.12V44.46L32.3918 31.8V39.36L12.8918 47.76L32.3918 56.22V63.78ZM45.8313 66L59.8713 26.28H68.1513L54.1113 66H45.8313ZM81.6087 63.78V56.22L101.109 47.76L81.6087 39.36V31.8L109.689 44.46V51.12L81.6087 63.78Z" fill="#FF461E"/>
<path d="M32.3918 63.78L4.3118 51.12V44.46L32.3918 31.8V39.36L12.8918 47.76L32.3918 56.22V63.78ZM45.8313 66L59.8713 26.28H68.1513L54.1113 66H45.8313ZM81.6087 63.78V56.22L101.109 47.76L81.6087 39.36V31.8L109.689 44.46V51.12L81.6087 63.78Z" fill="#FF461E" fill-opacity="0.5"/>
</g>
<defs>
<filter id="filter0_di_101_4" x="0.311798" y="26.28" width="113.377" height="47.72" filterUnits="userSpaceOnUse" color-interpolation-filters="sRGB">
<feFlood flood-opacity="0" result="BackgroundImageFix"/>
<feColorMatrix in="SourceAlpha" type="matrix" values="0 0 0 0 0 0 0 0 0 0 0 0 0 0 0 0 0 0 127 0" result="hardAlpha"/>
<feOffset dy="4"/>
<feGaussianBlur stdDeviation="2"/>
<feComposite in2="hardAlpha" operator="out"/>
<feColorMatrix type="matrix" values="0 0 0 0 0 0 0 0 0 0 0 0 0 0 0 0 0 0 0.25 0"/>
<feBlend mode="normal" in2="BackgroundImageFix" result="effect1_dropShadow_101_4"/>
<feBlend mode="normal" in="SourceGraphic" in2="effect1_dropShadow_101_4" result="shape"/>
<feColorMatrix in="SourceAlpha" type="matrix" values="0 0 0 0 0 0 0 0 0 0 0 0 0 0 0 0 0 0 127 0" result="hardAlpha"/>
<feOffset dy="4"/>
<feGaussianBlur stdDeviation="2"/>
<feComposite in2="hardAlpha" operator="arithmetic" k2="-1" k3="1"/>
<feColorMatrix type="matrix" values="0 0 0 0 0 0 0 0 0 0 0 0 0 0 0 0 0 0 0.25 0"/>
<feBlend mode="normal" in2="shape" result="effect2_innerShadow_101_4"/>
</filter>
</defs>
</svg>
