<svg width="500" height="500" viewBox="0 0 500 500" fill="none" xmlns="http://www.w3.org/2000/svg">
<path d="M449.9 398.49H416.78V398.74H449.9V398.49Z" fill="#EBEBEB"/>
<path d="M331.22 401.21H322.53V401.46H331.22V401.21Z" fill="#EBEBEB"/>
<path d="M415.78 389.21H396.59V389.46H415.78V389.21Z" fill="#EBEBEB"/>
<path d="M95.65 390.89H52.46V391.14H95.65V390.89Z" fill="#EBEBEB"/>
<path d="M110.89 390.89H104.56V391.14H110.89V390.89Z" fill="#EBEBEB"/>
<path d="M225.15 395.11H131.47V395.36H225.15V395.11Z" fill="#EBEBEB"/>
<path d="M238.4 337.8H45.3C43.7856 337.8 42.3332 337.198 41.2624 336.128C40.1916 335.057 39.59 333.604 39.59 332.09V60.66C39.6032 59.1543 40.2106 57.7147 41.28 56.6547C42.3494 55.5947 43.7942 54.9999 45.3 55H238.4C239.15 55 239.892 55.1477 240.585 55.4346C241.278 55.7216 241.907 56.1422 242.438 56.6724C242.968 57.2026 243.388 57.8321 243.675 58.5249C243.962 59.2176 244.11 59.9602 244.11 60.71V332.09C244.11 332.84 243.962 333.582 243.675 334.275C243.388 334.968 242.968 335.597 242.438 336.128C241.907 336.658 241.278 337.078 240.585 337.365C239.892 337.652 239.15 337.8 238.4 337.8V337.8ZM45.3 55.2C43.8527 55.2026 42.4655 55.7787 41.4421 56.8021C40.4187 57.8255 39.8426 59.2127 39.84 60.66V332.09C39.8426 333.537 40.4187 334.924 41.4421 335.948C42.4655 336.971 43.8527 337.547 45.3 337.55H238.4C239.847 337.547 241.235 336.971 242.258 335.948C243.281 334.924 243.857 333.537 243.86 332.09V60.66C243.857 59.2127 243.281 57.8255 242.258 56.8021C241.235 55.7787 239.847 55.2026 238.4 55.2H45.3Z" fill="#EBEBEB"/>
<path d="M454.7 337.8H261.6C260.086 337.8 258.633 337.198 257.562 336.128C256.492 335.057 255.89 333.604 255.89 332.09V60.66C255.903 59.1543 256.511 57.7147 257.58 56.6547C258.649 55.5947 260.094 54.9999 261.6 55H454.7C456.214 55 457.667 55.6016 458.738 56.6724C459.808 57.7433 460.41 59.1956 460.41 60.71V332.09C460.41 333.604 459.808 335.057 458.738 336.128C457.667 337.198 456.214 337.8 454.7 337.8V337.8ZM261.6 55.2C260.153 55.2026 258.766 55.7787 257.742 56.8021C256.719 57.8255 256.143 59.2127 256.14 60.66V332.09C256.143 333.537 256.719 334.924 257.742 335.948C258.766 336.971 260.153 337.547 261.6 337.55H454.7C456.147 337.547 457.535 336.971 458.558 335.948C459.581 334.924 460.157 333.537 460.16 332.09V60.66C460.157 59.2127 459.581 57.8255 458.558 56.8021C457.535 55.7787 456.147 55.2026 454.7 55.2H261.6Z" fill="#EBEBEB"/>
<path d="M500 382.4H0V382.65H500V382.4Z" fill="#EBEBEB"/>
<path d="M119.33 314.75C118.49 305.09 108.63 301.48 96.94 302.5C85.25 303.52 76.18 308.79 77 318.45L119.33 314.75Z" fill="#F0F0F0"/>
<path d="M96.56 298.09C101.98 297.61 103.71 293.03 103.24 287.61C102.77 282.19 100.24 277.98 94.84 278.45C89.44 278.92 87.69 283.51 88.16 288.93C88.63 294.35 91.14 298.56 96.56 298.09Z" fill="#F0F0F0"/>
<path d="M340.1 109C340.195 110.072 339.97 111.148 339.453 112.092C338.936 113.036 338.15 113.806 337.196 114.303C336.242 114.801 335.161 115.004 334.091 114.887C333.021 114.771 332.01 114.339 331.185 113.648C330.361 112.956 329.76 112.035 329.459 111.002C329.157 109.969 329.169 108.869 329.493 107.843C329.817 106.816 330.438 105.909 331.278 105.236C332.117 104.562 333.138 104.153 334.21 104.06C335.646 103.935 337.073 104.385 338.177 105.311C339.281 106.238 339.973 107.564 340.1 109Z" fill="#F5F5F5"/>
<path d="M370.17 106.34C370.263 107.41 370.036 108.483 369.519 109.424C369.002 110.366 368.217 111.132 367.265 111.628C366.312 112.123 365.233 112.325 364.166 112.207C363.098 112.089 362.09 111.658 361.267 110.967C360.445 110.276 359.846 109.357 359.546 108.326C359.246 107.295 359.259 106.198 359.583 105.174C359.906 104.15 360.526 103.245 361.364 102.573C362.202 101.901 363.22 101.493 364.29 101.4C365.724 101.278 367.148 101.729 368.251 102.655C369.353 103.581 370.043 104.906 370.17 106.34V106.34Z" fill="#F5F5F5"/>
<path d="M400.25 103.71C400.345 104.782 400.12 105.858 399.603 106.802C399.086 107.746 398.3 108.516 397.346 109.013C396.392 109.511 395.311 109.714 394.241 109.597C393.171 109.481 392.16 109.049 391.335 108.358C390.511 107.666 389.91 106.745 389.609 105.712C389.307 104.679 389.319 103.579 389.643 102.553C389.967 101.526 390.588 100.619 391.428 99.9458C392.267 99.2724 393.288 98.8632 394.36 98.77C395.796 98.6452 397.223 99.0953 398.327 100.021C399.431 100.948 400.123 102.274 400.25 103.71V103.71Z" fill="#F5F5F5"/>
<path d="M342.78 139.62C342.875 140.692 342.65 141.768 342.133 142.712C341.616 143.656 340.83 144.426 339.876 144.923C338.922 145.421 337.841 145.624 336.771 145.507C335.701 145.391 334.69 144.959 333.865 144.268C333.041 143.576 332.44 142.655 332.139 141.622C331.837 140.589 331.849 139.489 332.173 138.463C332.497 137.436 333.118 136.529 333.958 135.856C334.797 135.182 335.818 134.773 336.89 134.68C338.326 134.555 339.753 135.005 340.857 135.931C341.961 136.858 342.653 138.184 342.78 139.62Z" fill="#F5F5F5"/>
<path d="M372.85 137C372.943 138.07 372.716 139.143 372.199 140.084C371.682 141.026 370.897 141.792 369.945 142.288C368.992 142.783 367.913 142.985 366.846 142.867C365.778 142.749 364.77 142.318 363.948 141.627C363.125 140.936 362.526 140.017 362.226 138.986C361.927 137.955 361.939 136.858 362.263 135.834C362.586 134.81 363.206 133.905 364.044 133.233C364.882 132.561 365.9 132.153 366.97 132.06C367.68 131.998 368.396 132.077 369.076 132.292C369.756 132.507 370.387 132.853 370.933 133.312C371.479 133.771 371.93 134.333 372.258 134.965C372.587 135.598 372.788 136.29 372.85 137Z" fill="#F5F5F5"/>
<path d="M402.93 134.36C403.025 135.432 402.8 136.508 402.283 137.452C401.766 138.396 400.98 139.166 400.026 139.663C399.072 140.161 397.991 140.364 396.921 140.247C395.851 140.131 394.84 139.699 394.015 139.008C393.191 138.316 392.59 137.395 392.289 136.362C391.987 135.329 391.999 134.229 392.323 133.203C392.647 132.176 393.268 131.269 394.108 130.596C394.947 129.922 395.968 129.513 397.04 129.42C398.476 129.295 399.903 129.745 401.007 130.671C402.111 131.598 402.803 132.924 402.93 134.36V134.36Z" fill="#F5F5F5"/>
<path d="M345.46 170.28C345.553 171.35 345.326 172.423 344.809 173.364C344.292 174.306 343.507 175.072 342.555 175.568C341.602 176.063 340.523 176.265 339.456 176.147C338.388 176.029 337.38 175.598 336.557 174.907C335.735 174.216 335.136 173.297 334.836 172.266C334.536 171.235 334.549 170.138 334.873 169.114C335.196 168.09 335.816 167.185 336.654 166.513C337.492 165.841 338.51 165.433 339.58 165.34C340.291 165.277 341.007 165.355 341.687 165.569C342.368 165.783 343 166.13 343.546 166.589C344.092 167.048 344.543 167.61 344.871 168.244C345.199 168.877 345.4 169.569 345.46 170.28V170.28Z" fill="#F5F5F5"/>
<path d="M375.54 167.64C375.635 168.712 375.41 169.788 374.893 170.732C374.376 171.676 373.59 172.446 372.636 172.943C371.682 173.441 370.601 173.644 369.531 173.527C368.461 173.411 367.45 172.979 366.625 172.288C365.801 171.596 365.2 170.675 364.899 169.642C364.597 168.609 364.609 167.509 364.933 166.483C365.257 165.456 365.878 164.549 366.718 163.876C367.557 163.202 368.578 162.793 369.65 162.7C371.086 162.575 372.513 163.025 373.617 163.951C374.721 164.878 375.413 166.204 375.54 167.64Z" fill="#F5F5F5"/>
<path d="M405.61 165C405.705 166.072 405.48 167.148 404.963 168.092C404.446 169.036 403.66 169.806 402.706 170.303C401.752 170.801 400.671 171.004 399.601 170.887C398.531 170.771 397.52 170.339 396.695 169.648C395.871 168.956 395.27 168.035 394.969 167.002C394.667 165.969 394.679 164.869 395.003 163.843C395.327 162.816 395.948 161.909 396.788 161.236C397.627 160.562 398.648 160.153 399.72 160.06C401.156 159.935 402.583 160.385 403.687 161.311C404.791 162.238 405.483 163.564 405.61 165V165Z" fill="#F5F5F5"/>
<path d="M399.11 166.78L337.33 172.18L392.11 105.62L336 110.53C335.843 110.545 335.685 110.529 335.535 110.482C335.385 110.435 335.246 110.358 335.125 110.257C335.005 110.155 334.907 110.031 334.835 109.89C334.764 109.75 334.721 109.597 334.71 109.44V109.44C334.682 109.126 334.78 108.813 334.983 108.571C335.185 108.33 335.476 108.178 335.79 108.15L397.58 102.75L342.79 169.31L398.92 164.4C399.236 164.375 399.55 164.475 399.793 164.679C400.036 164.883 400.19 165.174 400.22 165.49C400.232 165.648 400.213 165.806 400.164 165.957C400.115 166.107 400.036 166.246 399.933 166.366C399.83 166.486 399.704 166.584 399.563 166.655C399.422 166.726 399.268 166.769 399.11 166.78V166.78Z" fill="#E6E6E6"/>
<path d="M400.06 285.61C399.965 285.319 399.786 285.062 399.546 284.872C399.306 284.681 399.015 284.566 398.71 284.54C396.024 284.416 393.481 283.293 391.58 281.39C389.11 278.9 387.66 275.13 387.42 270.65C387.397 270.246 387.221 269.866 386.927 269.587C386.634 269.308 386.245 269.152 385.84 269.15V269.15C385.621 269.151 385.405 269.196 385.204 269.283C385.003 269.37 384.822 269.497 384.672 269.656C384.521 269.815 384.405 270.003 384.329 270.208C384.253 270.413 384.219 270.631 384.23 270.85C384.51 276.11 386.29 280.61 389.32 283.64C391.693 286.017 394.841 287.461 398.19 287.71H398.42C398.683 287.73 398.947 287.685 399.188 287.578C399.429 287.472 399.64 287.307 399.803 287.099C399.965 286.892 400.073 286.647 400.118 286.387C400.163 286.127 400.143 285.86 400.06 285.61V285.61Z" fill="#F0F0F0"/>
<path d="M396.86 304.8C383.61 303.64 374.05 294.61 371.03 280.51C370.982 280.298 370.977 280.079 371.016 279.865C371.055 279.652 371.137 279.448 371.256 279.267C371.376 279.086 371.531 278.931 371.712 278.811C371.893 278.691 372.096 278.609 372.31 278.57V278.57C372.715 278.498 373.132 278.585 373.474 278.812C373.817 279.039 374.059 279.389 374.15 279.79C376.86 292.46 385.36 300.58 397.15 301.61C410.07 302.74 423.94 294.24 426.43 272.82C426.473 272.402 426.679 272.018 427.002 271.751C427.326 271.483 427.742 271.354 428.16 271.39V271.39C428.372 271.407 428.578 271.467 428.767 271.566C428.955 271.664 429.122 271.8 429.257 271.964C429.392 272.128 429.493 272.317 429.554 272.521C429.614 272.725 429.633 272.939 429.61 273.15C427.22 293.35 413.94 306.29 396.86 304.8Z" fill="#F0F0F0"/>
<path d="M371.86 266.46C371.648 266.443 371.442 266.383 371.253 266.284C371.065 266.186 370.898 266.05 370.763 265.886C370.628 265.722 370.527 265.533 370.466 265.329C370.406 265.125 370.387 264.911 370.41 264.7C372.79 244.5 386.07 231.55 403.14 233.05C418.14 234.36 428.19 245.56 429.76 262.43C429.776 262.642 429.75 262.855 429.683 263.056C429.617 263.258 429.51 263.444 429.371 263.604C429.231 263.765 429.061 263.895 428.87 263.989C428.679 264.083 428.472 264.137 428.26 264.15V264.15C427.843 264.169 427.434 264.026 427.121 263.75C426.807 263.474 426.613 263.086 426.58 262.67C425.13 247.47 416.16 237.4 402.87 236.24C390 235.11 376.07 243.6 373.59 265C373.572 265.209 373.514 265.413 373.417 265.6C373.321 265.787 373.188 265.953 373.028 266.089C372.867 266.224 372.681 266.327 372.481 266.39C372.28 266.454 372.069 266.478 371.86 266.46Z" fill="#F0F0F0"/>
<path d="M397.51 296.23C395.134 296.039 392.806 295.458 390.62 294.51C390.416 294.421 390.233 294.29 390.082 294.126C389.931 293.963 389.816 293.769 389.744 293.559C389.671 293.348 389.644 293.125 389.662 292.903C389.68 292.681 389.744 292.466 389.85 292.27V292.27C390.037 291.926 390.346 291.664 390.715 291.535C391.085 291.406 391.489 291.418 391.85 291.57C393.935 292.466 396.163 292.98 398.43 293.09C408.22 293.65 418.56 286.71 419.58 269.95C420.2 259.62 416.66 251.28 410.06 247.29C409.718 247.083 409.466 246.756 409.353 246.373C409.241 245.99 409.275 245.579 409.45 245.22V245.22C409.549 245.022 409.689 244.846 409.859 244.703C410.029 244.561 410.227 244.455 410.44 244.392C410.652 244.33 410.876 244.311 411.096 244.338C411.316 244.365 411.529 244.437 411.72 244.55C419.37 249.17 423.47 258.55 422.77 270.14C421.77 286.3 411.71 297.06 398.24 296.29L397.51 296.23Z" fill="#F0F0F0"/>
<path d="M383.27 286.26C383.086 286.385 382.878 286.47 382.66 286.511C382.441 286.552 382.216 286.547 382 286.497C381.783 286.448 381.579 286.354 381.4 286.222C381.221 286.09 381.071 285.922 380.96 285.73C377.996 280.219 376.693 273.966 377.21 267.73C378.15 252.26 387.42 241.73 400.01 241.55C400.232 241.546 400.452 241.587 400.657 241.672C400.862 241.756 401.047 241.882 401.201 242.042C401.355 242.201 401.475 242.391 401.552 242.599C401.629 242.807 401.662 243.029 401.65 243.25V243.25C401.625 243.65 401.451 244.026 401.162 244.304C400.873 244.582 400.491 244.741 400.09 244.75C390.75 244.93 381.37 251.99 380.41 267.92C379.925 273.549 381.085 279.198 383.75 284.18C383.95 284.526 384.012 284.935 383.923 285.324C383.834 285.714 383.601 286.056 383.27 286.28V286.26Z" fill="#F0F0F0"/>
<path d="M405.13 285C404.978 284.644 404.961 284.246 405.08 283.878C405.2 283.511 405.448 283.199 405.78 283C409.99 280.47 412.57 275.16 412.61 268.75C412.61 263.62 411.16 259.28 408.42 256.53C407.356 255.476 406.088 254.65 404.693 254.103C403.299 253.556 401.807 253.3 400.31 253.35C395.38 253.35 391.38 256.06 389.17 260.82C389 261.182 388.699 261.466 388.328 261.616C387.958 261.766 387.544 261.771 387.17 261.63V261.63C386.961 261.553 386.771 261.433 386.611 261.279C386.451 261.124 386.325 260.938 386.24 260.732C386.156 260.526 386.115 260.305 386.12 260.083C386.125 259.861 386.176 259.642 386.27 259.44C389.01 253.61 394.14 250.16 400.27 250.15C402.19 250.1 404.101 250.44 405.886 251.148C407.672 251.856 409.296 252.918 410.66 254.27C414.01 257.63 415.83 262.78 415.79 268.78C415.73 276.33 412.55 282.67 407.37 285.78C407.174 285.887 406.958 285.952 406.735 285.97C406.512 285.989 406.288 285.96 406.077 285.887C405.866 285.813 405.673 285.696 405.51 285.544C405.347 285.391 405.217 285.206 405.13 285V285Z" fill="#F0F0F0"/>
<path d="M393.61 273.19C393.396 273.277 393.166 273.317 392.936 273.307C392.706 273.297 392.48 273.237 392.275 273.131C392.07 273.026 391.89 272.877 391.747 272.696C391.605 272.514 391.504 272.304 391.45 272.08C391.34 271.65 391.26 271.2 391.19 270.74C390.28 264.74 393.5 259.55 398.67 258.62C399.874 258.358 401.122 258.382 402.315 258.689C403.508 258.997 404.613 259.579 405.54 260.39C405.714 260.545 405.851 260.737 405.94 260.952C406.03 261.166 406.07 261.399 406.058 261.631C406.045 261.864 405.98 262.09 405.868 262.295C405.756 262.499 405.6 262.675 405.41 262.81L405.31 262.88C405.01 263.089 404.648 263.187 404.283 263.16C403.919 263.133 403.575 262.981 403.31 262.73C402.749 262.256 402.086 261.92 401.373 261.746C400.66 261.573 399.916 261.567 399.2 261.73C395.26 262.44 393.76 266.54 394.32 270.22C394.38 270.58 394.44 270.93 394.53 271.22C394.627 271.597 394.584 271.995 394.409 272.343C394.234 272.69 393.94 272.963 393.58 273.11L393.61 273.19Z" fill="#F0F0F0"/>
<path d="M398.9 279.35C398.648 279.325 398.406 279.237 398.198 279.093C397.989 278.949 397.821 278.754 397.709 278.526C397.597 278.299 397.545 278.047 397.557 277.794C397.569 277.541 397.646 277.295 397.78 277.08L397.92 276.86C398.064 276.631 398.267 276.445 398.509 276.324C398.75 276.202 399.02 276.149 399.29 276.17C399.792 276.199 400.295 276.169 400.79 276.08C404.23 275.46 405.79 272.26 405.79 269C405.78 268.608 405.912 268.227 406.163 267.925C406.413 267.623 406.763 267.423 407.15 267.36V267.36C407.372 267.326 407.599 267.339 407.815 267.399C408.032 267.458 408.233 267.562 408.407 267.705C408.58 267.847 408.722 268.025 408.822 268.225C408.923 268.426 408.98 268.646 408.99 268.87C409.08 274.09 405.99 278.4 401.36 279.23C400.549 279.38 399.722 279.42 398.9 279.35V279.35Z" fill="#F0F0F0"/>
<path d="M399.61 273.44C398.802 273.372 398.036 273.053 397.419 272.527C396.802 272.002 396.366 271.296 396.17 270.51C396.114 270.288 396.111 270.056 396.162 269.833C396.214 269.61 396.317 269.402 396.465 269.227C396.613 269.052 396.8 268.915 397.011 268.827C397.222 268.738 397.452 268.702 397.68 268.72H398.05C398.33 268.749 398.595 268.859 398.814 269.037C399.032 269.215 399.194 269.452 399.28 269.72C399.315 269.859 399.392 269.984 399.502 270.078C399.611 270.171 399.747 270.228 399.89 270.24C400.66 270.31 400.79 269.24 400.81 268.98C400.856 268.591 400.783 268.197 400.6 267.85C400.324 267.516 400.182 267.092 400.2 266.66V266.66C400.225 266.342 400.345 266.039 400.544 265.79C400.742 265.541 401.011 265.356 401.315 265.261C401.619 265.165 401.945 265.163 402.25 265.253C402.556 265.344 402.827 265.524 403.03 265.77C403.81 266.756 404.17 268.01 404.03 269.26C403.77 271.89 401.92 273.64 399.61 273.44Z" fill="#F0F0F0"/>
<path d="M369.53 237.65C369.321 237.632 369.117 237.574 368.931 237.477C368.745 237.38 368.58 237.248 368.445 237.087C368.31 236.926 368.208 236.74 368.146 236.54C368.083 236.34 368.061 236.129 368.08 235.92L369.29 222.05L383.16 223.27C383.369 223.288 383.573 223.346 383.759 223.443C383.945 223.54 384.11 223.672 384.245 223.833C384.38 223.994 384.482 224.18 384.544 224.38C384.607 224.58 384.629 224.791 384.61 225V225C384.592 225.209 384.534 225.413 384.437 225.6C384.341 225.787 384.208 225.953 384.048 226.089C383.887 226.224 383.701 226.327 383.501 226.39C383.3 226.454 383.089 226.478 382.88 226.46L372.2 225.52L371.27 236.2C371.251 236.41 371.191 236.613 371.094 236.8C370.996 236.986 370.862 237.151 370.701 237.286C370.539 237.421 370.352 237.522 370.152 237.585C369.951 237.647 369.739 237.669 369.53 237.65V237.65Z" fill="#F0F0F0"/>
<path d="M435.46 243.42C435.251 243.402 435.047 243.344 434.861 243.247C434.675 243.15 434.51 243.018 434.375 242.857C434.24 242.696 434.138 242.51 434.076 242.31C434.013 242.11 433.991 241.899 434.01 241.69L434.94 231.01L424.26 230.08C424.05 230.061 423.847 230.001 423.66 229.904C423.474 229.806 423.309 229.672 423.174 229.511C423.039 229.349 422.938 229.163 422.875 228.962C422.813 228.761 422.791 228.549 422.81 228.34V228.34C422.828 228.131 422.886 227.927 422.983 227.741C423.08 227.555 423.212 227.39 423.373 227.255C423.534 227.12 423.72 227.018 423.92 226.956C424.12 226.893 424.331 226.871 424.54 226.89L438.41 228.1L437.2 242C437.155 242.418 436.947 242.801 436.621 243.067C436.295 243.332 435.878 243.459 435.46 243.42Z" fill="#F0F0F0"/>
<path d="M430.55 318L416.68 316.79C416.47 316.771 416.267 316.711 416.08 316.614C415.894 316.516 415.729 316.382 415.594 316.221C415.459 316.059 415.358 315.873 415.295 315.672C415.233 315.471 415.211 315.259 415.23 315.05V315.05C415.248 314.841 415.306 314.637 415.403 314.451C415.5 314.265 415.632 314.1 415.793 313.965C415.954 313.83 416.14 313.728 416.34 313.666C416.54 313.603 416.751 313.581 416.96 313.6L427.64 314.53L428.57 303.86C428.588 303.65 428.647 303.445 428.744 303.257C428.841 303.07 428.974 302.903 429.136 302.768C429.298 302.632 429.485 302.53 429.686 302.467C429.888 302.403 430.1 302.381 430.31 302.4C430.519 302.418 430.723 302.476 430.909 302.573C431.095 302.67 431.26 302.802 431.395 302.963C431.53 303.124 431.632 303.31 431.694 303.51C431.757 303.71 431.779 303.921 431.76 304.13L430.55 318Z" fill="#F0F0F0"/>
<path d="M375.3 313.14L361.43 311.92L362.64 298.06C362.681 297.637 362.886 297.247 363.211 296.974C363.537 296.701 363.956 296.567 364.38 296.6V296.6C364.59 296.619 364.793 296.679 364.98 296.776C365.166 296.874 365.331 297.008 365.466 297.169C365.601 297.331 365.702 297.517 365.765 297.718C365.827 297.919 365.849 298.13 365.83 298.34L364.9 309L375.57 309.94C375.779 309.958 375.983 310.016 376.17 310.113C376.357 310.209 376.523 310.342 376.659 310.502C376.794 310.663 376.897 310.849 376.96 311.049C377.024 311.25 377.048 311.461 377.03 311.67C376.994 312.094 376.792 312.486 376.468 312.762C376.144 313.037 375.724 313.173 375.3 313.14V313.14Z" fill="#F0F0F0"/>
<path d="M74.73 283.13C74.4694 283.15 74.2115 283.066 74.0116 282.898C73.8116 282.73 73.6854 282.49 73.66 282.23L72.92 273.71L81.44 272.96C81.7006 272.94 81.9584 273.024 82.1584 273.192C82.3584 273.36 82.4846 273.6 82.51 273.86V273.86C82.5268 274.119 82.4423 274.374 82.2744 274.572C82.1064 274.77 81.8682 274.895 81.61 274.92L75.05 275.5L75.62 282.06C75.6397 282.319 75.5578 282.576 75.3917 282.775C75.2256 282.975 74.9883 283.102 74.73 283.13V283.13Z" fill="#E0E0E0"/>
<path d="M115.27 279.58C115.011 279.6 114.754 279.518 114.555 279.352C114.355 279.186 114.228 278.948 114.2 278.69L113.63 272.12L107.06 272.7C106.799 272.72 106.542 272.636 106.342 272.468C106.142 272.3 106.015 272.06 105.99 271.8V271.8C105.97 271.539 106.054 271.282 106.222 271.082C106.39 270.882 106.63 270.755 106.89 270.73L115.41 269.99L116.16 278.51C116.18 278.769 116.098 279.026 115.932 279.225C115.766 279.425 115.528 279.552 115.27 279.58V279.58Z" fill="#E0E0E0"/>
<path d="M119.47 316.29L110.94 317.04C110.679 317.06 110.422 316.976 110.222 316.808C110.022 316.64 109.895 316.4 109.87 316.14V316.14C109.85 315.879 109.934 315.622 110.102 315.422C110.27 315.222 110.51 315.095 110.77 315.07L117.33 314.5L116.76 307.94C116.74 307.681 116.822 307.424 116.988 307.225C117.154 307.025 117.392 306.898 117.65 306.87V306.87C117.909 306.85 118.166 306.932 118.365 307.098C118.565 307.264 118.692 307.502 118.72 307.76L119.47 316.29Z" fill="#E0E0E0"/>
<path d="M85.49 319.26L77 320L76.25 311.47C76.2332 311.211 76.3177 310.956 76.4856 310.758C76.6535 310.56 76.8918 310.435 77.15 310.41C77.4074 310.393 77.6613 310.476 77.8589 310.642C78.0564 310.808 78.1822 311.044 78.21 311.3L78.79 317.87L85.35 317.29C85.6106 317.27 85.8684 317.354 86.0684 317.522C86.2684 317.69 86.3946 317.93 86.42 318.19V318.19C86.4295 318.321 86.413 318.453 86.3714 318.578C86.3297 318.703 86.2638 318.819 86.1774 318.918C86.091 319.018 85.9857 319.099 85.8678 319.158C85.7498 319.216 85.6214 319.251 85.49 319.26V319.26Z" fill="#E0E0E0"/>
<path d="M114.58 141L82 143.8L81.33 136.17C81.281 132.528 82.6108 129.003 85.0525 126.301C87.4942 123.599 90.8674 121.92 94.4952 121.601C98.1231 121.283 101.737 122.347 104.613 124.582C107.489 126.816 109.413 130.056 110 133.65L110.38 138.09L115.09 137.68L114.7 133.24C114.481 130.736 113.77 128.299 112.609 126.069C111.448 123.84 109.86 121.86 107.934 120.245C106.008 118.629 103.782 117.408 101.385 116.653C98.9873 115.897 96.4643 115.621 93.96 115.84C88.9023 116.283 84.2277 118.717 80.9646 122.606C79.3489 124.532 78.1283 126.758 77.3725 129.155C76.6168 131.553 76.3407 134.076 76.56 136.58L77.23 144.26C75.3748 144.623 73.7194 145.659 72.5823 147.169C71.4451 148.679 70.9065 150.557 71.07 152.44L73.4 179.08C73.4831 180.085 73.764 181.065 74.2266 181.961C74.6892 182.858 75.3243 183.654 76.0955 184.305C76.8668 184.955 77.7589 185.447 78.7207 185.751C79.6824 186.056 80.6949 186.168 81.7 186.08L118.23 182.89C119.235 182.807 120.215 182.526 121.111 182.063C122.008 181.601 122.804 180.966 123.455 180.194C124.105 179.423 124.597 178.531 124.901 177.569C125.206 176.608 125.318 175.595 125.23 174.59L122.9 147.95C122.811 146.947 122.525 145.972 122.058 145.079C121.592 144.187 120.954 143.396 120.181 142.75C119.408 142.105 118.516 141.618 117.555 141.317C116.594 141.017 115.583 140.909 114.58 141V141ZM100.72 161.53L101.52 170.7C101.574 171.069 101.552 171.445 101.455 171.805C101.358 172.166 101.189 172.502 100.958 172.795C100.727 173.088 100.438 173.33 100.11 173.507C99.7815 173.684 99.4206 173.792 99.0491 173.825C98.6775 173.858 98.3032 173.814 97.9491 173.697C97.595 173.58 97.2684 173.392 96.9895 173.144C96.7106 172.897 96.4852 172.595 96.3271 172.257C96.169 171.919 96.0815 171.553 96.07 171.18L95.27 162C94.445 161.493 93.8009 160.739 93.4294 159.845C93.0579 158.951 92.9779 157.963 93.2008 157.021C93.4237 156.079 93.9382 155.231 94.671 154.598C95.4038 153.966 96.3174 153.58 97.282 153.497C98.2465 153.414 99.2127 153.637 100.043 154.135C100.873 154.633 101.525 155.38 101.906 156.27C102.287 157.16 102.377 158.148 102.165 159.092C101.952 160.036 101.446 160.89 100.72 161.53V161.53Z" fill="#EBEBEB"/>
<path d="M170.44 156.39L167.15 151C165.492 151.236 163.808 151.236 162.15 151L158.85 156.37L158.22 156.2C156.082 155.637 154.029 154.786 152.12 153.67L151.56 153.35L152.95 147.51C152.977 147.397 153.026 147.29 153.095 147.196C153.163 147.102 153.25 147.022 153.349 146.962C153.449 146.901 153.559 146.861 153.674 146.844C153.79 146.826 153.907 146.832 154.02 146.86C154.247 146.915 154.442 147.057 154.564 147.256C154.686 147.454 154.724 147.693 154.67 147.92L153.57 152.47C154.991 153.244 156.489 153.868 158.04 154.33L161.26 149.07L161.85 149.17C163.718 149.47 165.622 149.47 167.49 149.17L168.07 149.07L171.29 154.33C172.842 153.871 174.341 153.248 175.76 152.47L174.33 146.47L174.81 146.12C176.113 145.181 177.28 144.067 178.28 142.81C178.419 142.629 178.623 142.509 178.849 142.475C179.074 142.442 179.304 142.497 179.49 142.63C179.587 142.697 179.67 142.784 179.732 142.884C179.795 142.985 179.836 143.097 179.854 143.214C179.872 143.331 179.866 143.451 179.836 143.565C179.806 143.68 179.753 143.787 179.68 143.88C178.697 145.121 177.566 146.236 176.31 147.2L177.78 153.33L177.21 153.65C175.303 154.764 173.255 155.615 171.12 156.18L170.44 156.39ZM150.22 144.65C149.95 144.34 149.68 144.01 149.42 143.65L143.29 145.12L142.96 144.56C141.853 142.646 141.002 140.596 140.43 138.46L140.27 137.83L145.64 134.53C145.404 132.872 145.404 131.188 145.64 129.53L140.27 126.24L140.43 125.6C141.002 123.468 141.853 121.42 142.96 119.51L143.29 118.94L149.42 120.41C150.444 119.071 151.641 117.873 152.98 116.85L151.87 112.21C151.816 111.983 151.854 111.744 151.976 111.546C152.098 111.347 152.293 111.205 152.52 111.15V111.15C152.632 111.123 152.747 111.119 152.861 111.137C152.974 111.155 153.083 111.196 153.18 111.256C153.278 111.317 153.363 111.396 153.43 111.489C153.496 111.583 153.544 111.688 153.57 111.8L154.96 117.58L154.48 117.92C152.939 119.029 151.589 120.379 150.48 121.92L150.13 122.4L144.13 120.97C143.352 122.389 142.729 123.888 142.27 125.44L147.52 128.66L147.43 129.24C147.096 131.105 147.096 133.015 147.43 134.88L147.52 135.47L142.27 138.69C142.731 140.238 143.354 141.733 144.13 143.15L150.13 141.72L150.48 142.2C150.791 142.653 151.125 143.091 151.48 143.51C151.634 143.672 151.72 143.887 151.72 144.11C151.72 144.333 151.634 144.548 151.48 144.71V144.71C151.395 144.792 151.294 144.855 151.183 144.896C151.073 144.938 150.955 144.956 150.837 144.95C150.719 144.945 150.604 144.915 150.498 144.864C150.392 144.812 150.297 144.739 150.22 144.65V144.65ZM185.96 145.14L183.7 144.6C183.473 144.545 183.278 144.403 183.156 144.204C183.034 144.006 182.996 143.767 183.05 143.54V143.54C183.105 143.313 183.247 143.118 183.446 142.996C183.644 142.874 183.883 142.836 184.11 142.89L185.11 143.12C185.883 141.703 186.503 140.208 186.96 138.66L181.71 135.44L181.81 134.85C182.144 132.985 182.144 131.075 181.81 129.21L181.71 128.63L186.96 125.41C186.505 123.858 185.884 122.36 185.11 120.94L179.11 122.37L178.77 121.89C177.659 120.352 176.308 119.001 174.77 117.89L174.29 117.55L175.72 111.55C174.3 110.776 172.802 110.155 171.25 109.7L168 115L167.42 114.9C165.552 114.6 163.648 114.6 161.78 114.9L161.19 115L158 109.72L157.4 109.9C157.186 109.97 156.954 109.954 156.752 109.855C156.55 109.756 156.395 109.582 156.32 109.37V109.37C156.279 109.26 156.26 109.144 156.264 109.027C156.268 108.91 156.296 108.795 156.345 108.689C156.395 108.582 156.465 108.487 156.552 108.408C156.638 108.33 156.74 108.269 156.85 108.23C157.29 108.09 157.74 107.96 158.18 107.84L158.81 107.67L162.11 113.05C163.768 112.804 165.452 112.804 167.11 113.05L170.4 107.67L171.04 107.84C173.173 108.41 175.221 109.26 177.13 110.37L177.7 110.7L176.23 116.83C177.571 117.851 178.769 119.049 179.79 120.39L185.92 118.92L186.25 119.49C187.361 121.398 188.212 123.446 188.78 125.58L188.95 126.22L183.57 129.51C183.819 131.167 183.819 132.853 183.57 134.51L188.95 137.81L188.78 138.44C188.212 140.577 187.361 142.628 186.25 144.54L185.96 145.14ZM164.38 140.6C162.201 140.514 160.135 139.609 158.593 138.067C157.051 136.525 156.146 134.459 156.06 132.28C156.001 130.137 156.746 128.049 158.148 126.428C159.551 124.806 161.511 123.769 163.64 123.52C163.765 123.504 163.892 123.516 164.012 123.553C164.132 123.59 164.243 123.652 164.338 123.735C164.432 123.818 164.508 123.92 164.56 124.035C164.612 124.15 164.64 124.274 164.64 124.4V124.4C164.639 124.613 164.56 124.818 164.418 124.976C164.276 125.135 164.081 125.236 163.87 125.26C162.388 125.429 161.003 126.08 159.927 127.112C158.85 128.145 158.143 129.502 157.913 130.976C157.683 132.45 157.943 133.958 158.654 135.27C159.364 136.581 160.485 137.623 161.845 138.235C163.205 138.848 164.728 138.997 166.181 138.66C167.634 138.323 168.936 137.518 169.887 136.369C170.838 135.22 171.386 133.791 171.446 132.301C171.506 130.81 171.076 129.342 170.22 128.12C170.097 127.947 170.042 127.734 170.068 127.523C170.094 127.312 170.198 127.118 170.36 126.98C170.453 126.897 170.563 126.835 170.682 126.798C170.802 126.761 170.927 126.749 171.051 126.764C171.175 126.78 171.294 126.821 171.401 126.886C171.508 126.95 171.599 127.037 171.67 127.14C172.58 128.441 173.109 129.97 173.2 131.555C173.291 133.141 172.939 134.72 172.183 136.116C171.428 137.513 170.299 138.672 168.923 139.464C167.546 140.256 165.977 140.649 164.39 140.6H164.38Z" fill="#F0F0F0"/>
<path d="M108.31 229.59L106.18 226.12C105.103 226.28 104.007 226.28 102.93 226.12L100.8 229.59L100.39 229.48C99.0095 229.116 97.6843 228.568 96.45 227.85L96.09 227.64L96.99 223.86C97.0256 223.715 97.1169 223.589 97.2441 223.511C97.3713 223.432 97.5242 223.407 97.67 223.44C97.743 223.458 97.8117 223.489 97.8724 223.534C97.933 223.578 97.9843 223.634 98.0233 223.698C98.0624 223.762 98.0883 223.833 98.0998 223.907C98.1112 223.981 98.1079 224.057 98.09 224.13L97.39 227.07C98.3075 227.573 99.2764 227.975 100.28 228.27L102.36 224.88L102.73 224.94C103.938 225.14 105.172 225.14 106.38 224.94L106.75 224.88L108.84 228.27C109.838 227.969 110.803 227.567 111.72 227.07L110.8 223.21L111.11 222.98C111.951 222.376 112.704 221.659 113.35 220.85C113.438 220.731 113.569 220.652 113.715 220.629C113.861 220.607 114.01 220.643 114.13 220.73V220.73C114.191 220.774 114.244 220.829 114.283 220.893C114.323 220.957 114.35 221.028 114.362 221.103C114.374 221.177 114.371 221.253 114.354 221.327C114.336 221.4 114.304 221.469 114.26 221.53C113.623 222.332 112.891 223.054 112.08 223.68L113.08 227.68L112.71 227.89C111.477 228.609 110.151 229.158 108.77 229.52L108.31 229.59ZM95.25 222L94.73 221.37L90.73 222.31L90.52 221.95C89.8155 220.71 89.2807 219.382 88.93 218L88.82 217.59L92.29 215.46C92.13 214.383 92.13 213.287 92.29 212.21L88.82 210.08L88.93 209.67C89.2925 208.289 89.8408 206.963 90.56 205.73L90.77 205.36L94.77 206.36C95.4132 205.484 96.1622 204.692 97 204L96.29 201C96.2722 200.928 96.269 200.853 96.2806 200.779C96.2921 200.706 96.3182 200.635 96.3573 200.572C96.3964 200.509 96.4478 200.454 96.5083 200.41C96.5689 200.367 96.6374 200.336 96.71 200.32V200.32C96.8558 200.287 97.0088 200.312 97.136 200.391C97.2632 200.469 97.3544 200.595 97.39 200.74L98.29 204.47L97.97 204.7C96.979 205.411 96.1109 206.279 95.4 207.27L95.17 207.58L91.31 206.66C90.8134 207.577 90.4113 208.542 90.11 209.54L93.5 211.62L93.44 212C93.3369 212.601 93.2834 213.21 93.28 213.82C93.2833 214.433 93.3368 215.045 93.44 215.65L93.5 216.02L90.11 218.1C90.4095 219.102 90.8116 220.071 91.31 220.99L95.17 220.06L95.4 220.37C95.6066 220.666 95.8303 220.95 96.07 221.22C96.1685 221.324 96.2233 221.462 96.2233 221.605C96.2233 221.748 96.1685 221.886 96.07 221.99C96.0183 222.047 95.9554 222.093 95.8852 222.124C95.815 222.156 95.7391 222.173 95.6622 222.174C95.5852 222.175 95.5089 222.16 95.438 222.13C95.3671 222.1 95.3031 222.056 95.25 222V222ZM118.34 222.31L116.88 221.97C116.807 221.952 116.738 221.921 116.678 221.876C116.617 221.832 116.566 221.776 116.527 221.712C116.488 221.648 116.462 221.577 116.45 221.503C116.439 221.429 116.442 221.353 116.46 221.28V221.28C116.476 221.207 116.507 221.139 116.55 221.078C116.594 221.018 116.649 220.966 116.712 220.927C116.775 220.888 116.846 220.862 116.919 220.851C116.993 220.839 117.068 220.842 117.14 220.86L117.77 221.01C118.273 220.093 118.675 219.124 118.97 218.12L115.58 216.04L115.64 215.67C115.743 215.065 115.797 214.453 115.8 213.84C115.797 213.23 115.743 212.621 115.64 212.02L115.58 211.64L118.97 209.56C118.673 208.56 118.271 207.595 117.77 206.68L113.91 207.6L113.68 207.29C112.969 206.299 112.101 205.431 111.11 204.72L110.8 204.49L111.72 200.63C110.805 200.129 109.84 199.727 108.84 199.43L106.75 202.82L106.38 202.76C105.172 202.56 103.938 202.56 102.73 202.76L102.36 202.82L100.28 199.43L99.89 199.55C99.7507 199.595 99.5995 199.583 99.4687 199.518C99.3379 199.452 99.2379 199.338 99.19 199.2C99.1631 199.13 99.1505 199.055 99.1532 198.98C99.1558 198.905 99.1735 198.831 99.2052 198.763C99.2369 198.695 99.282 198.634 99.3378 198.583C99.3936 198.533 99.459 198.495 99.53 198.47L100.39 198.21L100.8 198.11L102.93 201.58C104.007 201.42 105.103 201.42 106.18 201.58L108.31 198.11L108.72 198.21C110.1 198.58 111.425 199.132 112.66 199.85L113.03 200.06L112.03 204.06C112.891 204.726 113.664 205.499 114.33 206.36L118.33 205.36L118.54 205.73C119.259 206.963 119.808 208.289 120.17 209.67L120.28 210.08L116.81 212.21C116.97 213.287 116.97 214.383 116.81 215.46L120.28 217.59L120.17 218C119.806 219.38 119.258 220.706 118.54 221.94L118.34 222.31ZM104.4 219.38C103.041 219.287 101.764 218.696 100.813 217.721C99.8623 216.746 99.3037 215.455 99.2444 214.094C99.185 212.734 99.6289 211.399 100.491 210.345C101.354 209.291 102.574 208.591 103.92 208.38C104 208.372 104.081 208.38 104.158 208.405C104.235 208.43 104.306 208.47 104.366 208.524C104.426 208.577 104.474 208.643 104.508 208.716C104.541 208.79 104.559 208.869 104.56 208.95C104.561 209.089 104.51 209.223 104.418 209.326C104.325 209.43 104.198 209.495 104.06 209.51C103.217 209.606 102.419 209.945 101.764 210.484C101.108 211.024 100.623 211.742 100.366 212.551C100.109 213.36 100.092 214.226 100.317 215.045C100.541 215.864 100.998 216.6 101.631 217.165C102.265 217.73 103.049 218.1 103.888 218.23C104.727 218.36 105.585 218.244 106.36 217.897C107.135 217.549 107.792 216.985 108.254 216.273C108.715 215.56 108.96 214.729 108.96 213.88C108.962 212.977 108.682 212.096 108.16 211.36C108.084 211.246 108.051 211.109 108.067 210.973C108.084 210.837 108.149 210.712 108.25 210.62V210.62C108.31 210.566 108.381 210.525 108.458 210.501C108.536 210.476 108.617 210.468 108.698 210.478C108.778 210.487 108.856 210.514 108.925 210.556C108.994 210.597 109.054 210.653 109.1 210.72C109.685 211.561 110.025 212.549 110.082 213.572C110.14 214.595 109.912 215.614 109.425 216.515C108.938 217.417 108.211 218.166 107.324 218.678C106.436 219.191 105.424 219.448 104.4 219.42V219.38Z" fill="#E6E6E6"/>
<path d="M250 427.01C357.082 427.01 443.89 421.942 443.89 415.69C443.89 409.438 357.082 404.37 250 404.37C142.918 404.37 56.11 409.438 56.11 415.69C56.11 421.942 142.918 427.01 250 427.01Z" fill="#F5F5F5"/>
<path d="M363.45 145.83H330.89L307.89 409.08H340.45C345.02 408.992 349.4 407.235 352.763 404.14C356.127 401.045 358.242 396.827 358.71 392.28L378.8 162.62C379.033 160.48 378.808 158.315 378.139 156.269C377.47 154.223 376.373 152.343 374.921 150.755C373.468 149.166 371.694 147.905 369.716 147.056C367.738 146.207 365.602 145.789 363.45 145.83V145.83Z" fill="#FF461E"/>
<path d="M356.81 145.83H246.61C242.04 145.916 237.659 147.67 234.294 150.763C230.928 153.856 228.81 158.073 228.34 162.62L208.25 392.28C208.019 394.418 208.245 396.581 208.913 398.626C209.581 400.67 210.676 402.549 212.126 404.137C213.576 405.726 215.347 406.988 217.321 407.84C219.296 408.693 221.43 409.115 223.58 409.08H333.77C338.334 408.982 342.705 407.221 346.062 404.128C349.419 401.034 351.531 396.821 352 392.28L372.09 162.62C372.323 160.486 372.099 158.327 371.434 156.286C370.77 154.245 369.679 152.369 368.234 150.781C366.789 149.194 365.024 147.932 363.054 147.078C361.085 146.224 358.956 145.799 356.81 145.83V145.83Z" fill="#FF461E"/>
<path opacity="0.3" d="M356.81 145.83H246.61C242.04 145.916 237.659 147.67 234.294 150.763C230.928 153.856 228.81 158.073 228.34 162.62L208.25 392.28C208.019 394.418 208.245 396.581 208.913 398.626C209.581 400.67 210.676 402.549 212.126 404.137C213.576 405.726 215.347 406.988 217.321 407.84C219.296 408.693 221.43 409.115 223.58 409.08H333.77C338.334 408.982 342.705 407.221 346.062 404.128C349.419 401.034 351.531 396.821 352 392.28L372.09 162.62C372.323 160.486 372.099 158.327 371.434 156.286C370.77 154.245 369.679 152.369 368.234 150.781C366.789 149.194 365.024 147.932 363.054 147.078C361.085 146.224 358.956 145.799 356.81 145.83V145.83Z" fill="white"/>
<path opacity="0.4" d="M356.34 151.21H327.28C326.414 151.217 325.569 151.484 324.856 151.976C324.143 152.468 323.594 153.163 323.28 153.97V153.97C322.134 156.936 320.13 159.493 317.524 161.315C314.919 163.137 311.829 164.141 308.65 164.2H291.51C288.516 164.26 285.595 163.275 283.249 161.413C280.904 159.551 279.281 156.93 278.66 154V154C278.494 153.207 278.057 152.498 277.423 151.994C276.79 151.489 276 151.223 275.19 151.24H246.14C243.034 151.295 240.056 152.486 237.769 154.589C235.482 156.692 234.045 159.559 233.73 162.65L213.63 392.31C213.469 393.764 213.62 395.236 214.073 396.627C214.526 398.018 215.27 399.297 216.256 400.378C217.242 401.458 218.448 402.316 219.792 402.894C221.135 403.472 222.587 403.757 224.05 403.73H334.25C337.357 403.673 340.335 402.479 342.622 400.375C344.909 398.271 346.345 395.402 346.66 392.31L366.75 162.65C366.914 161.195 366.765 159.722 366.314 158.329C365.864 156.936 365.121 155.656 364.135 154.573C363.15 153.49 361.945 152.63 360.601 152.05C359.256 151.47 357.804 151.184 356.34 151.21V151.21Z" fill="white"/>
<path d="M328.88 276H251.76C251.23 276.009 250.704 275.905 250.217 275.695C249.731 275.485 249.294 275.174 248.937 274.782C248.579 274.391 248.309 273.928 248.144 273.424C247.979 272.92 247.923 272.387 247.98 271.86L248.37 267.44C248.485 266.319 249.006 265.279 249.835 264.517C250.664 263.754 251.744 263.321 252.87 263.3H330C330.53 263.291 331.056 263.395 331.543 263.605C332.029 263.815 332.466 264.126 332.823 264.518C333.181 264.909 333.451 265.372 333.616 265.876C333.781 266.38 333.837 266.913 333.78 267.44L333.4 271.86C333.283 272.983 332.758 274.025 331.925 274.787C331.093 275.55 330.009 275.982 328.88 276Z" fill="white"/>
<path d="M327.22 295H250.09C249.56 295.009 249.035 294.905 248.549 294.695C248.062 294.485 247.626 294.174 247.269 293.782C246.913 293.39 246.644 292.927 246.48 292.423C246.316 291.919 246.262 291.387 246.32 290.86L246.7 286.44C246.817 285.32 247.338 284.281 248.167 283.519C248.996 282.757 250.074 282.323 251.2 282.3H328.33C328.86 282.291 329.386 282.395 329.873 282.605C330.359 282.815 330.796 283.126 331.153 283.518C331.511 283.909 331.781 284.372 331.946 284.876C332.111 285.38 332.167 285.913 332.11 286.44L331.72 290.86C331.603 291.98 331.082 293.019 330.253 293.781C329.424 294.543 328.346 294.977 327.22 295Z" fill="white"/>
<path opacity="0.1" d="M305.45 155.51C305.323 156.754 304.744 157.909 303.822 158.755C302.901 159.601 301.701 160.08 300.45 160.1C299.862 160.111 299.279 159.996 298.739 159.763C298.199 159.531 297.714 159.186 297.318 158.752C296.921 158.318 296.622 157.804 296.44 157.245C296.257 156.686 296.196 156.094 296.26 155.51C296.387 154.266 296.966 153.111 297.888 152.265C298.809 151.419 300.009 150.94 301.26 150.92C301.848 150.909 302.431 151.024 302.971 151.257C303.511 151.489 303.996 151.834 304.392 152.268C304.789 152.702 305.088 153.216 305.27 153.775C305.453 154.334 305.514 154.926 305.45 155.51V155.51Z" fill="black"/>
<path opacity="0.1" d="M303.37 155.51C303.299 156.189 302.983 156.819 302.48 157.282C301.977 157.744 301.323 158.007 300.64 158.02C300.318 158.026 299.999 157.964 299.704 157.837C299.408 157.71 299.143 157.521 298.927 157.284C298.71 157.046 298.546 156.765 298.447 156.459C298.347 156.153 298.314 155.83 298.35 155.51C298.419 154.83 298.734 154.198 299.238 153.736C299.741 153.273 300.396 153.011 301.08 153C301.401 152.995 301.72 153.059 302.014 153.186C302.309 153.314 302.573 153.503 302.79 153.74C303.006 153.977 303.17 154.257 303.27 154.563C303.37 154.868 303.404 155.191 303.37 155.51Z" fill="black"/>
<g opacity="0.8">
<path d="M342.77 163.17C342.597 163.172 342.426 163.138 342.268 163.07C342.11 163.001 341.968 162.899 341.851 162.772C341.735 162.644 341.647 162.493 341.594 162.329C341.54 162.165 341.522 161.992 341.54 161.82L341.76 159.36C341.797 158.996 341.966 158.659 342.235 158.412C342.504 158.165 342.855 158.026 343.22 158.02C343.392 158.018 343.562 158.052 343.72 158.12C343.877 158.188 344.019 158.288 344.135 158.415C344.251 158.541 344.339 158.691 344.393 158.854C344.448 159.017 344.467 159.189 344.45 159.36L344.23 161.82C344.193 162.184 344.025 162.523 343.756 162.772C343.487 163.02 343.136 163.162 342.77 163.17Z" fill="white"/>
<path d="M353.53 163.17C353.357 163.172 353.186 163.138 353.028 163.07C352.87 163.001 352.728 162.899 352.611 162.772C352.495 162.644 352.407 162.493 352.354 162.329C352.3 162.165 352.282 161.992 352.3 161.82L352.81 156.05C352.847 155.686 353.016 155.349 353.285 155.102C353.554 154.855 353.905 154.716 354.27 154.71C354.442 154.708 354.612 154.742 354.77 154.81C354.927 154.878 355.069 154.978 355.185 155.105C355.301 155.231 355.389 155.381 355.443 155.544C355.498 155.707 355.517 155.879 355.5 156.05L354.99 161.82C354.954 162.184 354.785 162.523 354.516 162.772C354.247 163.02 353.896 163.162 353.53 163.17Z" fill="white"/>
<path d="M348.15 163.17C347.977 163.172 347.806 163.138 347.648 163.07C347.49 163.001 347.348 162.899 347.231 162.772C347.115 162.644 347.027 162.493 346.973 162.329C346.92 162.165 346.902 161.992 346.92 161.82L347.28 157.71C347.317 157.344 347.487 157.004 347.758 156.755C348.029 156.506 348.382 156.366 348.75 156.36V156.36C348.922 156.357 349.093 156.392 349.251 156.46C349.409 156.529 349.55 156.631 349.666 156.759C349.781 156.886 349.868 157.037 349.921 157.201C349.973 157.366 349.99 157.539 349.97 157.71L349.61 161.82C349.573 162.184 349.405 162.523 349.136 162.772C348.867 163.02 348.516 163.162 348.15 163.17V163.17Z" fill="white"/>
</g>
<g opacity="0.8">
<path d="M250.64 163.17H243.88C243.783 163.172 243.686 163.153 243.597 163.115C243.507 163.076 243.427 163.019 243.362 162.947C243.296 162.875 243.247 162.79 243.218 162.697C243.188 162.605 243.179 162.507 243.19 162.41L243.5 158.78C243.522 158.574 243.618 158.383 243.771 158.243C243.924 158.103 244.123 158.024 244.33 158.02H251.09C251.187 158.018 251.284 158.037 251.373 158.075C251.463 158.114 251.543 158.171 251.608 158.243C251.674 158.315 251.723 158.4 251.752 158.493C251.782 158.585 251.791 158.683 251.78 158.78L251.46 162.41C251.443 162.616 251.349 162.808 251.197 162.949C251.045 163.089 250.847 163.168 250.64 163.17V163.17Z" fill="white"/>
<path d="M253.77 162.18C253.672 162.182 253.575 162.163 253.486 162.125C253.396 162.086 253.315 162.029 253.249 161.958C253.183 161.886 253.133 161.801 253.102 161.708C253.071 161.615 253.06 161.517 253.07 161.42L253.22 159.76C253.24 159.553 253.336 159.361 253.489 159.22C253.642 159.08 253.842 159.002 254.05 159V159C254.147 158.998 254.244 159.017 254.333 159.055C254.423 159.094 254.503 159.151 254.568 159.223C254.634 159.295 254.683 159.38 254.712 159.473C254.742 159.565 254.751 159.663 254.74 159.76L254.6 161.42C254.578 161.626 254.482 161.817 254.329 161.957C254.176 162.097 253.977 162.176 253.77 162.18V162.18Z" fill="white"/>
</g>
<path d="M316.172 246.931C329.629 234.049 330.971 213.612 319.17 201.285C307.369 188.957 286.894 189.407 273.437 202.289C259.98 215.17 258.638 235.607 270.439 247.934C282.24 260.262 302.716 259.813 316.172 246.931Z" fill="white"/>
<path d="M294.92 223.38C286.44 223.38 279.27 226.61 278.66 233.62L277.98 241.41H308.71L309.39 233.62C310 226.61 303.41 223.38 294.92 223.38Z" fill="#FF461E"/>
<path d="M295.2 220.17C299.14 220.17 300.96 216.98 301.3 213.04C301.64 209.1 300.39 205.91 296.45 205.91C292.51 205.91 290.7 209.11 290.35 213.04C290 216.97 291.26 220.17 295.2 220.17Z" fill="#FF461E"/>
<path d="M325.36 269.38C323.27 269.38 321.5 270.18 321.36 271.91L321.19 273.84H328.78L328.95 271.91C329.09 270.18 327.46 269.38 325.36 269.38Z" fill="#FF461E"/>
<path d="M325.43 268.59C326.43 268.59 326.85 267.8 326.94 266.83C327.03 265.86 326.71 265.07 325.74 265.07C324.77 265.07 324.32 265.86 324.23 266.83C324.14 267.8 324.46 268.59 325.43 268.59Z" fill="#FF461E"/>
<path d="M302 314H272C271.187 314.015 270.379 313.856 269.632 313.535C268.884 313.213 268.214 312.736 267.665 312.135C267.117 311.535 266.702 310.824 266.45 310.051C266.197 309.277 266.112 308.459 266.2 307.65C266.378 305.93 267.179 304.335 268.452 303.166C269.725 301.996 271.382 301.332 273.11 301.3H303.11C303.923 301.287 304.73 301.447 305.476 301.769C306.223 302.091 306.892 302.568 307.441 303.168C307.989 303.769 308.404 304.479 308.657 305.251C308.91 306.024 308.997 306.842 308.91 307.65V307.65C308.734 309.37 307.934 310.967 306.66 312.137C305.387 313.307 303.729 313.97 302 314V314Z" fill="#FF461E"/>
<path d="M298.37 384.82H266.26C265.399 384.843 264.542 384.681 263.749 384.344C262.956 384.006 262.245 383.502 261.665 382.865C261.084 382.229 260.647 381.474 260.384 380.654C260.121 379.833 260.038 378.966 260.14 378.11L262.19 354.69C262.373 352.873 263.217 351.187 264.56 349.95C265.904 348.713 267.654 348.012 269.48 347.98H301.6C302.459 347.965 303.312 348.133 304.101 348.473C304.89 348.813 305.597 349.317 306.176 349.952C306.755 350.587 307.192 351.338 307.459 352.155C307.725 352.972 307.814 353.836 307.72 354.69L305.67 378.11C305.482 379.927 304.636 381.612 303.292 382.848C301.947 384.084 300.196 384.786 298.37 384.82Z" fill="#FF461E"/>
<g opacity="0.6">
<path d="M288.47 360.6C288.522 360.089 288.466 359.573 288.304 359.085C288.142 358.597 287.878 358.15 287.53 357.772C287.183 357.394 286.758 357.094 286.286 356.892C285.814 356.69 285.304 356.59 284.79 356.6C283.696 356.616 282.646 357.031 281.837 357.768C281.028 358.505 280.517 359.512 280.4 360.6C280.336 361.208 280.427 361.823 280.663 362.387C280.898 362.952 281.272 363.448 281.75 363.83L281.05 371.9C281.016 372.206 281.047 372.515 281.142 372.808C281.237 373.1 281.394 373.369 281.601 373.596C281.808 373.824 282.062 374.004 282.344 374.125C282.627 374.247 282.932 374.306 283.24 374.3C283.892 374.286 284.516 374.035 284.995 373.593C285.474 373.15 285.774 372.548 285.84 371.9L286.55 363.83C287.086 363.464 287.535 362.985 287.867 362.427C288.198 361.869 288.404 361.246 288.47 360.6V360.6Z" fill="white"/>
</g>
<path d="M301.88 352.86H297.74L298.74 341.27C298.915 339.661 298.745 338.034 298.243 336.496C297.74 334.958 296.917 333.544 295.826 332.349C294.736 331.154 293.404 330.204 291.918 329.563C290.433 328.921 288.828 328.604 287.21 328.63C283.772 328.697 280.477 330.02 277.946 332.348C275.415 334.676 273.823 337.849 273.47 341.27L272.47 352.86H268.33L269.33 341.27C269.796 336.73 271.907 332.518 275.266 329.429C278.624 326.339 282.997 324.586 287.56 324.5C289.707 324.463 291.838 324.884 293.81 325.734C295.783 326.584 297.551 327.844 298.999 329.43C300.448 331.016 301.542 332.892 302.209 334.934C302.876 336.975 303.102 339.135 302.87 341.27L301.88 352.86Z" fill="#FF461E"/>
<path d="M325.87 287.13L326 286C326.027 285.738 325.998 285.474 325.915 285.224C325.833 284.974 325.698 284.744 325.521 284.549C325.343 284.355 325.127 284.2 324.886 284.095C324.644 283.99 324.383 283.937 324.12 283.94C323.56 283.952 323.023 284.167 322.611 284.547C322.198 284.926 321.938 285.443 321.88 286L321.78 287.11C321.556 287.116 321.342 287.204 321.178 287.357C321.014 287.51 320.912 287.717 320.89 287.94L320.63 290.94C320.617 291.045 320.627 291.151 320.659 291.252C320.691 291.353 320.744 291.445 320.816 291.523C320.887 291.601 320.974 291.663 321.072 291.704C321.169 291.744 321.274 291.764 321.38 291.76H325.5C325.723 291.756 325.937 291.671 326.101 291.519C326.265 291.368 326.368 291.162 326.39 290.94L326.65 287.94C326.659 287.834 326.645 287.727 326.609 287.627C326.573 287.527 326.516 287.436 326.443 287.359C326.369 287.282 326.28 287.222 326.181 287.183C326.082 287.143 325.976 287.125 325.87 287.13V287.13ZM324 284.47C324.198 284.468 324.395 284.507 324.577 284.586C324.759 284.665 324.923 284.781 325.057 284.927C325.191 285.074 325.292 285.247 325.355 285.435C325.418 285.623 325.44 285.823 325.42 286.02L325.32 287.13H322.22L322.32 286.02C322.364 285.602 322.558 285.213 322.868 284.928C323.177 284.643 323.579 284.48 324 284.47V284.47Z" fill="#FF461E"/>
<path d="M263.85 288.32L262.41 288.02C262.37 288.012 262.332 287.995 262.3 287.97C262.267 287.945 262.241 287.913 262.223 287.876C262.204 287.84 262.195 287.799 262.194 287.758C262.194 287.717 262.203 287.677 262.22 287.64L262.82 286.22C262.845 286.159 262.847 286.09 262.827 286.028C262.806 285.965 262.764 285.911 262.708 285.876C262.651 285.841 262.584 285.828 262.519 285.838C262.454 285.847 262.394 285.88 262.35 285.93L261.26 287.05C261.234 287.083 261.2 287.11 261.162 287.129C261.124 287.147 261.082 287.157 261.04 287.157C260.998 287.157 260.956 287.147 260.918 287.129C260.88 287.11 260.846 287.083 260.82 287.05L259.93 285.93C259.74 285.69 259.33 285.93 259.4 286.22L259.75 287.64C259.76 287.681 259.762 287.725 259.755 287.767C259.747 287.809 259.731 287.849 259.708 287.885C259.685 287.92 259.654 287.951 259.618 287.974C259.582 287.997 259.542 288.013 259.5 288.02L258.01 288.32C257.69 288.38 257.65 288.83 257.96 288.89L259.4 289.19C259.44 289.198 259.478 289.215 259.511 289.24C259.543 289.265 259.569 289.297 259.587 289.334C259.604 289.371 259.613 289.412 259.612 289.453C259.611 289.494 259.6 289.534 259.58 289.57L259 291C258.975 291.061 258.973 291.13 258.993 291.192C259.014 291.255 259.056 291.309 259.112 291.344C259.169 291.379 259.236 291.392 259.301 291.382C259.367 291.373 259.426 291.34 259.47 291.29L260.56 290.17C260.588 290.14 260.622 290.116 260.66 290.099C260.698 290.082 260.739 290.074 260.78 290.074C260.821 290.074 260.862 290.082 260.9 290.099C260.938 290.116 260.972 290.14 261 290.17L261.89 291.29C262.08 291.53 262.49 291.29 262.41 291L262.06 289.58C262.045 289.495 262.064 289.408 262.113 289.337C262.161 289.266 262.236 289.217 262.32 289.2L263.81 288.9C264.12 288.83 264.16 288.38 263.85 288.32Z" fill="#263238"/>
<path d="M273.31 288.32L271.87 288.02C271.83 288.012 271.792 287.995 271.76 287.97C271.727 287.945 271.701 287.913 271.683 287.876C271.664 287.84 271.655 287.799 271.654 287.758C271.654 287.717 271.662 287.677 271.68 287.64L272.28 286.22C272.305 286.159 272.307 286.09 272.287 286.028C272.266 285.965 272.224 285.911 272.168 285.876C272.111 285.841 272.044 285.828 271.979 285.838C271.913 285.847 271.854 285.88 271.81 285.93L270.72 287.05C270.694 287.083 270.66 287.11 270.622 287.129C270.584 287.147 270.542 287.157 270.5 287.157C270.458 287.157 270.416 287.147 270.378 287.129C270.34 287.11 270.306 287.083 270.28 287.05L269.39 285.93C269.2 285.69 268.79 285.93 268.87 286.22L269.22 287.64C269.229 287.682 269.229 287.725 269.22 287.768C269.212 287.81 269.195 287.85 269.171 287.885C269.146 287.921 269.115 287.951 269.079 287.974C269.043 287.997 269.002 288.013 268.96 288.02L267.47 288.32C267.15 288.38 267.11 288.83 267.42 288.89L268.86 289.19C268.9 289.198 268.938 289.215 268.97 289.24C269.003 289.265 269.029 289.297 269.047 289.334C269.066 289.37 269.075 289.411 269.076 289.452C269.076 289.493 269.067 289.533 269.05 289.57L268.45 290.99C268.425 291.051 268.423 291.12 268.443 291.182C268.464 291.245 268.506 291.299 268.562 291.334C268.619 291.369 268.686 291.382 268.751 291.372C268.816 291.363 268.876 291.33 268.92 291.28L270.01 290.16C270.038 290.13 270.072 290.106 270.11 290.089C270.148 290.072 270.189 290.064 270.23 290.064C270.271 290.064 270.312 290.072 270.35 290.089C270.388 290.106 270.422 290.13 270.45 290.16L271.34 291.28C271.53 291.52 271.94 291.28 271.87 290.99L271.52 289.57C271.511 289.529 271.511 289.486 271.519 289.444C271.526 289.403 271.542 289.363 271.566 289.328C271.589 289.292 271.619 289.262 271.654 289.238C271.689 289.215 271.729 289.198 271.77 289.19L273.26 288.89C273.58 288.83 273.62 288.38 273.31 288.32Z" fill="#263238"/>
<path d="M282.77 288.32L281.34 288.02C281.299 288.014 281.26 287.998 281.226 287.973C281.192 287.949 281.165 287.916 281.147 287.879C281.128 287.842 281.119 287.801 281.119 287.759C281.12 287.718 281.13 287.677 281.15 287.64L281.75 286.22C281.788 286.156 281.8 286.08 281.782 286.008C281.764 285.936 281.719 285.873 281.655 285.835C281.591 285.797 281.515 285.785 281.443 285.803C281.371 285.821 281.308 285.866 281.27 285.93L280.19 287.05C280.163 287.083 280.128 287.11 280.09 287.129C280.051 287.147 280.008 287.157 279.965 287.157C279.922 287.157 279.879 287.147 279.84 287.129C279.801 287.11 279.767 287.083 279.74 287.05L278.85 285.93C278.66 285.69 278.25 285.93 278.33 286.22L278.68 287.64C278.689 287.681 278.689 287.724 278.681 287.766C278.674 287.807 278.658 287.847 278.634 287.882C278.611 287.917 278.581 287.948 278.546 287.972C278.511 287.995 278.471 288.012 278.43 288.02L276.94 288.32C276.62 288.38 276.58 288.83 276.89 288.89L278.32 289.19C278.36 289.198 278.398 289.215 278.43 289.24C278.463 289.265 278.489 289.297 278.507 289.334C278.526 289.37 278.535 289.411 278.536 289.452C278.536 289.493 278.528 289.533 278.51 289.57L277.91 290.99C277.872 291.054 277.86 291.13 277.878 291.202C277.896 291.274 277.941 291.337 278.005 291.375C278.069 291.413 278.145 291.425 278.217 291.407C278.289 291.389 278.352 291.344 278.39 291.28L279.47 290.16C279.498 290.13 279.532 290.106 279.57 290.089C279.608 290.072 279.649 290.064 279.69 290.064C279.731 290.064 279.772 290.072 279.81 290.089C279.848 290.106 279.882 290.13 279.91 290.16L280.81 291.28C281 291.52 281.41 291.28 281.33 290.99L280.98 289.57C280.965 289.487 280.983 289.401 281.029 289.33C281.076 289.259 281.148 289.209 281.23 289.19L282.72 288.89C283 288.83 283.08 288.38 282.77 288.32Z" fill="#263238"/>
<path d="M292.24 288.32L290.8 288.02C290.76 288.012 290.722 287.995 290.69 287.97C290.657 287.945 290.631 287.913 290.613 287.876C290.594 287.84 290.585 287.799 290.584 287.758C290.584 287.717 290.592 287.677 290.61 287.64L291.21 286.22C291.235 286.159 291.237 286.09 291.217 286.028C291.196 285.965 291.154 285.911 291.098 285.876C291.041 285.841 290.974 285.828 290.909 285.838C290.844 285.847 290.784 285.88 290.74 285.93L289.65 287.05C289.624 287.083 289.59 287.11 289.552 287.129C289.514 287.147 289.472 287.157 289.43 287.157C289.388 287.157 289.346 287.147 289.308 287.129C289.27 287.11 289.236 287.083 289.21 287.05L288.32 285.93C288.13 285.69 287.72 285.93 287.79 286.22L288.14 287.64C288.15 287.681 288.152 287.725 288.145 287.767C288.137 287.809 288.121 287.849 288.098 287.885C288.075 287.92 288.044 287.951 288.008 287.974C287.972 287.997 287.932 288.013 287.89 288.02L286.4 288.32C286.08 288.38 286.04 288.83 286.4 288.89L287.84 289.19C287.88 289.198 287.918 289.215 287.951 289.24C287.983 289.265 288.009 289.297 288.027 289.334C288.044 289.371 288.053 289.412 288.052 289.453C288.05 289.494 288.04 289.534 288.02 289.57L287.43 290.99C287.405 291.051 287.403 291.12 287.423 291.182C287.444 291.245 287.486 291.299 287.542 291.334C287.599 291.369 287.666 291.382 287.731 291.372C287.797 291.363 287.856 291.33 287.9 291.28L288.99 290.16C289.018 290.13 289.052 290.106 289.09 290.089C289.128 290.072 289.169 290.064 289.21 290.064C289.251 290.064 289.292 290.072 289.33 290.089C289.368 290.106 289.402 290.13 289.43 290.16L290.32 291.28C290.51 291.52 290.92 291.28 290.84 290.99L290.49 289.57C290.475 289.485 290.494 289.398 290.543 289.327C290.591 289.256 290.666 289.207 290.75 289.19L292.24 288.89C292.51 288.83 292.55 288.38 292.24 288.32Z" fill="#263238"/>
<path d="M301.7 288.32L300.26 288.02C300.22 288.012 300.182 287.995 300.15 287.97C300.117 287.945 300.091 287.913 300.073 287.876C300.054 287.84 300.045 287.799 300.044 287.758C300.044 287.717 300.052 287.677 300.07 287.64L300.67 286.22C300.695 286.159 300.697 286.09 300.677 286.028C300.656 285.965 300.614 285.911 300.558 285.876C300.501 285.841 300.434 285.828 300.369 285.838C300.303 285.847 300.244 285.88 300.2 285.93L299.11 287.05C299.084 287.083 299.05 287.11 299.012 287.129C298.974 287.147 298.932 287.157 298.89 287.157C298.848 287.157 298.806 287.147 298.768 287.129C298.73 287.11 298.696 287.083 298.67 287.05L297.78 285.93C297.59 285.69 297.18 285.93 297.26 286.22L297.61 287.64C297.619 287.682 297.619 287.725 297.61 287.768C297.602 287.81 297.585 287.85 297.561 287.885C297.536 287.921 297.505 287.951 297.469 287.974C297.433 287.997 297.392 288.013 297.35 288.02L295.86 288.32C295.54 288.38 295.5 288.83 295.81 288.89L297.25 289.19C297.29 289.198 297.328 289.215 297.36 289.24C297.393 289.265 297.419 289.297 297.437 289.334C297.456 289.37 297.465 289.411 297.466 289.452C297.466 289.493 297.457 289.533 297.44 289.57L296.84 290.99C296.815 291.051 296.813 291.12 296.833 291.182C296.854 291.245 296.896 291.299 296.952 291.334C297.009 291.369 297.076 291.382 297.141 291.372C297.207 291.363 297.266 291.33 297.31 291.28L298.4 290.16C298.428 290.13 298.462 290.106 298.5 290.089C298.538 290.072 298.579 290.064 298.62 290.064C298.661 290.064 298.702 290.072 298.74 290.089C298.778 290.106 298.812 290.13 298.84 290.16L299.73 291.28C299.92 291.52 300.33 291.28 300.26 290.99L299.91 289.57C299.901 289.529 299.901 289.486 299.909 289.444C299.916 289.403 299.932 289.363 299.956 289.328C299.979 289.292 300.009 289.262 300.044 289.238C300.079 289.215 300.119 289.198 300.16 289.19L301.65 288.89C302 288.83 302 288.38 301.7 288.32Z" fill="#263238"/>
<path d="M311.16 288.32L309.72 288.02C309.68 288.012 309.642 287.995 309.609 287.97C309.577 287.945 309.551 287.913 309.533 287.876C309.516 287.839 309.507 287.798 309.508 287.757C309.51 287.716 309.52 287.676 309.54 287.64L310.14 286.22C310.159 286.188 310.172 286.154 310.177 286.117C310.183 286.081 310.181 286.044 310.172 286.008C310.163 285.972 310.148 285.938 310.126 285.909C310.104 285.879 310.077 285.854 310.045 285.835C310.013 285.816 309.979 285.803 309.942 285.798C309.906 285.792 309.869 285.794 309.833 285.803C309.797 285.812 309.763 285.827 309.734 285.849C309.704 285.871 309.679 285.898 309.66 285.93L308.58 287.05C308.553 287.083 308.518 287.11 308.48 287.129C308.441 287.147 308.398 287.157 308.355 287.157C308.312 287.157 308.269 287.147 308.23 287.129C308.191 287.11 308.157 287.083 308.13 287.05L307.24 285.93C307.05 285.69 306.64 285.93 306.72 286.22L307.07 287.64C307.079 287.681 307.079 287.724 307.071 287.766C307.064 287.807 307.048 287.847 307.024 287.882C307.001 287.917 306.971 287.948 306.936 287.972C306.901 287.995 306.861 288.012 306.82 288.02L305.33 288.32C305.01 288.38 304.97 288.83 305.28 288.89L306.71 289.19C306.75 289.198 306.788 289.215 306.82 289.24C306.853 289.265 306.879 289.297 306.897 289.334C306.916 289.37 306.925 289.411 306.926 289.452C306.926 289.493 306.917 289.533 306.9 289.57L306.3 290.99C306.262 291.054 306.25 291.13 306.268 291.202C306.286 291.274 306.331 291.337 306.395 291.375C306.459 291.413 306.535 291.425 306.607 291.407C306.679 291.389 306.742 291.344 306.78 291.28L307.86 290.16C307.888 290.13 307.922 290.106 307.96 290.089C307.998 290.073 308.039 290.064 308.08 290.064C308.121 290.064 308.162 290.073 308.2 290.089C308.238 290.106 308.272 290.13 308.3 290.16L309.19 291.28C309.237 291.332 309.3 291.367 309.369 291.379C309.438 291.391 309.509 291.38 309.57 291.346C309.632 291.312 309.68 291.259 309.707 291.194C309.735 291.129 309.739 291.057 309.72 290.99L309.37 289.57C309.355 289.487 309.373 289.401 309.419 289.33C309.466 289.259 309.538 289.209 309.62 289.19L311.11 288.89C311.43 288.83 311.47 288.38 311.16 288.32Z" fill="#263238"/>
<path d="M288.35 267.61H270.59C270.045 267.619 269.522 267.828 269.121 268.196C268.719 268.565 268.466 269.068 268.41 269.61C268.381 269.865 268.408 270.123 268.487 270.368C268.567 270.612 268.697 270.836 268.871 271.026C269.044 271.215 269.256 271.365 269.492 271.466C269.728 271.567 269.983 271.616 270.24 271.61H288C288.545 271.601 289.068 271.392 289.469 271.024C289.871 270.655 290.124 270.152 290.18 269.61C290.207 269.355 290.179 269.097 290.099 268.854C290.019 268.611 289.888 268.387 289.715 268.198C289.542 268.009 289.331 267.859 289.096 267.757C288.86 267.656 288.606 267.606 288.35 267.61Z" fill="#263238"/>
<path d="M306.39 267.61H296.08C295.536 267.62 295.015 267.829 294.615 268.197C294.215 268.566 293.964 269.069 293.91 269.61C293.882 269.864 293.908 270.122 293.987 270.365C294.065 270.609 294.195 270.832 294.368 271.022C294.54 271.211 294.75 271.361 294.985 271.463C295.22 271.564 295.474 271.614 295.73 271.61H306C306.544 271.6 307.065 271.391 307.465 271.023C307.865 270.654 308.116 270.151 308.17 269.61C308.198 269.359 308.173 269.105 308.096 268.864C308.02 268.624 307.894 268.402 307.726 268.213C307.558 268.025 307.352 267.873 307.122 267.77C306.892 267.666 306.643 267.611 306.39 267.61V267.61Z" fill="#263238"/>
<path d="M320 358.26C313.723 360.651 308.056 364.408 303.41 369.26C300.589 367.07 297.226 365.687 293.68 365.26L293.21 365.19L293.01 367.55L293.27 367.65C297.159 369.082 300.448 371.789 302.6 375.33L302.94 375.89L303.31 375.29C307.451 368.679 313.296 363.304 320.23 359.73L320.46 359.61L320.59 358.05L320 358.26Z" fill="#263238"/>
<path opacity="0.2" d="M230.64 161.37C229.366 163.595 228.582 166.067 228.34 168.62L213.45 338.84H259.53L268.79 303.35L265.74 267.85L275 232.36L272 196.87L281.26 161.37H230.64Z" fill="black"/>
<path d="M267.95 186.87L277.21 151.37H160.68L151.43 186.87L154.47 222.36L145.22 257.85L148.26 293.35L139.01 328.84H255.53L264.79 293.35L261.74 257.85L271 222.36L267.95 186.87Z" fill="#FF461E"/>
<path opacity="0.7" d="M267.95 186.87L277.21 151.37H160.68L151.43 186.87L154.47 222.36L145.22 257.85L148.26 293.35L139.01 328.84H255.53L264.79 293.35L261.74 257.85L271 222.36L267.95 186.87Z" fill="white"/>
<path opacity="0.5" d="M267.95 186.87H151.43L160.68 151.37H277.21L267.95 186.87Z" fill="white"/>
<path opacity="0.5" d="M261.74 257.85H145.22L154.47 222.36H271L261.74 257.85Z" fill="white"/>
<path opacity="0.5" d="M255.53 328.84H139L148.26 293.35H264.79L255.53 328.84Z" fill="white"/>
<path opacity="0.2" d="M252.36 201.7C251.164 202.046 249.924 202.214 248.68 202.2C246.992 202.275 245.313 201.931 243.79 201.2C243.514 201.037 243.2 200.95 242.88 200.95V200.95C242.586 200.954 242.298 201.03 242.04 201.17H241.98C241.533 201.421 241.056 201.612 240.56 201.74C239.441 202.035 238.287 202.18 237.13 202.17C236.78 202.17 236.44 202.17 236.13 202.17C235.232 202.112 234.343 201.955 233.48 201.7C233.353 201.662 233.222 201.639 233.09 201.63C232.87 201.612 232.649 201.64 232.44 201.712C232.231 201.783 232.04 201.897 231.877 202.047C231.715 202.196 231.585 202.377 231.496 202.579C231.407 202.781 231.361 202.999 231.36 203.22V203.22V204.3H186C185.167 204.3 184.341 204.464 183.571 204.784C182.802 205.103 182.102 205.571 181.513 206.16C180.925 206.75 180.458 207.45 180.14 208.221C179.822 208.991 179.659 209.817 179.66 210.65V217.04C179.657 217.874 179.819 218.701 180.137 219.472C180.454 220.244 180.921 220.945 181.51 221.536C182.099 222.127 182.799 222.596 183.569 222.915C184.34 223.235 185.166 223.4 186 223.4H237.53H237.87C238.42 223.86 239 224.32 239.62 224.79C240.24 225.26 241.12 225.91 241.93 226.49C242.206 226.69 242.539 226.798 242.88 226.798C243.221 226.798 243.554 226.69 243.83 226.49C250.31 221.79 254.47 218.55 254.47 209.65V203.25C254.473 202.994 254.415 202.741 254.301 202.512C254.187 202.283 254.02 202.084 253.813 201.933C253.607 201.781 253.368 201.681 253.115 201.641C252.862 201.6 252.603 201.62 252.36 201.7V201.7Z" fill="black"/>
<path d="M236.54 200.79H185.02C181.513 200.79 178.67 203.633 178.67 207.14V213.53C178.67 217.037 181.513 219.88 185.02 219.88H236.54C240.047 219.88 242.89 217.037 242.89 213.53V207.14C242.89 203.633 240.047 200.79 236.54 200.79Z" fill="#FF461E"/>
<path d="M247.69 198.68C246.003 198.752 244.324 198.409 242.8 197.68C242.529 197.514 242.218 197.426 241.9 197.426C241.582 197.426 241.271 197.514 241 197.68C239.473 198.41 237.791 198.753 236.1 198.68C234.856 198.693 233.616 198.525 232.42 198.18C232.179 198.099 231.922 198.077 231.671 198.114C231.42 198.152 231.181 198.25 230.975 198.398C230.769 198.547 230.601 198.742 230.485 198.969C230.369 199.195 230.309 199.446 230.31 199.7V206.1C230.31 215.01 234.47 218.25 240.95 222.95C241.226 223.15 241.559 223.258 241.9 223.258C242.241 223.258 242.574 223.15 242.85 222.95C249.33 218.25 253.49 215.01 253.49 206.1V199.7C253.489 199.445 253.427 199.195 253.311 198.969C253.194 198.742 253.025 198.547 252.818 198.399C252.611 198.25 252.372 198.153 252.12 198.115C251.869 198.077 251.611 198.099 251.37 198.18C250.174 198.526 248.935 198.694 247.69 198.68V198.68Z" fill="#FF461E"/>
<path opacity="0.3" d="M247.69 198.68C246.003 198.752 244.324 198.409 242.8 197.68C242.529 197.514 242.218 197.426 241.9 197.426C241.582 197.426 241.271 197.514 241 197.68C239.473 198.41 237.791 198.753 236.1 198.68C234.856 198.693 233.616 198.525 232.42 198.18C232.179 198.099 231.922 198.077 231.671 198.114C231.42 198.152 231.181 198.25 230.975 198.398C230.769 198.547 230.601 198.742 230.485 198.969C230.369 199.195 230.309 199.446 230.31 199.7V206.1C230.31 215.01 234.47 218.25 240.95 222.95C241.226 223.15 241.559 223.258 241.9 223.258C242.241 223.258 242.574 223.15 242.85 222.95C249.33 218.25 253.49 215.01 253.49 206.1V199.7C253.489 199.445 253.427 199.195 253.311 198.969C253.194 198.742 253.025 198.547 252.818 198.399C252.611 198.25 252.372 198.153 252.12 198.115C251.869 198.077 251.611 198.099 251.37 198.18C250.174 198.526 248.935 198.694 247.69 198.68V198.68Z" fill="white"/>
<path opacity="0.2" d="M241 197.66C239.473 198.39 237.791 198.733 236.1 198.66C234.856 198.673 233.616 198.504 232.42 198.16C232.179 198.079 231.922 198.057 231.671 198.095C231.42 198.132 231.181 198.23 230.975 198.378C230.769 198.527 230.601 198.722 230.485 198.949C230.369 199.175 230.309 199.426 230.31 199.68V206.08C230.31 214.99 234.47 218.23 240.95 222.93C241.24 223.14 241.592 223.249 241.95 223.24V197.4C241.615 197.393 241.285 197.484 241 197.66V197.66Z" fill="white"/>
<path d="M251.19 204.36C247.292 205.887 243.82 208.333 241.07 211.49C239.152 210.076 236.904 209.178 234.54 208.88H234.23V210.41L234.4 210.47C237.029 211.419 239.295 213.167 240.88 215.47L241.13 215.83L241.34 215.44C243.639 211.168 247.14 207.663 251.41 205.36L251.56 205.29V204.29L251.19 204.36Z" fill="#263238"/>
<path d="M275.15 161.36H270.73C270.161 161.371 269.597 161.26 269.075 161.035C268.552 160.81 268.084 160.477 267.7 160.056C267.317 159.636 267.028 159.139 266.852 158.598C266.676 158.057 266.617 157.485 266.68 156.92L267.07 152.5C267.19 151.298 267.747 150.182 268.635 149.363C269.524 148.545 270.682 148.081 271.89 148.06H276.31C276.879 148.048 277.445 148.158 277.969 148.382C278.492 148.606 278.962 148.939 279.346 149.36C279.731 149.78 280.021 150.278 280.197 150.819C280.374 151.361 280.433 151.934 280.37 152.5L279.98 156.92C279.845 158.118 279.283 159.227 278.395 160.043C277.508 160.859 276.355 161.327 275.15 161.36V161.36Z" fill="#FF461E"/>
<path d="M276.99 152.49L276.03 151.43L273.61 153.65L271.59 151.43L270.44 152.49L272.47 154.71L270.06 156.93L271.02 157.98L273.43 155.76L275.46 157.98L276.6 156.93L274.57 154.71L276.99 152.49Z" fill="white"/>
<path d="M176.37 199.49C178.93 202.28 181.37 205.17 183.8 208.08C186.23 210.99 188.58 213.96 190.92 216.94C191.02 217.07 190.98 217.02 191 217.06C191.02 217.1 191 217.11 191 217.12C191.017 217.157 191.041 217.191 191.07 217.22C191.155 217.341 191.264 217.444 191.389 217.523C191.514 217.602 191.654 217.655 191.8 217.68C191.913 217.695 192.027 217.695 192.14 217.68C192.2 217.685 192.26 217.685 192.32 217.68H192.41C192.46 217.68 192.41 217.68 192.57 217.62L195.07 216.26C198.43 214.48 201.82 212.74 205.32 211.18L208.25 214.81C205.43 217.4 202.49 220.65 199.52 223.03L197.28 224.79C197.141 224.904 196.994 225.007 196.84 225.1C196.67 225.221 196.493 225.331 196.31 225.43C195.948 225.639 195.574 225.826 195.19 225.99C194.415 226.316 193.602 226.541 192.77 226.66C191.088 226.907 189.37 226.735 187.77 226.16C186.956 225.871 186.183 225.478 185.47 224.99C185.11 224.75 184.77 224.47 184.47 224.2C184.3 224.06 184.16 223.9 184 223.75L183.6 223.35C180.95 220.63 178.34 217.89 175.78 215.1C173.22 212.31 170.69 209.5 168.27 206.58L176.37 199.49Z" fill="#B55B52"/>
<path d="M204 213.38L206.33 205.89L212.47 208.95C212.47 208.95 211.57 214.41 207.11 215.36L204 213.38Z" fill="#B55B52"/>
<path d="M208.78 203.82L214.32 205.34L212.46 208.95L206.32 205.89L208.78 203.82Z" fill="#B55B52"/>
<path d="M144.09 201.53C143.43 204.71 142.61 207.86 141.76 211C140.91 214.14 139.98 217.25 139.01 220.36L138.65 221.53L138.47 222.11C138.446 222.194 138.412 222.274 138.37 222.35C138.256 222.672 138.192 223.009 138.18 223.35C138.159 224.077 138.361 224.792 138.76 225.4C138.957 225.667 139.174 225.917 139.41 226.15L140.24 227.06L141.88 228.89C142.95 230.13 144.03 231.37 145.05 232.67L141.56 236.67C140.12 235.85 138.74 234.96 137.36 234.08L135.31 232.72L134.31 232.03C133.97 231.79 133.69 231.63 133.14 231.18C131.183 229.513 129.833 227.245 129.3 224.73C129.032 223.448 128.967 222.132 129.11 220.83C129.11 220.51 129.21 220.15 129.26 219.83L129.37 219.23L129.58 218.03C130.14 214.82 130.74 211.62 131.41 208.44C132.08 205.26 132.8 202.09 133.65 198.96L144.09 201.53Z" fill="#B55B52"/>
<path d="M141.63 232.35L145.75 230.24L147.57 237.24C147.57 237.24 144.26 238.51 141.7 236.88L141.63 232.35Z" fill="#B55B52"/>
<path d="M151.45 227.99L151.64 234.43L147.03 237.44L145.43 230.37L151.45 227.99Z" fill="#B55B52"/>
<path d="M164.94 168.47C165.04 168.96 165.39 169.31 165.71 169.25C166.03 169.19 166.22 168.73 166.12 168.25C166.02 167.77 165.67 167.41 165.35 167.47C165.03 167.53 164.84 168 164.94 168.47Z" fill="#263238"/>
<path d="M165.34 169.32C166.24 170.715 167.327 171.98 168.57 173.08C168.281 173.392 167.927 173.636 167.533 173.797C167.139 173.958 166.715 174.03 166.29 174.01L165.34 169.32Z" fill="#A02724"/>
<path d="M162.57 166.09C162.512 166.089 162.456 166.072 162.408 166.04C162.36 166.009 162.322 165.964 162.299 165.911C162.276 165.858 162.268 165.8 162.277 165.743C162.286 165.686 162.312 165.633 162.35 165.59C162.663 165.236 163.055 164.961 163.495 164.787C163.935 164.613 164.409 164.546 164.88 164.59C164.919 164.597 164.956 164.612 164.989 164.633C165.022 164.655 165.05 164.683 165.073 164.715C165.095 164.748 165.11 164.784 165.119 164.823C165.127 164.861 165.127 164.901 165.12 164.94C165.114 164.978 165.1 165.015 165.08 165.048C165.059 165.081 165.032 165.11 165.001 165.132C164.969 165.154 164.933 165.17 164.895 165.178C164.857 165.187 164.818 165.187 164.78 165.18C164.407 165.144 164.031 165.198 163.683 165.337C163.335 165.477 163.025 165.697 162.78 165.98C162.727 166.042 162.652 166.082 162.57 166.09V166.09Z" fill="#263238"/>
<path d="M150.52 175.44C151.62 180.03 152.73 188.44 148.79 191.49C148.79 191.49 150.33 196.15 160.79 196.15C172.29 196.15 166.29 193.15 166.29 193.15C160.01 191.93 160.17 186.48 161.29 182.91L150.52 175.44Z" fill="#B55B52"/>
<path d="M147.56 192.34C146.88 191.07 146.12 189.61 147.68 189.15C149.4 188.65 160.43 187.72 163.68 188.66C162.68 190.43 164.37 192.66 164.37 192.66L147.56 192.34Z" fill="#263238"/>
<path d="M156.7 406.92H163.91L164.63 392.4H157.41L156.7 406.92Z" fill="#B55B52"/>
<path d="M110.91 404.92L118.22 405.31L122.66 391L115.35 390.61L110.91 404.92Z" fill="#B55B52"/>
<path d="M118 404.73L111.11 403.24C110.989 403.213 110.863 403.227 110.752 403.282C110.641 403.337 110.552 403.428 110.5 403.54L108.11 408.73C108.051 408.856 108.022 408.994 108.025 409.133C108.027 409.272 108.062 409.408 108.126 409.532C108.189 409.656 108.281 409.763 108.392 409.846C108.504 409.929 108.633 409.985 108.77 410.01C111.18 410.49 112.38 410.6 115.41 411.26C117.27 411.66 121.48 412.69 124.05 413.26C126.62 413.83 127.51 411.35 126.51 410.89C122.01 408.84 120.13 407.03 118.91 405.34C118.691 405.033 118.367 404.816 118 404.73V404.73Z" fill="#263238"/>
<path d="M163.53 406.19H156.68C156.556 406.192 156.436 406.235 156.34 406.313C156.244 406.391 156.177 406.499 156.15 406.62L154.91 412.19C154.878 412.325 154.877 412.465 154.908 412.6C154.938 412.736 154.999 412.862 155.086 412.97C155.173 413.078 155.283 413.165 155.409 413.224C155.534 413.283 155.671 413.312 155.81 413.31C158.28 413.31 161.81 413.12 164.96 413.12C168.59 413.12 171.72 413.32 175.96 413.32C178.53 413.32 179.25 410.72 178.17 410.48C173.26 409.41 169.26 409.29 165.02 406.68C164.577 406.385 164.062 406.215 163.53 406.19V406.19Z" fill="#263238"/>
<path d="M135.72 193.61C130.28 196.2 128.8 211.9 128.8 211.9L142.27 218.12C144.547 214.28 145.787 209.914 145.87 205.45C146.14 197.34 141.29 191 135.72 193.61Z" fill="#263238"/>
<path opacity="0.4" d="M143 203.29C140.57 207.07 140.8 212.91 141.64 217.84L142.24 218.12C144.515 214.279 145.755 209.913 145.84 205.45C145.84 204.97 145.84 204.45 145.84 204.02L143 203.29Z" fill="black"/>
<path d="M173.31 193.23C173.31 193.23 179.99 200.77 173.68 247.43H140.15C139.92 242.28 143.15 217.17 138.15 192.91C141.856 192.197 145.603 191.723 149.37 191.49C154.119 191.22 158.881 191.22 163.63 191.49C166.897 191.821 170.133 192.403 173.31 193.23V193.23Z" fill="#FF461E"/>
<path opacity="0.6" d="M173.31 193.23C173.31 193.23 179.99 200.77 173.68 247.43H140.15C139.92 242.28 143.15 217.17 138.15 192.91C141.856 192.197 145.603 191.723 149.37 191.49C154.119 191.22 158.881 191.22 163.63 191.49C166.897 191.821 170.133 192.403 173.31 193.23V193.23Z" fill="#FAFAFA"/>
<path opacity="0.2" d="M176.24 207.49L176.12 207.38L169.45 203.82C168.77 214.09 173.36 220.53 176.09 223.34C176.432 218.063 176.482 212.772 176.24 207.49V207.49Z" fill="black"/>
<path opacity="0.2" d="M164.63 392.4L164.26 399.89H157.04L157.41 392.4H164.63Z" fill="black"/>
<path opacity="0.2" d="M115.35 390.62L122.66 391L120.37 398.38L113.06 397.99L115.35 390.62Z" fill="black"/>
<path d="M148.2 170.78C149.81 176.78 150.45 180.39 154.2 182.89C159.78 186.65 166.72 182.33 166.94 175.96C167.13 170.23 164.47 161.36 158.02 160.15C156.596 159.868 155.123 159.956 153.743 160.406C152.363 160.855 151.121 161.651 150.136 162.718C149.151 163.784 148.456 165.085 148.117 166.496C147.778 167.908 147.806 169.383 148.2 170.78V170.78Z" fill="#B55B52"/>
<path d="M161.79 247.43C161.79 247.43 154.67 295.34 150.79 313.3C146.49 333 123.55 398 123.55 398L112.32 395.57C112.32 395.57 126.71 342.57 130.32 315.09C131.72 304.36 133.41 287.09 135.55 272.66C137.62 258.66 140.17 247.44 140.17 247.44L161.79 247.43Z" fill="#263238"/>
<path d="M126.24 394.25L124.14 398.31L111.52 395.57L112.58 391.78L126.24 394.25Z" fill="#FF461E"/>
<path opacity="0.6" d="M126.24 394.25L124.14 398.31L111.52 395.57L112.58 391.78L126.24 394.25Z" fill="white"/>
<path opacity="0.6" d="M157.29 264.5C149.06 266.11 149.93 296.8 150.92 312.58C153.3 301.42 156.77 279.96 159.14 264.72C158.567 264.438 157.914 264.36 157.29 264.5V264.5Z" fill="black"/>
<path d="M173.68 247.43C173.68 247.43 177.03 294.31 176.35 313.43C175.64 333.32 166.21 398.43 166.21 398.43H155.59C155.59 398.43 155.2 334.43 154.73 314.94C154.21 293.64 151.64 247.42 151.64 247.42L173.68 247.43Z" fill="#263238"/>
<path d="M168.25 394.21C168.3 394.21 167.65 398.62 167.65 398.62H154.73L154.38 394.68L168.25 394.21Z" fill="#FF461E"/>
<path opacity="0.6" d="M168.25 394.21C168.3 394.21 167.65 398.62 167.65 398.62H154.73L154.38 394.68L168.25 394.21Z" fill="white"/>
<path d="M169.4 202C169.4 214.58 176.09 219.76 176.09 219.76L187 209.14C184.418 204.824 181.477 200.733 178.21 196.91C171.9 189.68 169.4 193.92 169.4 202Z" fill="#263238"/>
<path opacity="0.2" d="M166.52 178.24C166.298 178.87 165.924 179.437 165.433 179.89C164.941 180.343 164.346 180.669 163.7 180.84C162.989 180.985 162.344 181.355 161.859 181.895C161.375 182.436 161.077 183.117 161.01 183.84V183.84C162.305 183.407 163.479 182.674 164.437 181.701C165.394 180.728 166.108 179.542 166.52 178.24V178.24Z" fill="black"/>
<path d="M163.7 158.83C165.94 156 162.49 155.83 162.49 155.83C163.39 152.46 159.35 154.27 159.35 154.27C156.93 150.93 155.56 155 155.56 155C153.05 152.17 152.56 156.79 152.56 156.79C150.04 153.2 148.76 158.38 148.76 158.38C146.44 154.65 145.02 159.5 145.02 159.5C140.23 157.79 142.5 162.77 142.5 162.77C138.42 162.88 141.7 166.05 141.7 166.05C136.8 166.05 141.12 168.86 141.12 168.86C137.23 171.41 142.12 172.1 142.12 172.1C138.95 177.1 144.4 175.22 144.4 175.22C142.19 180.14 147.08 177.97 147.08 177.97C146.77 182.71 149.5 181.42 150.82 180.54C151.07 181.54 151.55 182.54 152.43 182.62C154.14 182.85 154.43 179.62 154.43 179.62C154.43 179.62 156.01 180.86 157.34 180.19C158.67 179.52 158.17 177.83 158.17 177.83C158.459 178.046 158.81 178.163 159.17 178.163C159.53 178.163 159.881 178.046 160.17 177.83C160.74 177.39 160.74 174.21 160.02 173.09L162.62 172.09C162.62 172.09 164.55 171.82 163.69 169.27C163.171 167.804 163.126 166.213 163.56 164.72C166.5 163.34 164.08 161.72 164.08 161.72C167.49 159.53 163.7 158.83 163.7 158.83Z" fill="#263238"/>
<path d="M158.43 171C158.837 172.492 159.727 173.807 160.96 174.74C162.59 175.96 163.81 174.74 163.69 172.91C163.59 171.25 162.61 168.62 160.81 168.12C159.01 167.62 158 169.23 158.43 171Z" fill="#B55B52"/>
</svg>
