<svg width="436" height="150" viewBox="0 0 436 150" fill="none" xmlns="http://www.w3.org/2000/svg">
<g filter="url(#filter0_d_2_669)">
<path d="M25.488 71.64C18.576 71.64 13.328 69.8267 9.744 66.2C6.16 62.5733 4.368 57.5387 4.368 51.096C4.368 44.2693 6.18133 38.9147 9.808 35.032C13.4347 31.1067 18.832 29.144 26 29.144C28.4747 29.144 30.7147 29.2933 32.72 29.592C34.7253 29.848 36.624 30.2747 38.416 30.872V38.296C36.624 37.656 34.7253 37.208 32.72 36.952C30.7573 36.6533 28.7307 36.504 26.64 36.504C21.7333 36.504 18.256 37.72 16.208 40.152C14.16 42.5413 13.136 46.1893 13.136 51.096C13.136 59.928 17.296 64.344 25.616 64.344C27.0667 64.344 28.4747 64.2373 29.84 64.024C31.248 63.768 32.4853 63.448 33.552 63.064V53.464H23.952V47.96H40.848V68.12C39.44 69.016 37.4773 69.8267 34.96 70.552C32.4427 71.2773 29.2853 71.64 25.488 71.64ZM55.2835 71.64C52.3395 71.64 50.1848 70.9573 48.8195 69.592C47.4968 68.2267 46.8355 66.0507 46.8355 63.064V27.864H55.4755V62.36C55.4755 63.4267 55.6888 64.1733 56.1155 64.6C56.5422 64.984 57.1608 65.176 57.9715 65.176C59.0808 65.176 60.0835 65.0267 60.9795 64.728V70.68C59.3582 71.32 57.4595 71.64 55.2835 71.64ZM81.066 71.64C75.3913 71.64 71.2313 70.2747 68.586 67.544C65.9407 64.7707 64.618 60.8667 64.618 55.832C64.618 50.7973 65.9407 46.9147 68.586 44.184C71.274 41.4107 75.434 40.024 81.066 40.024C86.7407 40.024 90.9007 41.4107 93.546 44.184C96.234 46.9147 97.578 50.7973 97.578 55.832C97.578 60.8667 96.2553 64.7707 93.61 67.544C90.9647 70.2747 86.7833 71.64 81.066 71.64ZM81.066 64.28C83.8393 64.28 85.8233 63.6613 87.018 62.424C88.2127 61.144 88.81 58.9467 88.81 55.832C88.81 52.7173 88.2127 50.5413 87.018 49.304C85.8233 48.024 83.8393 47.384 81.066 47.384C78.3353 47.384 76.3727 48.024 75.178 49.304C73.9833 50.5413 73.386 52.7173 73.386 55.832C73.386 58.9467 73.9833 61.144 75.178 62.424C76.3727 63.6613 78.3353 64.28 81.066 64.28ZM113.961 71.64C111.7 71.64 109.545 71.4693 107.497 71.128C105.449 70.8293 103.806 70.4453 102.569 69.976V62.808C104.062 63.4053 105.748 63.8747 107.625 64.216C109.502 64.5147 111.23 64.664 112.809 64.664C114.942 64.664 116.436 64.536 117.289 64.28C118.185 64.024 118.633 63.448 118.633 62.552C118.633 61.528 117.95 60.7813 116.585 60.312C115.262 59.8427 113.278 59.1813 110.633 58.328C107.86 57.3893 105.726 56.2587 104.233 54.936C102.74 53.6133 101.993 51.6507 101.993 49.048C101.993 46.1467 103.038 43.928 105.129 42.392C107.262 40.8133 110.676 40.024 115.369 40.024C117.246 40.024 119.017 40.1733 120.681 40.472C122.345 40.728 123.753 41.048 124.905 41.432V48.536C123.753 47.9813 122.43 47.576 120.937 47.32C119.444 47.0213 118.057 46.872 116.777 46.872C114.942 46.872 113.47 47 112.361 47.256C111.294 47.512 110.761 48.0667 110.761 48.92C110.761 49.8587 111.337 50.52 112.489 50.904C113.684 51.288 115.518 51.864 117.993 52.632C120.425 53.3573 122.324 54.1467 123.689 55C125.054 55.8533 126.014 56.8773 126.569 58.072C127.124 59.224 127.401 60.6747 127.401 62.424C127.401 68.568 122.921 71.64 113.961 71.64ZM142.461 71.64C140.2 71.64 138.045 71.4693 135.997 71.128C133.949 70.8293 132.306 70.4453 131.069 69.976V62.808C132.562 63.4053 134.248 63.8747 136.125 64.216C138.002 64.5147 139.73 64.664 141.309 64.664C143.442 64.664 144.936 64.536 145.789 64.28C146.685 64.024 147.133 63.448 147.133 62.552C147.133 61.528 146.45 60.7813 145.085 60.312C143.762 59.8427 141.778 59.1813 139.133 58.328C136.36 57.3893 134.226 56.2587 132.733 54.936C131.24 53.6133 130.493 51.6507 130.493 49.048C130.493 46.1467 131.538 43.928 133.629 42.392C135.762 40.8133 139.176 40.024 143.869 40.024C145.746 40.024 147.517 40.1733 149.181 40.472C150.845 40.728 152.253 41.048 153.405 41.432V48.536C152.253 47.9813 150.93 47.576 149.437 47.32C147.944 47.0213 146.557 46.872 145.277 46.872C143.442 46.872 141.97 47 140.861 47.256C139.794 47.512 139.261 48.0667 139.261 48.92C139.261 49.8587 139.837 50.52 140.989 50.904C142.184 51.288 144.018 51.864 146.493 52.632C148.925 53.3573 150.824 54.1467 152.189 55C153.554 55.8533 154.514 56.8773 155.069 58.072C155.624 59.224 155.901 60.6747 155.901 62.424C155.901 68.568 151.421 71.64 142.461 71.64ZM170.497 71.64C168.577 71.64 166.785 71.2987 165.121 70.616C163.499 69.8907 162.177 68.8453 161.153 67.48C160.171 66.072 159.681 64.3227 159.681 62.232C159.681 59.2453 160.726 56.856 162.817 55.064C164.95 53.272 168.086 52.376 172.225 52.376H181.185V51.544C181.185 49.6667 180.651 48.344 179.585 47.576C178.561 46.808 176.47 46.424 173.312 46.424C169.857 46.424 166.529 46.9573 163.329 48.024V41.944C164.737 41.3893 166.443 40.9413 168.449 40.6C170.497 40.216 172.715 40.024 175.105 40.024C179.67 40.024 183.19 40.9627 185.665 42.84C188.182 44.6747 189.441 47.64 189.441 51.736V71H181.953L181.505 68.248C180.31 69.3147 178.838 70.1467 177.089 70.744C175.339 71.3413 173.142 71.64 170.497 71.64ZM172.865 65.944C174.785 65.944 176.449 65.624 177.857 64.984C179.265 64.344 180.374 63.5333 181.185 62.552V57.752H172.417C169.046 57.752 167.361 59.1387 167.361 61.912C167.361 64.6 169.195 65.944 172.865 65.944ZM196.398 71V40.664H204.398L204.782 43.8C206.147 42.9467 207.833 42.1787 209.838 41.496C211.886 40.7707 213.891 40.28 215.854 40.024V46.552C214.702 46.7227 213.443 46.9787 212.078 47.32C210.713 47.6613 209.411 48.0453 208.174 48.472C206.937 48.8987 205.891 49.3467 205.038 49.816V71H196.398ZM225.959 82.264C224.636 82.264 223.463 82.1787 222.439 82.008C221.415 81.88 220.412 81.624 219.431 81.24V75.16C220.156 75.416 220.818 75.5867 221.415 75.672C222.055 75.7573 222.695 75.8 223.335 75.8C225.084 75.8 226.428 75.3947 227.367 74.584C228.348 73.7733 229.33 72.408 230.311 70.488L216.743 40.664H225.767L234.663 61.272L243.495 40.664H252.455L240.487 68.888C239.378 71.5333 238.162 73.8587 236.839 75.864C235.559 77.912 234.044 79.4907 232.295 80.6C230.546 81.7093 228.434 82.264 225.959 82.264Z" fill="white"/>
</g>
<g filter="url(#filter1_di_2_669)">
<path d="M149.3 123.78L121.22 111.12V104.46L149.3 91.8V99.36L129.8 107.76L149.3 116.22V123.78ZM183.603 126V93.6H171.723V87.36H203.523V93.6H191.703V126H183.603ZM220.127 126.6C215.207 126.6 211.307 125.38 208.427 122.94C205.547 120.46 204.107 116.72 204.107 111.72C204.107 107.2 205.307 103.62 207.707 100.98C210.147 98.3 213.767 96.96 218.567 96.96C222.967 96.96 226.327 98.12 228.647 100.44C231.007 102.72 232.187 105.72 232.187 109.44V114.6H211.607C212.047 116.88 213.087 118.44 214.727 119.28C216.407 120.12 218.767 120.54 221.807 120.54C223.327 120.54 224.867 120.4 226.427 120.12C228.027 119.84 229.387 119.48 230.507 119.04V124.8C229.187 125.4 227.647 125.84 225.887 126.12C224.127 126.44 222.207 126.6 220.127 126.6ZM211.607 109.62H225.107V108.06C225.107 106.42 224.627 105.14 223.667 104.22C222.707 103.26 221.087 102.78 218.807 102.78C216.127 102.78 214.247 103.32 213.167 104.4C212.127 105.48 211.607 107.22 211.607 109.62ZM255.346 126.6C250.266 126.6 246.366 125.34 243.646 122.82C240.966 120.3 239.626 116.62 239.626 111.78C239.626 106.78 241.066 103.06 243.946 100.62C246.866 98.18 250.746 96.96 255.586 96.96C257.586 96.96 259.306 97.1 260.746 97.38C262.186 97.66 263.586 98.12 264.946 98.76V104.58C263.946 104.1 262.786 103.72 261.466 103.44C260.146 103.16 258.726 103.02 257.206 103.02C254.166 103.02 251.846 103.66 250.246 104.94C248.646 106.18 247.846 108.46 247.846 111.78C247.846 114.82 248.566 117.04 250.006 118.44C251.486 119.84 253.866 120.54 257.146 120.54C258.546 120.54 259.906 120.4 261.226 120.12C262.586 119.84 263.846 119.42 265.006 118.86V124.86C262.326 126.02 259.106 126.6 255.346 126.6ZM273.123 126V85.56H281.223V99.96C282.383 99.08 283.803 98.36 285.483 97.8C287.163 97.24 288.983 96.96 290.943 96.96C294.703 96.96 297.443 97.84 299.163 99.6C300.883 101.36 301.743 104.08 301.743 107.76V126H293.643V108.18C293.643 106.26 293.243 104.9 292.443 104.1C291.683 103.3 290.243 102.9 288.123 102.9C286.883 102.9 285.623 103.18 284.343 103.74C283.103 104.3 282.063 105 281.223 105.84V126H273.123ZM326.322 123.78V116.22L345.822 107.76L326.322 99.36V91.8L354.402 104.46V111.12L326.322 123.78Z" fill="#00FFD1"/>
<path d="M149.3 123.78L121.22 111.12V104.46L149.3 91.8V99.36L129.8 107.76L149.3 116.22V123.78ZM183.603 126V93.6H171.723V87.36H203.523V93.6H191.703V126H183.603ZM220.127 126.6C215.207 126.6 211.307 125.38 208.427 122.94C205.547 120.46 204.107 116.72 204.107 111.72C204.107 107.2 205.307 103.62 207.707 100.98C210.147 98.3 213.767 96.96 218.567 96.96C222.967 96.96 226.327 98.12 228.647 100.44C231.007 102.72 232.187 105.72 232.187 109.44V114.6H211.607C212.047 116.88 213.087 118.44 214.727 119.28C216.407 120.12 218.767 120.54 221.807 120.54C223.327 120.54 224.867 120.4 226.427 120.12C228.027 119.84 229.387 119.48 230.507 119.04V124.8C229.187 125.4 227.647 125.84 225.887 126.12C224.127 126.44 222.207 126.6 220.127 126.6ZM211.607 109.62H225.107V108.06C225.107 106.42 224.627 105.14 223.667 104.22C222.707 103.26 221.087 102.78 218.807 102.78C216.127 102.78 214.247 103.32 213.167 104.4C212.127 105.48 211.607 107.22 211.607 109.62ZM255.346 126.6C250.266 126.6 246.366 125.34 243.646 122.82C240.966 120.3 239.626 116.62 239.626 111.78C239.626 106.78 241.066 103.06 243.946 100.62C246.866 98.18 250.746 96.96 255.586 96.96C257.586 96.96 259.306 97.1 260.746 97.38C262.186 97.66 263.586 98.12 264.946 98.76V104.58C263.946 104.1 262.786 103.72 261.466 103.44C260.146 103.16 258.726 103.02 257.206 103.02C254.166 103.02 251.846 103.66 250.246 104.94C248.646 106.18 247.846 108.46 247.846 111.78C247.846 114.82 248.566 117.04 250.006 118.44C251.486 119.84 253.866 120.54 257.146 120.54C258.546 120.54 259.906 120.4 261.226 120.12C262.586 119.84 263.846 119.42 265.006 118.86V124.86C262.326 126.02 259.106 126.6 255.346 126.6ZM273.123 126V85.56H281.223V99.96C282.383 99.08 283.803 98.36 285.483 97.8C287.163 97.24 288.983 96.96 290.943 96.96C294.703 96.96 297.443 97.84 299.163 99.6C300.883 101.36 301.743 104.08 301.743 107.76V126H293.643V108.18C293.643 106.26 293.243 104.9 292.443 104.1C291.683 103.3 290.243 102.9 288.123 102.9C286.883 102.9 285.623 103.18 284.343 103.74C283.103 104.3 282.063 105 281.223 105.84V126H273.123ZM326.322 123.78V116.22L345.822 107.76L326.322 99.36V91.8L354.402 104.46V111.12L326.322 123.78Z" fill="#00FFD1" fill-opacity="0.5"/>
</g>
<defs>
<filter id="filter0_d_2_669" x="0.368042" y="27.864" width="256.087" height="62.4" filterUnits="userSpaceOnUse" color-interpolation-filters="sRGB">
<feFlood flood-opacity="0" result="BackgroundImageFix"/>
<feColorMatrix in="SourceAlpha" type="matrix" values="0 0 0 0 0 0 0 0 0 0 0 0 0 0 0 0 0 0 127 0" result="hardAlpha"/>
<feOffset dy="4"/>
<feGaussianBlur stdDeviation="2"/>
<feComposite in2="hardAlpha" operator="out"/>
<feColorMatrix type="matrix" values="0 0 0 0 0 0 0 0 0 0 0 0 0 0 0 0 0 0 0.25 0"/>
<feBlend mode="normal" in2="BackgroundImageFix" result="effect1_dropShadow_2_669"/>
<feBlend mode="normal" in="SourceGraphic" in2="effect1_dropShadow_2_669" result="shape"/>
</filter>
<filter id="filter1_di_2_669" x="117.22" y="85.56" width="241.182" height="49.04" filterUnits="userSpaceOnUse" color-interpolation-filters="sRGB">
<feFlood flood-opacity="0" result="BackgroundImageFix"/>
<feColorMatrix in="SourceAlpha" type="matrix" values="0 0 0 0 0 0 0 0 0 0 0 0 0 0 0 0 0 0 127 0" result="hardAlpha"/>
<feOffset dy="4"/>
<feGaussianBlur stdDeviation="2"/>
<feComposite in2="hardAlpha" operator="out"/>
<feColorMatrix type="matrix" values="0 0 0 0 0 0 0 0 0 0 0 0 0 0 0 0 0 0 0.25 0"/>
<feBlend mode="normal" in2="BackgroundImageFix" result="effect1_dropShadow_2_669"/>
<feBlend mode="normal" in="SourceGraphic" in2="effect1_dropShadow_2_669" result="shape"/>
<feColorMatrix in="SourceAlpha" type="matrix" values="0 0 0 0 0 0 0 0 0 0 0 0 0 0 0 0 0 0 127 0" result="hardAlpha"/>
<feOffset dy="4"/>
<feGaussianBlur stdDeviation="2"/>
<feComposite in2="hardAlpha" operator="arithmetic" k2="-1" k3="1"/>
<feColorMatrix type="matrix" values="0 0 0 0 0 0 0 0 0 0 0 0 0 0 0 0 0 0 0.25 0"/>
<feBlend mode="normal" in2="shape" result="effect2_innerShadow_2_669"/>
</filter>
</defs>
</svg>
