<svg width="436" height="150" viewBox="0 0 436 150" fill="none" xmlns="http://www.w3.org/2000/svg">
<g filter="url(#filter0_d_2_669)">
<path d="M25.488 71.64C18.576 71.64 13.328 69.8267 9.744 66.2C6.16 62.5733 4.368 57.5387 4.368 51.096C4.368 44.2693 6.18133 38.9147 9.808 35.032C13.4347 31.1067 18.832 29.144 26 29.144C28.4747 29.144 30.7147 29.2933 32.72 29.592C34.7253 29.848 36.624 30.2747 38.416 30.872V38.296C36.624 37.656 34.7253 37.208 32.72 36.952C30.7573 36.6533 28.7307 36.504 26.64 36.504C21.7333 36.504 18.256 37.72 16.208 40.152C14.16 42.5413 13.136 46.1893 13.136 51.096C13.136 59.928 17.296 64.344 25.616 64.344C27.0667 64.344 28.4747 64.2373 29.84 64.024C31.248 63.768 32.4853 63.448 33.552 63.064V53.464H23.952V47.96H40.848V68.12C39.44 69.016 37.4773 69.8267 34.96 70.552C32.4427 71.2773 29.2853 71.64 25.488 71.64ZM55.2835 71.64C52.3395 71.64 50.1848 70.9573 48.8195 69.592C47.4968 68.2267 46.8355 66.0507 46.8355 63.064V27.864H55.4755V62.36C55.4755 63.4267 55.6888 64.1733 56.1155 64.6C56.5422 64.984 57.1608 65.176 57.9715 65.176C59.0808 65.176 60.0835 65.0267 60.9795 64.728V70.68C59.3582 71.32 57.4595 71.64 55.2835 71.64ZM81.066 71.64C75.3913 71.64 71.2313 70.2747 68.586 67.544C65.9407 64.7707 64.618 60.8667 64.618 55.832C64.618 50.7973 65.9407 46.9147 68.586 44.184C71.274 41.4107 75.434 40.024 81.066 40.024C86.7407 40.024 90.9007 41.4107 93.546 44.184C96.234 46.9147 97.578 50.7973 97.578 55.832C97.578 60.8667 96.2553 64.7707 93.61 67.544C90.9647 70.2747 86.7833 71.64 81.066 71.64ZM81.066 64.28C83.8393 64.28 85.8233 63.6613 87.018 62.424C88.2127 61.144 88.81 58.9467 88.81 55.832C88.81 52.7173 88.2127 50.5413 87.018 49.304C85.8233 48.024 83.8393 47.384 81.066 47.384C78.3353 47.384 76.3727 48.024 75.178 49.304C73.9833 50.5413 73.386 52.7173 73.386 55.832C73.386 58.9467 73.9833 61.144 75.178 62.424C76.3727 63.6613 78.3353 64.28 81.066 64.28ZM113.961 71.64C111.7 71.64 109.545 71.4693 107.497 71.128C105.449 70.8293 103.806 70.4453 102.569 69.976V62.808C104.062 63.4053 105.748 63.8747 107.625 64.216C109.502 64.5147 111.23 64.664 112.809 64.664C114.942 64.664 116.436 64.536 117.289 64.28C118.185 64.024 118.633 63.448 118.633 62.552C118.633 61.528 117.95 60.7813 116.585 60.312C115.262 59.8427 113.278 59.1813 110.633 58.328C107.86 57.3893 105.726 56.2587 104.233 54.936C102.74 53.6133 101.993 51.6507 101.993 49.048C101.993 46.1467 103.038 43.928 105.129 42.392C107.262 40.8133 110.676 40.024 115.369 40.024C117.246 40.024 119.017 40.1733 120.681 40.472C122.345 40.728 123.753 41.048 124.905 41.432V48.536C123.753 47.9813 122.43 47.576 120.937 47.32C119.444 47.0213 118.057 46.872 116.777 46.872C114.942 46.872 113.47 47 112.361 47.256C111.294 47.512 110.761 48.0667 110.761 48.92C110.761 49.8587 111.337 50.52 112.489 50.904C113.684 51.288 115.518 51.864 117.993 52.632C120.425 53.3573 122.324 54.1467 123.689 55C125.054 55.8533 126.014 56.8773 126.569 58.072C127.124 59.224 127.401 60.6747 127.401 62.424C127.401 68.568 122.921 71.64 113.961 71.64ZM142.461 71.64C140.2 71.64 138.045 71.4693 135.997 71.128C133.949 70.8293 132.306 70.4453 131.069 69.976V62.808C132.562 63.4053 134.248 63.8747 136.125 64.216C138.002 64.5147 139.73 64.664 141.309 64.664C143.442 64.664 144.936 64.536 145.789 64.28C146.685 64.024 147.133 63.448 147.133 62.552C147.133 61.528 146.45 60.7813 145.085 60.312C143.762 59.8427 141.778 59.1813 139.133 58.328C136.36 57.3893 134.226 56.2587 132.733 54.936C131.24 53.6133 130.493 51.6507 130.493 49.048C130.493 46.1467 131.538 43.928 133.629 42.392C135.762 40.8133 139.176 40.024 143.869 40.024C145.746 40.024 147.517 40.1733 149.181 40.472C150.845 40.728 152.253 41.048 153.405 41.432V48.536C152.253 47.9813 150.93 47.576 149.437 47.32C147.944 47.0213 146.557 46.872 145.277 46.872C143.442 46.872 141.97 47 140.861 47.256C139.794 47.512 139.261 48.0667 139.261 48.92C139.261 49.8587 139.837 50.52 140.989 50.904C142.184 51.288 144.018 51.864 146.493 52.632C148.925 53.3573 150.824 54.1467 152.189 55C153.554 55.8533 154.514 56.8773 155.069 58.072C155.624 59.224 155.901 60.6747 155.901 62.424C155.901 68.568 151.421 71.64 142.461 71.64ZM170.497 71.64C168.577 71.64 166.785 71.2987 165.121 70.616C163.499 69.8907 162.177 68.8453 161.153 67.48C160.171 66.072 159.681 64.3227 159.681 62.232C159.681 59.2453 160.726 56.856 162.817 55.064C164.95 53.272 168.086 52.376 172.225 52.376H181.185V51.544C181.185 49.6667 180.651 48.344 179.585 47.576C178.561 46.808 176.47 46.424 173.312 46.424C169.857 46.424 166.529 46.9573 163.329 48.024V41.944C164.737 41.3893 166.443 40.9413 168.449 40.6C170.497 40.216 172.715 40.024 175.105 40.024C179.67 40.024 183.19 40.9627 185.665 42.84C188.182 44.6747 189.441 47.64 189.441 51.736V71H181.953L181.505 68.248C180.31 69.3147 178.838 70.1467 177.089 70.744C175.339 71.3413 173.142 71.64 170.497 71.64ZM172.865 65.944C174.785 65.944 176.449 65.624 177.857 64.984C179.265 64.344 180.374 63.5333 181.185 62.552V57.752H172.417C169.046 57.752 167.361 59.1387 167.361 61.912C167.361 64.6 169.195 65.944 172.865 65.944ZM196.398 71V40.664H204.398L204.782 43.8C206.147 42.9467 207.833 42.1787 209.838 41.496C211.886 40.7707 213.891 40.28 215.854 40.024V46.552C214.702 46.7227 213.443 46.9787 212.078 47.32C210.713 47.6613 209.411 48.0453 208.174 48.472C206.937 48.8987 205.891 49.3467 205.038 49.816V71H196.398ZM225.959 82.264C224.636 82.264 223.463 82.1787 222.439 82.008C221.415 81.88 220.412 81.624 219.431 81.24V75.16C220.156 75.416 220.818 75.5867 221.415 75.672C222.055 75.7573 222.695 75.8 223.335 75.8C225.084 75.8 226.428 75.3947 227.367 74.584C228.348 73.7733 229.33 72.408 230.311 70.488L216.743 40.664H225.767L234.663 61.272L243.495 40.664H252.455L240.487 68.888C239.378 71.5333 238.162 73.8587 236.839 75.864C235.559 77.912 234.044 79.4907 232.295 80.6C230.546 81.7093 228.434 82.264 225.959 82.264Z" fill="white"/>
</g>
<path d="M149.3 123.78L121.22 111.12V104.46L149.3 91.8V99.36L129.8 107.76L149.3 116.22V123.78ZM183.603 126V93.6H171.723V87.36H203.523V93.6H191.703V126H183.603ZM220.127 126.6C215.207 126.6 211.307 125.38 208.427 122.94C205.547 120.46 204.107 116.72 204.107 111.72C204.107 107.2 205.307 103.62 207.707 100.98C210.147 98.3 213.767 96.96 218.567 96.96C222.967 96.96 226.327 98.12 228.647 100.44C231.007 102.72 232.187 105.72 232.187 109.44V114.6H211.607C212.047 116.88 213.087 118.44 214.727 119.28C216.407 120.12 218.767 120.54 221.807 120.54C223.327 120.54 224.867 120.4 226.427 120.12C228.027 119.84 229.387 119.48 230.507 119.04V124.8C229.187 125.4 227.647 125.84 225.887 126.12C224.127 126.44 222.207 126.6 220.127 126.6ZM211.607 109.62H225.107V108.06C225.107 106.42 224.627 105.14 223.667 104.22C222.707 103.26 221.087 102.78 218.807 102.78C216.127 102.78 214.247 103.32 213.167 104.4C212.127 105.48 211.607 107.22 211.607 109.62ZM255.346 126.6C250.266 126.6 246.366 125.34 243.646 122.82C240.966 120.3 239.626 116.62 239.626 111.78C239.626 106.78 241.066 103.06 243.946 100.62C246.866 98.18 250.746 96.96 255.586 96.96C257.586 96.96 259.306 97.1 260.746 97.38C262.186 97.66 263.586 98.12 264.946 98.76V104.58C263.946 104.1 262.786 103.72 261.466 103.44C260.146 103.16 258.726 103.02 257.206 103.02C254.166 103.02 251.846 103.66 250.246 104.94C248.646 106.18 247.846 108.46 247.846 111.78C247.846 114.82 248.566 117.04 250.006 118.44C251.486 119.84 253.866 120.54 257.146 120.54C258.546 120.54 259.906 120.4 261.226 120.12C262.586 119.84 263.846 119.42 265.006 118.86V124.86C262.326 126.02 259.106 126.6 255.346 126.6ZM273.123 126V85.56H281.223V99.96C282.383 99.08 283.803 98.36 285.483 97.8C287.163 97.24 288.983 96.96 290.943 96.96C294.703 96.96 297.443 97.84 299.163 99.6C300.883 101.36 301.743 104.08 301.743 107.76V126H293.643V108.18C293.643 106.26 293.243 104.9 292.443 104.1C291.683 103.3 290.243 102.9 288.123 102.9C286.883 102.9 285.623 103.18 284.343 103.74C283.103 104.3 282.063 105 281.223 105.84V126H273.123ZM326.322 123.78V116.22L345.822 107.76L326.322 99.36V91.8L354.402 104.46V111.12L326.322 123.78Z" fill="#FF461E"/>
<path d="M149.3 123.78L121.22 111.12V104.46L149.3 91.8V99.36L129.8 107.76L149.3 116.22V123.78ZM183.603 126V93.6H171.723V87.36H203.523V93.6H191.703V126H183.603ZM220.127 126.6C215.207 126.6 211.307 125.38 208.427 122.94C205.547 120.46 204.107 116.72 204.107 111.72C204.107 107.2 205.307 103.62 207.707 100.98C210.147 98.3 213.767 96.96 218.567 96.96C222.967 96.96 226.327 98.12 228.647 100.44C231.007 102.72 232.187 105.72 232.187 109.44V114.6H211.607C212.047 116.88 213.087 118.44 214.727 119.28C216.407 120.12 218.767 120.54 221.807 120.54C223.327 120.54 224.867 120.4 226.427 120.12C228.027 119.84 229.387 119.48 230.507 119.04V124.8C229.187 125.4 227.647 125.84 225.887 126.12C224.127 126.44 222.207 126.6 220.127 126.6ZM211.607 109.62H225.107V108.06C225.107 106.42 224.627 105.14 223.667 104.22C222.707 103.26 221.087 102.78 218.807 102.78C216.127 102.78 214.247 103.32 213.167 104.4C212.127 105.48 211.607 107.22 211.607 109.62ZM255.346 126.6C250.266 126.6 246.366 125.34 243.646 122.82C240.966 120.3 239.626 116.62 239.626 111.78C239.626 106.78 241.066 103.06 243.946 100.62C246.866 98.18 250.746 96.96 255.586 96.96C257.586 96.96 259.306 97.1 260.746 97.38C262.186 97.66 263.586 98.12 264.946 98.76V104.58C263.946 104.1 262.786 103.72 261.466 103.44C260.146 103.16 258.726 103.02 257.206 103.02C254.166 103.02 251.846 103.66 250.246 104.94C248.646 106.18 247.846 108.46 247.846 111.78C247.846 114.82 248.566 117.04 250.006 118.44C251.486 119.84 253.866 120.54 257.146 120.54C258.546 120.54 259.906 120.4 261.226 120.12C262.586 119.84 263.846 119.42 265.006 118.86V124.86C262.326 126.02 259.106 126.6 255.346 126.6ZM273.123 126V85.56H281.223V99.96C282.383 99.08 283.803 98.36 285.483 97.8C287.163 97.24 288.983 96.96 290.943 96.96C294.703 96.96 297.443 97.84 299.163 99.6C300.883 101.36 301.743 104.08 301.743 107.76V126H293.643V108.18C293.643 106.26 293.243 104.9 292.443 104.1C291.683 103.3 290.243 102.9 288.123 102.9C286.883 102.9 285.623 103.18 284.343 103.74C283.103 104.3 282.063 105 281.223 105.84V126H273.123ZM326.322 123.78V116.22L345.822 107.76L326.322 99.36V91.8L354.402 104.46V111.12L326.322 123.78Z" fill="#FF461E" fill-opacity="0.5"/>
<path d="M149.3 123.78L149.094 124.236L149.8 124.554V123.78H149.3ZM121.22 111.12H120.72V111.443L121.014 111.576L121.22 111.12ZM121.22 104.46L121.014 104.004L120.72 104.137V104.46H121.22ZM149.3 91.8H149.8V91.0261L149.094 91.3442L149.3 91.8ZM149.3 99.36L149.498 99.8192L149.8 99.689V99.36H149.3ZM129.8 107.76L129.602 107.301L128.54 107.758L129.601 108.219L129.8 107.76ZM149.3 116.22H149.8V115.892L149.499 115.761L149.3 116.22ZM149.506 123.324L121.426 110.664L121.014 111.576L149.094 124.236L149.506 123.324ZM121.72 111.12V104.46H120.72V111.12H121.72ZM121.426 104.916L149.506 92.2558L149.094 91.3442L121.014 104.004L121.426 104.916ZM148.8 91.8V99.36H149.8V91.8H148.8ZM149.102 98.9008L129.602 107.301L129.998 108.219L149.498 99.8192L149.102 98.9008ZM129.601 108.219L149.101 116.679L149.499 115.761L129.999 107.301L129.601 108.219ZM148.8 116.22V123.78H149.8V116.22H148.8ZM183.603 126H183.103V126.5H183.603V126ZM183.603 93.6H184.103V93.1H183.603V93.6ZM171.723 93.6H171.223V94.1H171.723V93.6ZM171.723 87.36V86.86H171.223V87.36H171.723ZM203.523 87.36H204.023V86.86H203.523V87.36ZM203.523 93.6V94.1H204.023V93.6H203.523ZM191.703 93.6V93.1H191.203V93.6H191.703ZM191.703 126V126.5H192.203V126H191.703ZM184.103 126V93.6H183.103V126H184.103ZM183.603 93.1H171.723V94.1H183.603V93.1ZM172.223 93.6V87.36H171.223V93.6H172.223ZM171.723 87.86H203.523V86.86H171.723V87.86ZM203.023 87.36V93.6H204.023V87.36H203.023ZM203.523 93.1H191.703V94.1H203.523V93.1ZM191.203 93.6V126H192.203V93.6H191.203ZM191.703 125.5H183.603V126.5H191.703V125.5ZM208.427 122.94L208.1 123.319L208.104 123.321L208.427 122.94ZM207.707 100.98L207.337 100.643L207.337 100.644L207.707 100.98ZM228.647 100.44L228.293 100.794L228.299 100.8L228.647 100.44ZM232.187 114.6V115.1H232.687V114.6H232.187ZM211.607 114.6V114.1H211.001L211.116 114.695L211.607 114.6ZM214.727 119.28L214.499 119.725L214.503 119.727L214.727 119.28ZM226.427 120.12L226.341 119.627L226.338 119.628L226.427 120.12ZM230.507 119.04H231.007V118.306L230.324 118.575L230.507 119.04ZM230.507 124.8L230.714 125.255L231.007 125.122V124.8H230.507ZM225.887 126.12L225.808 125.626L225.797 125.628L225.887 126.12ZM211.607 109.62H211.107V110.12H211.607V109.62ZM225.107 109.62V110.12H225.607V109.62H225.107ZM223.667 104.22L223.313 104.574L223.321 104.581L223.667 104.22ZM213.167 104.4L212.813 104.046L212.807 104.053L213.167 104.4ZM220.127 126.1C215.289 126.1 211.515 124.901 208.75 122.559L208.104 123.321C211.098 125.859 215.125 127.1 220.127 127.1V126.1ZM208.753 122.561C206.016 120.204 204.607 116.623 204.607 111.72H203.607C203.607 116.817 205.078 120.716 208.1 123.319L208.753 122.561ZM204.607 111.72C204.607 107.29 205.781 103.842 208.077 101.316L207.337 100.644C204.833 103.398 203.607 107.11 203.607 111.72H204.607ZM208.076 101.317C210.394 98.7715 213.859 97.46 218.567 97.46V96.46C213.674 96.46 209.9 97.8285 207.337 100.643L208.076 101.317ZM218.567 97.46C222.881 97.46 226.095 98.5958 228.293 100.794L229 100.086C226.558 97.6442 223.053 96.46 218.567 96.46V97.46ZM228.299 100.8C230.548 102.972 231.687 105.836 231.687 109.44H232.687C232.687 105.604 231.465 102.468 228.994 100.08L228.299 100.8ZM231.687 109.44V114.6H232.687V109.44H231.687ZM232.187 114.1H211.607V115.1H232.187V114.1ZM211.116 114.695C211.577 117.083 212.687 118.797 214.499 119.725L214.955 118.835C213.486 118.083 212.517 116.677 212.098 114.505L211.116 114.695ZM214.503 119.727C216.283 120.617 218.732 121.04 221.807 121.04V120.04C218.802 120.04 216.531 119.623 214.95 118.833L214.503 119.727ZM221.807 121.04C223.358 121.04 224.927 120.897 226.515 120.612L226.338 119.628C224.806 119.903 223.296 120.04 221.807 120.04V121.04ZM226.513 120.613C228.135 120.329 229.53 119.961 230.69 119.505L230.324 118.575C229.244 118.999 227.918 119.351 226.341 119.627L226.513 120.613ZM230.007 119.04V124.8H231.007V119.04H230.007ZM230.3 124.345C229.029 124.923 227.534 125.352 225.808 125.626L225.965 126.614C227.76 126.328 229.345 125.877 230.714 125.255L230.3 124.345ZM225.797 125.628C224.071 125.942 222.181 126.1 220.127 126.1V127.1C222.232 127.1 224.182 126.938 225.976 126.612L225.797 125.628ZM211.607 110.12H225.107V109.12H211.607V110.12ZM225.607 109.62V108.06H224.607V109.62H225.607ZM225.607 108.06C225.607 106.318 225.093 104.894 224.013 103.859L223.321 104.581C224.16 105.386 224.607 106.522 224.607 108.06H225.607ZM224.02 103.866C222.92 102.766 221.134 102.28 218.807 102.28V103.28C221.039 103.28 222.493 103.754 223.313 104.574L224.02 103.866ZM218.807 102.28C216.087 102.28 214.037 102.823 212.813 104.046L213.52 104.754C214.457 103.817 216.167 103.28 218.807 103.28V102.28ZM212.807 104.053C211.636 105.269 211.107 107.165 211.107 109.62H212.107C212.107 107.275 212.618 105.691 213.527 104.747L212.807 104.053ZM243.646 122.82L243.304 123.184L243.306 123.187L243.646 122.82ZM243.946 100.62L243.626 100.236L243.623 100.239L243.946 100.62ZM260.746 97.38L260.842 96.8892L260.842 96.8892L260.746 97.38ZM264.946 98.76H265.446V98.4427L265.159 98.3076L264.946 98.76ZM264.946 104.58L264.73 105.031L265.446 105.375V104.58H264.946ZM250.246 104.94L250.553 105.335L250.559 105.33L250.246 104.94ZM250.006 118.44L249.658 118.799L249.663 118.803L250.006 118.44ZM261.226 120.12L261.125 119.63L261.122 119.631L261.226 120.12ZM265.006 118.86H265.506V118.063L264.789 118.41L265.006 118.86ZM265.006 124.86L265.205 125.319L265.506 125.188V124.86H265.006ZM255.346 126.1C250.345 126.1 246.584 124.86 243.986 122.453L243.306 123.187C246.148 125.82 250.187 127.1 255.346 127.1V126.1ZM243.989 122.456C241.438 120.058 240.126 116.528 240.126 111.78H239.126C239.126 116.712 240.494 120.542 243.304 123.184L243.989 122.456ZM240.126 111.78C240.126 106.876 241.535 103.318 244.269 101.001L243.623 100.239C240.597 102.802 239.126 106.684 239.126 111.78H240.126ZM244.267 101.004C247.075 98.6574 250.831 97.46 255.586 97.46V96.46C250.662 96.46 246.658 97.7026 243.626 100.236L244.267 101.004ZM255.586 97.46C257.565 97.46 259.251 97.5987 260.651 97.8708L260.842 96.8892C259.361 96.6013 257.608 96.46 255.586 96.46V97.46ZM260.651 97.8708C262.049 98.1427 263.41 98.5896 264.733 99.2124L265.159 98.3076C263.763 97.6504 262.323 97.1773 260.842 96.8892L260.651 97.8708ZM264.446 98.76V104.58H265.446V98.76H264.446ZM265.163 104.129C264.12 103.629 262.921 103.237 261.57 102.951L261.362 103.929C262.652 104.203 263.773 104.571 264.73 105.031L265.163 104.129ZM261.57 102.951C260.212 102.663 258.757 102.52 257.206 102.52V103.52C258.696 103.52 260.081 103.657 261.362 103.929L261.57 102.951ZM257.206 102.52C254.106 102.52 251.657 103.171 249.934 104.55L250.559 105.33C252.036 104.149 254.227 103.52 257.206 103.52V102.52ZM249.94 104.545C248.157 105.927 247.346 108.404 247.346 111.78H248.346C248.346 108.516 249.136 106.433 250.553 105.335L249.94 104.545ZM247.346 111.78C247.346 114.886 248.081 117.265 249.658 118.798L250.355 118.082C249.052 116.815 248.346 114.754 248.346 111.78H247.346ZM249.663 118.803C251.278 120.331 253.813 121.04 257.146 121.04V120.04C253.92 120.04 251.694 119.349 250.35 118.077L249.663 118.803ZM257.146 121.04C258.58 121.04 259.975 120.897 261.33 120.609L261.122 119.631C259.838 119.903 258.513 120.04 257.146 120.04V121.04ZM261.327 120.61C262.724 120.322 264.024 119.89 265.224 119.31L264.789 118.41C263.669 118.95 262.448 119.358 261.125 119.63L261.327 120.61ZM264.506 118.86V124.86H265.506V118.86H264.506ZM264.808 124.401C262.206 125.527 259.057 126.1 255.346 126.1V127.1C259.156 127.1 262.447 126.513 265.205 125.319L264.808 124.401ZM273.123 126H272.623V126.5H273.123V126ZM273.123 85.56V85.06H272.623V85.56H273.123ZM281.223 85.56H281.723V85.06H281.223V85.56ZM281.223 99.96H280.723V100.967L281.525 100.358L281.223 99.96ZM301.743 126V126.5H302.243V126H301.743ZM293.643 126H293.143V126.5H293.643V126ZM292.443 104.1L292.081 104.444L292.09 104.454L292.443 104.1ZM284.343 103.74L284.143 103.282L284.137 103.284L284.343 103.74ZM281.223 105.84L280.87 105.486L280.723 105.633V105.84H281.223ZM281.223 126V126.5H281.723V126H281.223ZM273.623 126V85.56H272.623V126H273.623ZM273.123 86.06H281.223V85.06H273.123V86.06ZM280.723 85.56V99.96H281.723V85.56H280.723ZM281.525 100.358C282.634 99.5176 284.002 98.8207 285.641 98.2743L285.325 97.3257C283.604 97.8993 282.133 98.6424 280.921 99.5617L281.525 100.358ZM285.641 98.2743C287.265 97.733 289.031 97.46 290.943 97.46V96.46C288.935 96.46 287.061 96.7469 285.325 97.3257L285.641 98.2743ZM290.943 97.46C294.638 97.46 297.219 98.3263 298.806 99.9495L299.521 99.2505C297.667 97.3537 294.768 96.46 290.943 96.46V97.46ZM298.806 99.9495C300.398 101.579 301.243 104.147 301.243 107.76H302.243C302.243 104.013 301.369 101.141 299.521 99.2505L298.806 99.9495ZM301.243 107.76V126H302.243V107.76H301.243ZM301.743 125.5H293.643V126.5H301.743V125.5ZM294.143 126V108.18H293.143V126H294.143ZM294.143 108.18C294.143 106.214 293.738 104.688 292.797 103.746L292.09 104.454C292.748 105.112 293.143 106.306 293.143 108.18H294.143ZM292.806 103.756C291.895 102.797 290.268 102.4 288.123 102.4V103.4C290.219 103.4 291.472 103.803 292.081 104.444L292.806 103.756ZM288.123 102.4C286.806 102.4 285.478 102.698 284.143 103.282L284.544 104.198C285.768 103.662 286.96 103.4 288.123 103.4V102.4ZM284.137 103.284C282.85 103.866 281.758 104.598 280.87 105.486L281.577 106.194C282.368 105.402 283.356 104.734 284.549 104.196L284.137 103.284ZM280.723 105.84V126H281.723V105.84H280.723ZM281.223 125.5H273.123V126.5H281.223V125.5ZM326.322 123.78H325.822V124.554L326.527 124.236L326.322 123.78ZM326.322 116.22L326.123 115.761L325.822 115.892V116.22H326.322ZM345.822 107.76L346.021 108.219L347.082 107.758L346.019 107.301L345.822 107.76ZM326.322 99.36H325.822V99.689L326.124 99.8192L326.322 99.36ZM326.322 91.8L326.527 91.3442L325.822 91.0261V91.8H326.322ZM354.402 104.46H354.902V104.137L354.607 104.004L354.402 104.46ZM354.402 111.12L354.607 111.576L354.902 111.443V111.12H354.402ZM326.822 123.78V116.22H325.822V123.78H326.822ZM326.521 116.679L346.021 108.219L345.623 107.301L326.123 115.761L326.521 116.679ZM346.019 107.301L326.519 98.9008L326.124 99.8192L345.624 108.219L346.019 107.301ZM326.822 99.36V91.8H325.822V99.36H326.822ZM326.116 92.2558L354.196 104.916L354.607 104.004L326.527 91.3442L326.116 92.2558ZM353.902 104.46V111.12H354.902V104.46H353.902ZM354.196 110.664L326.116 123.324L326.527 124.236L354.607 111.576L354.196 110.664Z" fill="#1E1A1A"/>
<defs>
<filter id="filter0_d_2_669" x="0.367981" y="27.864" width="256.087" height="62.4" filterUnits="userSpaceOnUse" color-interpolation-filters="sRGB">
<feFlood flood-opacity="0" result="BackgroundImageFix"/>
<feColorMatrix in="SourceAlpha" type="matrix" values="0 0 0 0 0 0 0 0 0 0 0 0 0 0 0 0 0 0 127 0" result="hardAlpha"/>
<feOffset dy="4"/>
<feGaussianBlur stdDeviation="2"/>
<feComposite in2="hardAlpha" operator="out"/>
<feColorMatrix type="matrix" values="0 0 0 0 0 0 0 0 0 0 0 0 0 0 0 0 0 0 0.25 0"/>
<feBlend mode="normal" in2="BackgroundImageFix" result="effect1_dropShadow_2_669"/>
<feBlend mode="normal" in="SourceGraphic" in2="effect1_dropShadow_2_669" result="shape"/>
</filter>
</defs>
</svg>
