<svg width="34" height="34" viewBox="0 0 34 34" fill="none" xmlns="http://www.w3.org/2000/svg">
<path d="M4.25 8.5H7.08333H29.75" stroke="white" stroke-width="2" stroke-linecap="round" stroke-linejoin="round"/>
<path d="M26.9167 8.5V28.3333C26.9167 29.0848 26.6182 29.8055 26.0868 30.3368C25.5555 30.8682 24.8348 31.1667 24.0833 31.1667H9.91667C9.16522 31.1667 8.44455 30.8682 7.9132 30.3368C7.38184 29.8055 7.08333 29.0848 7.08333 28.3333V8.5M11.3333 8.5V5.66667C11.3333 4.91522 11.6318 4.19455 12.1632 3.6632C12.6946 3.13185 13.4152 2.83334 14.1667 2.83334H19.8333C20.5848 2.83334 21.3054 3.13185 21.8368 3.6632C22.3682 4.19455 22.6667 4.91522 22.6667 5.66667V8.5" stroke="white" stroke-width="2" stroke-linecap="round" stroke-linejoin="round"/>
<path d="M14.1667 15.5833V24.0833" stroke="white" stroke-width="2" stroke-linecap="round" stroke-linejoin="round"/>
<path d="M19.8333 15.5833V24.0833" stroke="white" stroke-width="2" stroke-linecap="round" stroke-linejoin="round"/>
</svg>
